<svg xmlns="http://www.w3.org/2000/svg" xmlns:xlink="http://www.w3.org/1999/xlink" width="500" zoomAndPan="magnify" viewBox="0 0 375 374.999991" height="500" preserveAspectRatio="xMidYMid meet" version="1.0"><defs><clipPath id="00ab206f7e"><path d="M 25.621094 18.234375 L 360.121094 18.234375 L 360.121094 367 L 25.621094 367 Z M 25.621094 18.234375 " clip-rule="nonzero"/></clipPath></defs><g clip-path="url(#00ab206f7e)"><path fill="#cb202d" d="M 328.324219 269.082031 C 329.160156 268.304688 329.988281 267.503906 330.792969 266.699219 C 348.96875 248.523438 360.210938 223.417969 360.210938 195.679688 C 360.210938 167.941406 348.96875 142.84375 330.792969 124.667969 C 312.617188 106.492188 287.511719 95.25 259.773438 95.25 C 232.039062 95.25 206.9375 106.492188 188.761719 124.667969 C 184.15625 129.273438 180 134.324219 176.351562 139.746094 C 170.691406 137.601562 164.824219 135.902344 158.792969 134.695312 C 151.644531 133.265625 144.253906 132.515625 136.6875 132.515625 C 108.941406 132.515625 83.53125 142.609375 63.9375 159.332031 C 44.144531 176.226562 30.292969 199.917969 25.992188 226.804688 C 25.597656 228.640625 26.371094 230.613281 28.046875 231.671875 C 42.675781 240.910156 59.761719 248.304688 78.53125 253.328125 C 96.582031 258.152344 116.195312 260.804688 136.6875 260.804688 C 144.542969 260.804688 152.363281 260.40625 160.085938 259.628906 C 166.875 258.945312 173.53125 257.964844 180.011719 256.722656 C 182.710938 260.238281 185.628906 263.574219 188.761719 266.699219 C 189.570312 267.503906 190.390625 268.304688 191.234375 269.082031 L 170.429688 346.707031 C 169.289062 350.632812 173.53125 354.105469 177.171875 352.019531 L 206.238281 335.378906 L 222.988281 364.148438 C 224.921875 367.824219 230.460938 367.28125 231.558594 363.1875 L 249.660156 295.613281 C 252.988281 295.949219 256.367188 296.113281 259.773438 296.113281 C 263.183594 296.113281 266.570312 295.949219 269.890625 295.613281 L 288 363.1875 C 289.089844 367.28125 294.632812 367.824219 296.566406 364.148438 L 313.316406 335.386719 L 342.386719 352.019531 C 346.027344 354.105469 350.261719 350.632812 349.121094 346.707031 Z M 136.6875 18.464844 C 148.832031 18.464844 159.820312 23.382812 167.777344 31.339844 C 175.734375 39.296875 180.652344 50.285156 180.652344 62.429688 C 180.652344 74.570312 175.734375 85.558594 167.777344 93.515625 C 159.820312 101.472656 148.832031 106.394531 136.6875 106.394531 C 124.546875 106.394531 113.558594 101.472656 105.601562 93.515625 C 97.644531 85.558594 92.722656 74.570312 92.722656 62.429688 C 92.722656 50.285156 97.644531 39.296875 105.601562 31.339844 C 113.558594 23.382812 124.546875 18.464844 136.6875 18.464844 Z M 136.6875 18.464844 " fill-opacity="1" fill-rule="evenodd"/></g><path fill="#ffffff" d="M 263.828125 153.675781 L 274.285156 179.273438 L 301.878906 181.304688 C 306.128906 181.605469 307.691406 186.980469 304.40625 189.5625 L 283.414062 207.320312 L 289.996094 234.203125 C 290.992188 238.292969 286.429688 241.394531 282.992188 239.15625 L 259.554688 224.640625 L 236.035156 239.214844 C 232.496094 241.394531 228.171875 238.132812 229.121094 234.203125 L 235.707031 207.320312 L 214.582031 189.453125 C 211.390625 186.757812 213.164062 181.597656 217.242188 181.3125 L 244.832031 179.273438 L 255.289062 153.675781 C 256.859375 149.820312 262.289062 149.898438 263.828125 153.675781 Z M 309.21875 145.691406 C 296.507812 132.988281 278.953125 125.125 259.554688 125.125 C 240.160156 125.125 222.613281 132.988281 209.902344 145.691406 C 197.191406 158.402344 189.335938 175.957031 189.335938 195.351562 C 189.335938 214.75 197.191406 232.296875 209.902344 245.007812 C 222.613281 257.71875 240.167969 265.574219 259.554688 265.574219 C 278.945312 265.574219 296.507812 257.71875 309.21875 245.007812 C 321.929688 232.296875 329.785156 214.742188 329.785156 195.351562 C 329.785156 175.964844 321.929688 158.402344 309.21875 145.691406 Z M 309.21875 145.691406 " fill-opacity="1" fill-rule="evenodd"/><path fill="#fff9f3" d="M 263.828125 153.675781 L 274.285156 179.273438 L 301.878906 181.304688 C 306.128906 181.605469 307.691406 186.980469 304.40625 189.5625 L 283.414062 207.320312 L 289.996094 234.203125 C 290.992188 238.292969 286.429688 241.394531 282.992188 239.15625 L 259.554688 224.640625 L 236.035156 239.214844 C 232.496094 241.394531 228.171875 238.132812 229.121094 234.203125 L 235.707031 207.320312 L 214.582031 189.453125 C 211.390625 186.757812 213.164062 181.597656 217.242188 181.3125 L 244.832031 179.273438 L 255.289062 153.675781 C 256.859375 149.820312 262.289062 149.898438 263.828125 153.675781 Z M 302.566406 250.871094 C 304.90625 249.058594 307.125 247.097656 309.21875 245.007812 C 321.929688 232.296875 329.785156 214.742188 329.785156 195.351562 C 329.785156 175.964844 321.929688 158.402344 309.21875 145.691406 C 296.507812 132.988281 278.953125 125.125 259.554688 125.125 C 240.160156 125.125 222.613281 132.988281 209.902344 145.691406 C 197.191406 158.402344 189.335938 175.957031 189.335938 195.351562 C 189.335938 214.75 197.191406 232.296875 209.902344 245.007812 C 211.691406 246.796875 213.578125 248.492188 215.554688 250.082031 C 229.617188 254.742188 244.648438 257.273438 260.273438 257.273438 C 275.003906 257.273438 289.207031 255.03125 302.566406 250.871094 Z M 302.566406 250.871094 " fill-opacity="1" fill-rule="evenodd"/><path fill="#ffffff" d="M 278.894531 293.921875 L 293.847656 349.738281 L 307.417969 326.433594 C 308.6875 324.238281 311.5 323.484375 313.710938 324.738281 L 337.117188 338.132812 L 320.292969 275.347656 C 308.316406 284.453125 294.226562 290.933594 278.894531 293.921875 Z M 278.894531 293.921875 " fill-opacity="1" fill-rule="evenodd"/><path fill="#ffffff" d="M 198.828125 275.347656 L 182.003906 338.132812 L 205.402344 324.734375 C 207.613281 323.484375 210.433594 324.238281 211.703125 326.433594 L 225.269531 349.730469 L 240.226562 293.921875 C 224.894531 290.933594 210.800781 284.453125 198.828125 275.347656 Z M 198.828125 275.347656 " fill-opacity="1" fill-rule="evenodd"/><path fill="#ffffff" d="M 174.046875 248.046875 C 164.585938 232.726562 159.128906 214.675781 159.128906 195.351562 C 159.128906 178.015625 163.515625 161.707031 171.25 147.480469 C 166.578125 145.800781 161.742188 144.449219 156.765625 143.453125 C 150.210938 142.136719 143.425781 141.449219 136.46875 141.449219 C 110.992188 141.449219 87.6875 150.699219 69.730469 166.015625 C 52.230469 180.949219 39.796875 201.640625 35.371094 225.140625 C 48.613281 233.121094 63.925781 239.566406 80.703125 244.054688 C 97.960938 248.671875 116.769531 251.207031 136.46875 251.207031 C 144.207031 251.207031 151.714844 250.828125 158.96875 250.101562 C 164.078125 249.585938 169.113281 248.894531 174.046875 248.046875 Z M 174.046875 248.046875 " fill-opacity="1" fill-rule="evenodd"/><path fill="#fff9f3" d="M 161.542969 217.339844 C 159.960938 210.265625 159.128906 202.90625 159.128906 195.351562 C 159.128906 178.015625 163.519531 161.707031 171.25 147.480469 C 166.578125 145.800781 161.746094 144.449219 156.765625 143.453125 C 150.210938 142.136719 143.425781 141.449219 136.46875 141.449219 C 131.167969 141.449219 125.960938 141.847656 120.875 142.621094 C 126.554688 171.671875 141.078125 197.554688 161.542969 217.339844 Z M 161.542969 217.339844 " fill-opacity="1" fill-rule="evenodd"/><path fill="#ffffff" d="M 259.554688 115.859375 C 281.507812 115.859375 301.382812 124.753906 315.765625 139.144531 C 330.152344 153.523438 339.050781 173.398438 339.050781 195.351562 C 339.050781 217.308594 330.152344 237.175781 315.765625 251.5625 C 301.382812 265.945312 281.507812 274.847656 259.554688 274.847656 C 237.601562 274.847656 217.734375 265.945312 203.355469 251.5625 C 188.964844 237.175781 180.070312 217.300781 180.070312 195.351562 C 180.070312 173.40625 188.964844 153.523438 203.355469 139.144531 C 217.734375 124.753906 237.609375 115.859375 259.554688 115.859375 Z M 324.027344 130.890625 C 307.523438 114.386719 284.734375 104.183594 259.554688 104.183594 C 234.375 104.183594 211.59375 114.386719 195.089844 130.890625 C 178.597656 147.382812 168.394531 170.171875 168.394531 195.351562 C 168.394531 220.53125 178.597656 243.320312 195.089844 259.816406 C 212.207031 276.925781 235.269531 286.515625 259.554688 286.515625 C 283.84375 286.515625 306.914062 276.925781 324.027344 259.816406 C 340.523438 243.320312 350.726562 220.527344 350.726562 195.351562 C 350.726562 170.179688 340.523438 147.382812 324.027344 130.890625 Z M 324.027344 130.890625 " fill-opacity="1" fill-rule="evenodd"/><path fill="#fff9f3" d="M 259.554688 115.859375 C 281.507812 115.859375 301.382812 124.753906 315.765625 139.144531 C 330.152344 153.523438 339.050781 173.398438 339.050781 195.351562 C 339.050781 212.945312 333.332031 229.203125 323.65625 242.375 C 330.757812 238.824219 337.523438 234.699219 343.886719 230.058594 C 348.292969 219.359375 350.726562 207.640625 350.726562 195.351562 C 350.726562 170.171875 340.523438 147.382812 324.027344 130.890625 C 307.53125 114.394531 284.734375 104.183594 259.554688 104.183594 C 234.375 104.183594 211.59375 114.386719 195.089844 130.890625 C 178.59375 147.382812 168.390625 170.171875 168.390625 195.351562 C 168.390625 207.066406 170.601562 218.261719 174.625 228.550781 C 180.90625 233.304688 187.597656 237.546875 194.628906 241.21875 C 185.457031 228.257812 180.070312 212.433594 180.070312 195.351562 C 180.070312 173.398438 188.964844 153.523438 203.351562 139.144531 C 217.734375 124.753906 237.609375 115.859375 259.554688 115.859375 Z M 259.554688 115.859375 " fill-opacity="1" fill-rule="evenodd"/><path fill="#ffffff" d="M 266.835938 185.414062 L 259.554688 167.601562 L 252.425781 185.054688 C 251.875 186.816406 250.289062 188.152344 248.335938 188.289062 L 229.195312 189.699219 L 243.859375 202.113281 C 245.144531 203.203125 245.785156 204.96875 245.363281 206.726562 L 240.777344 225.417969 L 257.054688 215.328125 C 258.511719 214.398438 260.421875 214.320312 261.984375 215.285156 L 278.339844 225.417969 L 273.8125 206.964844 C 273.304688 205.257812 273.8125 203.332031 275.261719 202.113281 L 289.925781 189.699219 L 270.785156 188.277344 C 269.082031 188.152344 267.519531 187.089844 266.835938 185.414062 Z M 266.835938 185.414062 " fill-opacity="1" fill-rule="evenodd"/><path fill="#ffffff" d="M 161.011719 37.554688 C 154.730469 31.273438 146.054688 27.394531 136.46875 27.394531 C 126.882812 27.394531 118.207031 31.273438 111.929688 37.554688 C 105.652344 43.832031 101.769531 52.507812 101.769531 62.09375 C 101.769531 71.679688 105.652344 80.355469 111.929688 86.632812 C 118.207031 92.914062 126.882812 96.792969 136.46875 96.792969 C 146.054688 96.792969 154.730469 92.914062 161.011719 86.632812 C 167.289062 80.355469 171.167969 71.679688 171.167969 62.09375 C 171.167969 52.507812 167.289062 43.832031 161.011719 37.554688 Z M 161.011719 37.554688 " fill-opacity="1" fill-rule="evenodd"/><path fill="#fff9f3" d="M 161.011719 37.554688 C 157.207031 33.75 152.527344 30.828125 147.296875 29.113281 C 133.386719 47.335938 123.789062 69.023438 120.015625 92.652344 C 124.910156 95.292969 130.515625 96.792969 136.46875 96.792969 C 146.054688 96.792969 154.730469 92.910156 161.011719 86.632812 C 167.289062 80.355469 171.167969 71.679688 171.167969 62.09375 C 171.167969 52.507812 167.289062 43.832031 161.011719 37.550781 Z M 161.011719 37.554688 " fill-opacity="1" fill-rule="evenodd"/></svg>