<svg xmlns="http://www.w3.org/2000/svg" xmlns:xlink="http://www.w3.org/1999/xlink" width="500" zoomAndPan="magnify" viewBox="0 0 375 374.999991" height="500" preserveAspectRatio="xMidYMid meet" version="1.0"><defs><clipPath id="1c03918367"><path d="M 2 23 L 373 23 L 373 353.726562 L 2 353.726562 Z M 2 23 " clip-rule="nonzero"/></clipPath><clipPath id="f975aa20ae"><path d="M 0 21.476562 L 375 21.476562 L 375 353.726562 L 0 353.726562 Z M 0 21.476562 " clip-rule="nonzero"/></clipPath></defs><g clip-path="url(#1c03918367)"><path fill="#cb202d" d="M 189.699219 353.515625 C 22.578125 250.898438 2.054688 94.042969 2.054688 94.042969 L 39.671875 56.394531 L 72.378906 23.675781 L 305.464844 23.675781 L 372.945312 96.972656 C 372.945312 96.972656 364.148438 249.433594 189.699219 353.515625 " fill-opacity="1" fill-rule="nonzero"/></g><g clip-path="url(#f975aa20ae)"><path fill="#ffffff" d="M 189.699219 353.515625 C 195.417969 349.835938 201.207031 346.261719 206.867188 342.507812 L 215.25 336.6875 C 218.035156 334.765625 220.851562 332.847656 223.53125 330.765625 C 228.957031 326.675781 234.46875 322.703125 239.660156 318.332031 L 247.558594 311.898438 L 255.199219 305.167969 L 259.007812 301.796875 C 260.269531 300.652344 261.472656 299.464844 262.71875 298.308594 L 270.078125 291.285156 C 272.496094 288.898438 274.828125 286.433594 277.1875 284 L 280.734375 280.351562 C 281.921875 279.132812 283.023438 277.84375 284.164062 276.582031 L 290.953125 269.019531 L 297.476562 261.21875 C 298.546875 259.914062 299.675781 258.640625 300.699219 257.289062 L 303.824219 253.273438 L 306.929688 249.257812 C 307.988281 247.921875 309 246.574219 309.964844 245.183594 L 315.886719 236.929688 L 321.53125 228.46875 C 323.4375 225.683594 325.140625 222.753906 326.925781 219.878906 L 329.59375 215.539062 L 332.101562 211.128906 C 335.503906 205.277344 338.640625 199.269531 341.660156 193.214844 C 343.125 190.164062 344.664062 187.144531 346.042969 184.050781 C 347.390625 180.957031 348.84375 177.894531 350.132812 174.757812 C 352.726562 168.527344 355.207031 162.222656 357.417969 155.832031 C 358.519531 152.636719 359.632812 149.441406 360.601562 146.199219 C 361.65625 142.992188 362.550781 139.734375 363.472656 136.480469 C 365.246094 129.957031 366.875 123.390625 368.148438 116.765625 C 369.441406 110.167969 370.554688 103.4375 371.066406 96.855469 L 371.566406 98.234375 L 303.96875 25.039062 L 305.464844 25.699219 L 188.921875 25.875 L 72.378906 25.699219 L 73.816406 25.097656 L 3.390625 95.363281 L 3.929688 93.792969 C 4.917969 100.402344 6.414062 107.132812 8.074219 113.730469 C 9.742188 120.339844 11.664062 126.894531 13.726562 133.402344 C 15.863281 139.898438 18.074219 146.363281 20.574219 152.722656 C 21.777344 155.933594 23.078125 159.085938 24.398438 162.238281 C 25.671875 165.40625 27.082031 168.527344 28.472656 171.648438 C 29.835938 174.785156 31.332031 177.867188 32.8125 180.945312 C 34.25 184.050781 35.816406 187.085938 37.386719 190.121094 L 39.730469 194.679688 L 42.195312 199.179688 C 43.835938 202.1875 45.464844 205.191406 47.238281 208.121094 C 48.996094 211.054688 50.652344 214.046875 52.5 216.933594 L 57.984375 225.613281 C 61.824219 231.269531 65.589844 236.988281 69.679688 242.46875 L 72.699219 246.632812 C 73.710938 248.011719 74.78125 249.332031 75.839844 250.695312 C 77.949219 253.390625 80.015625 256.117188 82.15625 258.785156 C 86.570312 264.019531 90.847656 269.371094 95.480469 274.414062 C 99.96875 279.601562 104.777344 284.46875 109.511719 289.4375 C 111.871094 291.917969 114.40625 294.234375 116.839844 296.636719 C 119.320312 298.996094 121.707031 301.460938 124.300781 303.703125 C 129.402344 308.277344 134.445312 312.9375 139.78125 317.234375 C 142.4375 319.417969 145.03125 321.660156 147.730469 323.785156 L 155.878906 330.046875 L 159.96875 333.183594 L 164.148438 336.175781 L 172.53125 342.140625 L 174.628906 343.636719 L 181.078125 347.871094 Z M 189.699219 353.515625 L 176.609375 345.308594 L 174.4375 343.929688 L 172.3125 342.476562 L 163.796875 336.671875 C 162.386719 335.691406 160.953125 334.738281 159.558594 333.742188 L 155.425781 330.660156 L 147.15625 324.503906 C 144.429688 322.421875 141.792969 320.195312 139.109375 318.054688 C 133.683594 313.832031 128.570312 309.230469 123.394531 304.714844 C 120.753906 302.5 118.320312 300.066406 115.800781 297.738281 C 113.308594 295.347656 110.742188 293.074219 108.339844 290.613281 C 103.515625 285.699219 98.605469 280.878906 94.03125 275.734375 C 89.308594 270.71875 84.898438 265.441406 80.425781 260.195312 C 78.242188 257.539062 76.144531 254.8125 73.992188 252.128906 C 72.9375 250.765625 71.835938 249.433594 70.796875 248.054688 L 67.730469 243.90625 C 63.566406 238.425781 59.726562 232.707031 55.8125 227.035156 L 50.226562 218.355469 C 48.320312 215.46875 46.636719 212.460938 44.832031 209.53125 C 43.03125 206.597656 41.359375 203.578125 39.671875 200.574219 L 37.152344 196.058594 L 34.746094 191.484375 C 33.148438 188.449219 31.535156 185.402344 30.054688 182.277344 C 28.546875 179.183594 27.007812 176.105469 25.613281 172.953125 C 24.179688 169.816406 22.726562 166.695312 21.417969 163.5 C 20.054688 160.332031 18.714844 157.152344 17.476562 153.941406 C 14.894531 147.550781 12.605469 141.039062 10.382812 134.488281 C 8.246094 127.933594 6.242188 121.324219 4.496094 114.652344 C 2.765625 107.9375 1.265625 101.238281 0.191406 94.277344 C 0.105469 93.703125 0.304688 93.132812 0.6875 92.738281 L 0.726562 92.707031 L 70.941406 22.234375 C 71.335938 21.84375 71.851562 21.644531 72.378906 21.644531 L 188.921875 21.472656 L 305.464844 21.644531 C 306.050781 21.644531 306.578125 21.902344 306.945312 22.296875 L 374.335938 95.699219 L 374.367188 95.726562 C 374.703125 96.109375 374.863281 96.609375 374.820312 97.078125 C 374.25 104.054688 373.132812 110.769531 371.769531 117.496094 C 370.40625 124.210938 368.707031 130.835938 366.84375 137.417969 C 365.890625 140.703125 364.9375 143.988281 363.855469 147.242188 C 362.84375 150.496094 361.699219 153.722656 360.554688 156.929688 C 358.253906 163.382812 355.703125 169.714844 353.019531 176.003906 C 351.6875 179.140625 350.207031 182.21875 348.8125 185.339844 C 347.390625 188.449219 345.808594 191.46875 344.3125 194.546875 C 341.207031 200.617188 337.996094 206.640625 334.507812 212.519531 L 331.941406 216.949219 L 329.230469 221.285156 C 327.394531 224.160156 325.652344 227.105469 323.703125 229.890625 L 317.941406 238.367188 L 311.902344 246.632812 C 310.917969 248.011719 309.878906 249.375 308.808594 250.695312 L 305.640625 254.710938 L 302.476562 258.726562 C 301.417969 260.0625 300.277344 261.335938 299.191406 262.640625 L 292.535156 270.410156 L 285.585938 277.917969 C 284.429688 279.164062 283.316406 280.453125 282.097656 281.65625 L 278.492188 285.261719 C 276.058594 287.664062 273.699219 290.113281 271.234375 292.472656 L 263.746094 299.40625 C 262.484375 300.566406 261.253906 301.738281 259.976562 302.867188 L 256.09375 306.195312 L 248.335938 312.820312 L 240.332031 319.167969 C 235.054688 323.480469 229.46875 327.378906 223.988281 331.394531 C 221.261719 333.445312 218.417969 335.308594 215.585938 337.183594 L 207.085938 342.84375 C 201.351562 346.496094 195.488281 349.9375 189.699219 353.515625 " fill-opacity="1" fill-rule="nonzero"/></g><path fill="#cb202d" d="M 189.289062 322.480469 C 53.613281 239.171875 36.945312 111.824219 36.945312 111.824219 L 67.480469 81.273438 L 94.03125 54.695312 L 283.269531 54.695312 L 338.054688 114.199219 C 338.054688 114.199219 330.914062 237.984375 189.289062 322.480469 " fill-opacity="1" fill-rule="nonzero"/><path fill="#ffffff" d="M 189.289062 322.480469 C 193.921875 319.492188 198.625 316.574219 203.199219 313.511719 L 209.988281 308.789062 C 212.261719 307.207031 214.53125 305.652344 216.714844 303.96875 C 221.113281 300.640625 225.585938 297.398438 229.792969 293.835938 L 236.183594 288.605469 L 242.371094 283.136719 L 245.480469 280.394531 C 246.488281 279.472656 247.472656 278.503906 248.46875 277.550781 L 254.433594 271.847656 C 256.398438 269.914062 258.277344 267.90625 260.195312 265.925781 C 262.117188 263.960938 264.039062 261.980469 265.839844 259.914062 L 271.339844 253.757812 L 276.617188 247.425781 C 278.417969 245.328125 280.089844 243.160156 281.761719 240.976562 C 283.417969 238.777344 285.191406 236.664062 286.746094 234.40625 L 291.539062 227.691406 L 296.113281 220.832031 C 297.667969 218.574219 299.042969 216.183594 300.480469 213.855469 L 302.636719 210.351562 L 304.675781 206.757812 C 307.429688 202.007812 309.964844 197.128906 312.414062 192.21875 C 313.585938 189.738281 314.832031 187.292969 315.945312 184.785156 C 317.0625 182.261719 318.21875 179.785156 319.261719 177.25 C 321.371094 172.191406 323.363281 167.074219 325.152344 161.886719 C 326.046875 159.292969 326.941406 156.710938 327.734375 154.074219 C 328.570312 151.476562 329.300781 148.839844 330.050781 146.199219 C 331.484375 140.910156 332.789062 135.585938 333.832031 130.222656 C 334.859375 124.871094 335.765625 119.402344 336.175781 114.097656 L 336.675781 115.488281 L 281.777344 56.074219 L 283.269531 56.734375 L 188.65625 56.894531 L 94.03125 56.734375 L 95.46875 56.132812 L 38.28125 113.15625 L 38.808594 111.589844 C 39.613281 116.925781 40.832031 122.378906 42.164062 127.730469 C 43.515625 133.09375 45.066406 138.402344 46.738281 143.695312 C 48.46875 148.957031 50.257812 154.203125 52.28125 159.363281 C 53.246094 161.960938 54.304688 164.523438 55.359375 167.074219 C 56.398438 169.65625 57.542969 172.175781 58.671875 174.714844 C 59.757812 177.265625 60.988281 179.757812 62.175781 182.261719 C 63.332031 184.769531 64.609375 187.246094 65.871094 189.710938 L 67.773438 193.417969 L 69.769531 197.054688 C 71.101562 199.488281 72.421875 201.9375 73.859375 204.3125 C 76.613281 209.132812 79.589844 213.8125 82.550781 218.5 C 85.660156 223.105469 88.722656 227.75 92.035156 232.207031 C 93.648438 234.464844 95.292969 236.707031 97.019531 238.878906 C 98.734375 241.0625 100.40625 243.289062 102.152344 245.445312 C 105.714844 249.695312 109.175781 254.050781 112.941406 258.140625 C 116.5625 262.347656 120.460938 266.320312 124.300781 270.351562 C 126.207031 272.375 128.261719 274.253906 130.238281 276.203125 C 132.25 278.121094 134.183594 280.128906 136.28125 281.949219 C 140.414062 285.671875 144.503906 289.453125 148.828125 292.957031 C 150.984375 294.730469 153.078125 296.550781 155.261719 298.277344 L 161.875 303.378906 L 165.1875 305.929688 L 168.574219 308.363281 L 175.363281 313.230469 C 179.9375 316.414062 184.65625 319.390625 189.289062 322.480469 Z M 189.289062 322.480469 C 184.582031 319.507812 179.789062 316.648438 175.140625 313.554688 L 168.238281 308.863281 L 164.777344 306.488281 L 161.421875 303.996094 L 154.691406 298.996094 C 152.476562 297.3125 150.339844 295.507812 148.152344 293.777344 C 143.742188 290.347656 139.578125 286.625 135.371094 282.972656 C 133.230469 281.171875 131.238281 279.191406 129.199219 277.300781 C 127.175781 275.367188 125.066406 273.519531 123.128906 271.523438 C 119.199219 267.550781 115.214844 263.625 111.476562 259.460938 C 107.632812 255.398438 104.042969 251.121094 100.40625 246.851562 C 98.632812 244.699219 96.917969 242.484375 95.175781 240.300781 C 93.414062 238.132812 91.742188 235.886719 90.085938 233.628906 C 86.699219 229.175781 83.5625 224.542969 80.382812 219.9375 C 77.347656 215.246094 74.285156 210.554688 71.453125 205.71875 C 69.988281 203.34375 68.625 200.894531 67.261719 198.449219 L 65.195312 194.796875 L 63.246094 191.074219 C 61.941406 188.597656 60.621094 186.117188 59.417969 183.597656 C 58.1875 181.074219 56.941406 178.570312 55.796875 176.019531 C 54.640625 173.46875 53.453125 170.929688 52.382812 168.335938 C 51.269531 165.769531 50.183594 163.191406 49.171875 160.566406 C 47.0625 155.378906 45.199219 150.085938 43.398438 144.777344 C 41.652344 139.441406 40.011719 134.078125 38.589844 128.636719 C 37.179688 123.183594 35.964844 117.761719 35.085938 112.074219 C 34.996094 111.488281 35.203125 110.929688 35.582031 110.535156 L 35.613281 110.488281 L 92.609375 53.257812 C 92.988281 52.878906 93.503906 52.671875 94.015625 52.671875 L 94.03125 52.671875 L 188.65625 52.496094 L 283.269531 52.671875 C 283.855469 52.671875 284.386719 52.921875 284.765625 53.316406 L 339.433594 112.9375 L 339.476562 112.96875 C 339.828125 113.347656 339.972656 113.847656 339.929688 114.316406 C 339.460938 120.019531 338.550781 125.457031 337.4375 130.941406 C 336.324219 136.394531 334.929688 141.789062 333.421875 147.140625 C 332.644531 149.808594 331.867188 152.476562 330.988281 155.113281 C 330.152344 157.765625 329.230469 160.375 328.289062 163 C 326.414062 168.234375 324.332031 173.378906 322.148438 178.480469 C 321.0625 181.03125 319.859375 183.539062 318.71875 186.074219 C 317.558594 188.597656 316.285156 191.058594 315.066406 193.550781 C 312.53125 198.476562 309.90625 203.371094 307.078125 208.152344 L 304.980469 211.742188 L 302.78125 215.261719 C 301.289062 217.609375 299.867188 219.980469 298.28125 222.269531 L 293.605469 229.128906 L 288.679688 235.84375 C 287.082031 238.101562 285.277344 240.210938 283.59375 242.410156 C 281.878906 244.597656 280.164062 246.765625 278.332031 248.847656 L 272.921875 255.152344 L 267.277344 261.25 C 265.429688 263.300781 263.464844 265.25 261.5 267.199219 C 259.523438 269.136719 257.601562 271.128906 255.59375 273.035156 L 249.496094 278.664062 C 248.46875 279.601562 247.472656 280.554688 246.429688 281.464844 L 243.28125 284.160156 L 236.960938 289.542969 L 230.453125 294.671875 C 226.171875 298.175781 221.628906 301.328125 217.15625 304.582031 C 214.957031 306.238281 212.640625 307.765625 210.324219 309.273438 L 203.421875 313.847656 C 198.757812 316.808594 193.996094 319.59375 189.289062 322.480469 " fill-opacity="1" fill-rule="nonzero"/><path fill="#ffffff" d="M 175.933594 268.285156 C 172.8125 268.285156 169.675781 267.390625 166.902344 265.515625 L 106.871094 225.054688 C 99.46875 220.054688 97.503906 209.984375 102.503906 202.582031 C 107.503906 195.164062 117.558594 193.214844 124.976562 198.214844 L 171.710938 229.714844 L 269.855469 87.121094 C 274.929688 79.75 285 77.902344 292.359375 82.960938 C 299.734375 88.03125 301.582031 98.101562 296.523438 105.476562 L 189.289062 261.277344 C 186.136719 265.824219 181.078125 268.285156 175.933594 268.285156 " fill-opacity="1" fill-rule="nonzero"/></svg>