<svg xmlns="http://www.w3.org/2000/svg" xmlns:xlink="http://www.w3.org/1999/xlink" width="500" zoomAndPan="magnify" viewBox="0 0 375 374.999991" height="500" preserveAspectRatio="xMidYMid meet" version="1.0"><path fill="#ffffff" d="M 369.476562 186.914062 C 369.476562 285.492188 288.019531 365.402344 187.53125 365.402344 C 87.046875 365.402344 5.585938 285.492188 5.585938 186.914062 C 5.585938 88.339844 87.046875 8.425781 187.53125 8.425781 C 288.019531 8.425781 369.476562 88.339844 369.476562 186.914062 Z M 369.476562 186.914062 C 369.476562 285.492188 288.019531 365.402344 187.53125 365.402344 C 87.046875 365.402344 5.585938 285.492188 5.585938 186.914062 C 5.585938 88.339844 87.046875 8.425781 187.53125 8.425781 C 288.019531 8.425781 369.476562 88.339844 369.476562 186.914062 Z M 369.476562 186.914062 " fill-opacity="1" fill-rule="nonzero"/><path fill="#cb202d" d="M 205.972656 270.339844 C 205.972656 276.515625 200.25 278.988281 194.664062 278.988281 C 189.078125 278.988281 128.109375 278.988281 128.109375 278.988281 C 128.109375 278.988281 108.09375 278.71875 97.78125 278.71875 C 87.472656 278.71875 87.472656 273.992188 87.472656 273.992188 C 87.472656 273.992188 86.183594 250.792969 86.613281 243.210938 C 87.042969 235.628906 92.414062 236.183594 94.132812 236.183594 C 95.847656 236.183594 120.984375 236.183594 120.984375 236.183594 C 159.003906 236.183594 196.222656 232.792969 203.042969 238.117188 C 207.65625 241.722656 205.972656 264.167969 205.972656 270.339844 Z M 205.972656 270.339844 " fill-opacity="1" fill-rule="nonzero"/><path fill="#cb202d" d="M 204.210938 75.339844 L 204.210938 95.941406 L 179.90625 95.695312 L 179.90625 75.339844 Z M 204.210938 75.339844 L 204.210938 95.941406 L 179.90625 95.695312 L 179.90625 75.339844 Z M 204.210938 75.339844 " fill-opacity="1" fill-rule="nonzero"/><path fill="#090909" d="M 189.800781 278.933594 C 191.515625 279.359375 193.355469 279.3125 195.148438 278.910156 C 197.894531 286.234375 208.433594 285.804688 212.976562 280.625 C 213.484375 282.820312 214.847656 284.773438 217.011719 285.96875 C 220.421875 287.851562 224.886719 287.316406 228.199219 285.457031 C 229.5 284.730469 230.609375 283.734375 231.453125 282.570312 C 233.539062 284.339844 236.605469 284.578125 239.273438 283.800781 C 241.273438 283.21875 243.09375 282.019531 244.203125 280.371094 C 248.554688 280.371094 252.910156 280.371094 257.261719 280.371094 C 257.941406 280.371094 258.621094 280.371094 259.296875 280.371094 C 260.292969 280.371094 261.804688 279.609375 261.949219 278.515625 C 262.105469 277.292969 260.636719 277.082031 259.777344 277.082031 C 254.976562 277.082031 250.171875 277.082031 245.371094 277.082031 C 245.335938 277.082031 245.304688 277.082031 245.269531 277.082031 C 245.277344 276.867188 245.308594 276.664062 245.296875 276.445312 C 245.101562 273.171875 242.453125 271.25 239.511719 270.753906 C 241.484375 268.773438 242.59375 266.09375 242.058594 263.140625 C 241.40625 259.546875 238.378906 256.9375 234.863281 256.316406 C 230.945312 255.625 226.347656 257.121094 223.761719 260.1875 C 223.648438 260.320312 223.5625 260.46875 223.460938 260.605469 C 223.097656 260.332031 222.714844 260.074219 222.292969 259.851562 C 219.832031 258.558594 216.996094 258.5 214.359375 259.230469 C 214.15625 253.621094 208.9375 250.175781 203.226562 251.105469 C 197.984375 251.960938 193.476562 256.226562 194.089844 261.363281 C 191.230469 261.429688 188.355469 262.507812 186.246094 264.375 C 184.972656 265.503906 183.957031 267.144531 183.484375 268.886719 C 181.703125 268.457031 179.777344 268.464844 178.007812 268.847656 C 162.796875 262.960938 145.171875 262.359375 129.214844 265.007812 C 119.671875 266.589844 109.847656 269.605469 102.015625 275.484375 C 101.199219 276.097656 100.371094 276.761719 99.609375 277.476562 C 98.203125 277.496094 96.796875 277.5 95.398438 277.441406 C 91.5 277.269531 89.511719 273.871094 89.488281 270.304688 C 89.445312 263.414062 89.488281 256.519531 89.488281 249.632812 C 89.488281 246.019531 88.25 237.378906 93.753906 237.253906 C 103.800781 237.03125 113.878906 237.253906 123.929688 237.253906 C 140.042969 237.253906 156.15625 237.253906 172.269531 237.253906 C 178.230469 237.253906 184.1875 237.253906 190.148438 237.253906 C 186.714844 240.496094 181.738281 242.550781 177.4375 244.03125 C 170.792969 246.308594 163.757812 247.34375 156.769531 247.773438 C 147.636719 248.339844 138.355469 247.90625 129.355469 246.210938 C 122.730469 244.964844 116.210938 243.003906 110.183594 239.949219 C 109.316406 239.511719 107.964844 239.933594 107.117188 240.246094 C 106.910156 240.320312 104.964844 241.195312 105.679688 241.558594 C 119.875 248.753906 136.550781 250.421875 152.234375 249.765625 C 165.25 249.21875 179.273438 246.800781 190.480469 239.730469 C 191.71875 238.945312 193.019531 238.089844 194.171875 237.101562 C 195.523438 237.0625 196.875 237.097656 198.085938 237.398438 C 200.996094 238.121094 202.601562 240.972656 202.710938 243.789062 C 202.765625 245.183594 207.550781 244.269531 207.484375 242.511719 C 207.296875 237.714844 203.3125 234.792969 198.757812 234.683594 C 197.765625 234.660156 196.769531 234.683594 195.78125 234.683594 C 190.457031 234.683594 185.132812 234.683594 179.808594 234.683594 C 163.160156 234.683594 146.511719 234.683594 129.863281 234.683594 C 118.546875 234.683594 107.226562 234.621094 95.910156 234.683594 C 93.039062 234.699219 90.167969 235.34375 87.894531 237.210938 C 85.09375 239.503906 84.714844 242.492188 84.714844 245.816406 C 84.714844 253.421875 84.714844 261.027344 84.714844 268.632812 C 84.714844 271.398438 84.453125 274.117188 86.144531 276.527344 C 88.316406 279.628906 91.820312 280.011719 95.273438 280.011719 C 102.691406 280.011719 110.109375 280.011719 117.53125 280.011719 C 118.175781 280.011719 118.820312 280.011719 119.464844 280.011719 C 120.402344 280.011719 122.148438 279.683594 122.625 278.738281 C 123.101562 277.792969 122.21875 277.441406 121.359375 277.441406 C 115.574219 277.441406 109.789062 277.441406 104.003906 277.441406 C 104.222656 277.257812 104.46875 277.058594 104.824219 276.769531 C 107.082031 274.929688 109.601562 273.441406 112.226562 272.191406 C 123.214844 266.957031 135.976562 265.757812 147.984375 266.09375 C 156.714844 266.339844 165.464844 267.722656 173.65625 270.800781 C 170.558594 273.0625 168.714844 276.820312 170.148438 280.761719 C 173.472656 289.90625 187.667969 286.96875 189.800781 278.933594 Z M 240.105469 279.980469 C 239.832031 280.613281 239.183594 281.734375 238.433594 281.898438 C 236.90625 282.234375 235.117188 280.339844 234.5625 279.148438 C 233.652344 277.1875 233.976562 274.324219 235.957031 273.109375 C 236.015625 273.074219 236.078125 273.03125 236.148438 272.988281 C 236.203125 272.984375 236.261719 272.976562 236.320312 272.996094 C 238.363281 273.058594 239.984375 275.003906 240.398438 276.863281 C 240.636719 277.917969 240.53125 278.988281 240.105469 279.980469 Z M 229.757812 258.773438 C 232.367188 257.5625 235.605469 260.257812 236.65625 262.46875 C 238.152344 265.609375 237.328125 269.796875 234.15625 271.566406 C 234.136719 271.578125 234.109375 271.589844 234.089844 271.605469 C 230.941406 272.5 227.816406 269.875 226.875 266.964844 C 225.96875 264.15625 226.839844 260.128906 229.757812 258.773438 Z M 188.894531 266.296875 C 190.410156 263.519531 192.605469 263.117188 195.347656 264.523438 C 196.066406 264.890625 200.246094 264.070312 199.667969 262.859375 C 198.753906 260.941406 198.464844 258.886719 199.207031 256.847656 C 199.785156 255.257812 201.148438 253.316406 202.988281 253.195312 C 207.460938 252.90625 210.113281 258.003906 209.53125 261.828125 C 209.277344 263.507812 213.230469 262.039062 213.765625 261.671875 C 215.921875 260.191406 218.699219 261.691406 220.226562 263.445312 C 221.089844 264.4375 221.609375 265.589844 221.832031 266.796875 C 221.84375 266.914062 221.863281 267.035156 221.882812 267.152344 C 222.042969 268.34375 221.925781 269.582031 221.535156 270.785156 C 221.476562 270.960938 221.53125 271.097656 221.65625 271.203125 C 221.769531 271.355469 222.011719 271.46875 222.394531 271.53125 C 227.980469 272.453125 230.386719 279.867188 226.21875 283.808594 C 224.253906 285.667969 221.566406 284.699219 219.773438 283.023438 C 217.566406 280.957031 217.007812 277.933594 217.917969 275.117188 C 218.09375 274.574219 217.4375 274.433594 217.0625 274.371094 C 216.261719 274.234375 215.558594 274 214.84375 273.617188 C 213.921875 273.125 210 273.503906 210.222656 275.121094 C 210.570312 277.664062 209.367188 281.765625 206.378906 282.277344 C 203.035156 282.851562 200.269531 279.359375 199.578125 276.539062 C 199.28125 275.324219 196.355469 276.402344 195.773438 276.691406 C 193.5625 277.792969 191.03125 275.96875 189.625 274.351562 C 189.488281 274.195312 189.234375 274.101562 188.910156 274.066406 C 189.179688 273.828125 189.3125 273.574219 189.199219 273.320312 C 188.96875 272.820312 188.6875 272.371094 188.375 271.953125 C 187.65625 270.179688 188.023438 267.890625 188.894531 266.296875 Z M 181.828125 284.042969 C 178.949219 284.992188 175.800781 281.910156 174.917969 279.484375 C 173.890625 276.660156 174.628906 273.015625 177.222656 271.257812 C 177.273438 271.222656 177.328125 271.203125 177.382812 271.171875 C 177.621094 271.089844 177.832031 270.996094 178.039062 270.894531 C 179.964844 270.363281 182.410156 271.859375 183.730469 273.507812 C 183.945312 273.972656 184.222656 274.414062 184.578125 274.828125 C 184.714844 274.984375 184.976562 275.070312 185.304688 275.101562 C 185.0625 275.332031 184.9375 275.589844 185.007812 275.859375 C 185.71875 278.601562 185.03125 282.988281 181.828125 284.042969 Z M 177.519531 76.890625 C 177.519531 83.300781 177.519531 89.707031 177.519531 96.117188 C 177.519531 96.625 178.65625 96.605469 178.917969 96.605469 C 184.164062 96.605469 189.417969 96.742188 194.664062 97 C 194.183594 106.738281 193.609375 116.730469 191.507812 126.25 C 191.160156 127.828125 189.683594 130.328125 190.699219 131.800781 C 191.652344 133.179688 193.703125 133.261719 195.199219 133.089844 C 200.21875 132.503906 205.078125 129.421875 208.863281 126.25 C 215.195312 120.933594 219.648438 113.824219 221.429688 105.734375 C 221.960938 103.324219 217.070312 103.855469 216.585938 106.0625 C 215.183594 112.425781 211.800781 118.285156 207.035156 122.734375 C 205.167969 124.480469 203.097656 126.066406 200.863281 127.316406 C 198.941406 128.394531 197.660156 128.964844 195.757812 129.417969 C 195.671875 129.4375 195.609375 129.453125 195.566406 129.464844 C 195.546875 129.464844 195.492188 129.46875 195.390625 129.476562 C 195.496094 129.179688 195.589844 128.871094 195.679688 128.566406 C 196.039062 127.347656 196.328125 126.105469 196.578125 124.859375 C 197.710938 119.175781 198.253906 113.367188 198.742188 107.601562 C 199.035156 104.164062 199.277344 100.722656 199.464844 97.28125 C 200.351562 97.339844 201.242188 97.386719 202.132812 97.453125 C 202.550781 97.894531 203.300781 98.023438 203.957031 97.964844 C 204.242188 97.9375 204.65625 97.839844 205.070312 97.683594 C 209.136719 98.011719 213.246094 98.445312 217.179688 99.464844 C 221.40625 100.5625 226.117188 102.0625 229.417969 105.042969 C 234.117188 109.28125 234.867188 116.203125 235.136719 122.15625 C 235.1875 123.285156 239.976562 122.433594 239.90625 120.878906 C 239.652344 115.191406 238.929688 108.90625 235.015625 104.453125 C 231.929688 100.945312 227.257812 99.34375 222.933594 97.972656 C 218.105469 96.445312 212.984375 95.90625 207.957031 95.457031 C 207.511719 95.417969 207.0625 95.402344 206.617188 95.363281 C 206.617188 89.75 206.617188 84.132812 206.617188 78.519531 C 206.617188 77.847656 206.617188 77.179688 206.617188 76.507812 C 211.617188 76.320312 216.621094 76.132812 221.621094 75.945312 C 238.785156 75.300781 255.949219 74.65625 273.109375 74.015625 C 276.601562 73.882812 280.09375 73.753906 283.582031 73.621094 C 283.582031 76.140625 283.582031 78.65625 283.582031 81.175781 C 274.011719 85.195312 268.394531 96.660156 265.9375 105.96875 C 264.167969 112.675781 263.515625 119.609375 263.390625 126.53125 C 254.839844 126.53125 246.289062 126.53125 237.738281 126.53125 C 236.953125 126.53125 236.117188 127.035156 235.75 127.722656 C 231.066406 136.480469 226.242188 145.449219 222.902344 154.820312 C 222.636719 155.566406 222.414062 156.328125 222.21875 157.097656 C 221.972656 157.265625 221.773438 157.472656 221.652344 157.726562 C 221.410156 158.234375 221.539062 158.601562 221.84375 158.839844 C 220.964844 163.457031 221.070312 168.320312 220.917969 172.960938 C 220.199219 194.441406 220.152344 215.949219 220.085938 237.441406 C 220.070312 243.226562 220.058594 249.011719 220.0625 254.796875 C 220.066406 256.824219 223.9375 256.28125 223.9375 254.519531 C 223.917969 239.441406 223.984375 224.363281 224.128906 209.285156 C 224.230469 198.324219 224.367188 187.363281 224.675781 176.40625 C 224.789062 172.371094 224.917969 168.335938 225.152344 164.304688 C 225.25 162.613281 225.296875 160.863281 225.542969 159.164062 C 237.21875 159.164062 248.898438 159.164062 260.574219 159.164062 C 262.398438 159.164062 264.222656 159.164062 266.042969 159.164062 C 267.011719 159.164062 268.714844 158.84375 269.191406 157.851562 C 269.652344 156.890625 268.800781 156.414062 267.890625 156.414062 C 255.351562 156.414062 242.808594 156.414062 230.269531 156.414062 C 228.902344 156.414062 227.535156 156.414062 226.164062 156.414062 C 226.808594 154.257812 227.757812 152.148438 228.644531 150.109375 C 230.074219 146.8125 231.617188 143.566406 233.199219 140.339844 C 235.003906 136.660156 236.867188 133.007812 238.785156 129.386719 C 247.292969 129.386719 255.804688 129.386719 264.316406 129.386719 C 266.082031 132.601562 267.753906 135.875 269.347656 139.183594 C 272.117188 144.945312 274.90625 150.929688 276.328125 157.195312 C 276.734375 158.996094 280.558594 158 280.144531 156.171875 C 278.6875 149.742188 275.792969 143.609375 272.941406 137.699219 C 271.351562 134.40625 269.691406 131.140625 267.933594 127.933594 C 268.0625 127.742188 268.136719 127.539062 268.136719 127.320312 C 268.171875 116.3125 269.476562 104.539062 274.75 94.683594 C 276.21875 91.933594 278.011719 89.289062 280.207031 87.058594 C 281.773438 85.460938 283.128906 84.382812 284.804688 83.417969 C 285.027344 83.289062 285.707031 82.949219 285.617188 82.980469 C 285.796875 82.898438 285.980469 82.820312 286.160156 82.738281 C 286.273438 82.6875 286.390625 82.648438 286.507812 82.605469 C 287.328125 82.34375 288.355469 81.855469 288.355469 80.914062 C 288.355469 77.820312 288.355469 74.730469 288.355469 71.636719 C 288.355469 71.085938 287.246094 70.96875 286.914062 70.980469 C 276.160156 71.386719 265.410156 71.789062 254.65625 72.191406 C 237.492188 72.835938 220.328125 73.480469 203.167969 74.121094 C 199.195312 74.273438 195.222656 74.421875 191.25 74.570312 C 190.304688 74.605469 188.582031 74.875 188.09375 75.847656 C 187.628906 76.769531 188.488281 77.1875 189.363281 77.15625 C 193.511719 77 197.660156 76.84375 201.808594 76.6875 C 201.808594 82.5 201.808594 88.308594 201.808594 94.121094 C 201.808594 94.425781 201.808594 94.726562 201.808594 95.03125 C 200.972656 94.980469 200.140625 94.902344 199.304688 94.859375 C 198.632812 93.875 196.714844 93.933594 195.578125 94.710938 C 193.980469 94.644531 192.386719 94.566406 190.789062 94.519531 C 187.957031 94.433594 185.125 94.378906 182.292969 94.363281 C 182.292969 88.113281 182.292969 81.863281 182.292969 75.613281 C 182.292969 74.542969 177.519531 75.308594 177.519531 76.890625 Z M 194.914062 129.511719 C 194.894531 129.511719 194.875 129.511719 194.851562 129.515625 C 194.339844 129.542969 195.339844 129.425781 194.914062 129.511719 Z M 266.683594 273.730469 C 264.214844 276.652344 263.90625 280.796875 265.914062 284.042969 C 268.164062 287.675781 272.671875 288.761719 276.648438 287.945312 C 281.054688 287.035156 284.980469 283.382812 285.046875 278.703125 C 285.046875 278.636719 285.027344 278.585938 285.019531 278.527344 C 285.027344 278.46875 285.042969 278.410156 285.042969 278.347656 C 285.003906 275.558594 283.574219 273.167969 281.441406 271.605469 C 281.546875 271.429688 281.609375 271.226562 281.609375 271.007812 C 281.613281 261.136719 281.589844 251.269531 281.558594 241.402344 C 281.5 223.195312 281.410156 204.984375 281.140625 186.777344 C 281.03125 179.285156 280.929688 171.785156 280.597656 164.300781 C 280.503906 162.269531 276.644531 162.828125 276.722656 164.574219 C 277.410156 179.933594 277.402344 195.339844 277.523438 210.710938 C 277.648438 227.378906 277.707031 244.042969 277.730469 260.710938 C 277.734375 263.796875 277.734375 266.882812 277.734375 269.964844 C 273.773438 269.117188 269.277344 270.667969 266.683594 273.730469 Z M 272.835938 272.75 C 272.796875 272.765625 272.804688 272.761719 272.835938 272.75 Z M 277.90625 284.582031 C 277.875 284.609375 277.859375 284.621094 277.835938 284.640625 C 277.824219 284.648438 277.800781 284.660156 277.765625 284.6875 C 277.625 284.785156 277.476562 284.871094 277.335938 284.964844 C 277.300781 284.988281 277.289062 284.996094 277.265625 285.011719 C 277.253906 285.019531 277.25 285.019531 277.234375 285.027344 C 277.015625 285.128906 276.792969 285.222656 276.566406 285.308594 C 277.28125 285.03125 275.667969 285.460938 276.414062 285.34375 C 276.273438 285.367188 276.132812 285.382812 275.988281 285.402344 C 275.917969 285.414062 275.875 285.421875 275.839844 285.429688 C 275.808594 285.429688 275.78125 285.425781 275.726562 285.425781 C 274.980469 285.410156 274.679688 285.390625 273.964844 285.152344 C 272.800781 284.765625 271.671875 283.917969 270.863281 282.898438 C 269.132812 280.703125 268.859375 277.464844 270.300781 275.050781 C 270.664062 274.445312 270.972656 274.070312 271.410156 273.664062 C 271.511719 273.570312 271.613281 273.484375 271.71875 273.394531 C 271.75 273.367188 271.761719 273.355469 271.785156 273.332031 C 271.796875 273.328125 271.820312 273.3125 271.855469 273.289062 C 272 273.191406 272.144531 273.105469 272.289062 273.011719 C 272.332031 272.980469 272.359375 272.960938 272.386719 272.941406 C 272.410156 272.933594 272.433594 272.925781 272.480469 272.90625 C 272.632812 272.839844 272.78125 272.777344 272.933594 272.714844 C 272.96875 272.703125 273.003906 272.695312 273.027344 272.6875 C 273.105469 272.671875 273.621094 272.578125 273.378906 272.605469 C 273.464844 272.597656 273.546875 272.585938 273.632812 272.570312 C 273.695312 272.5625 273.734375 272.554688 273.769531 272.546875 C 273.804688 272.546875 273.835938 272.550781 273.898438 272.550781 C 274.042969 272.554688 274.1875 272.554688 274.335938 272.5625 C 274.789062 272.585938 274.75 272.585938 275.277344 272.71875 C 278.191406 273.445312 280.136719 276.382812 280.253906 279.441406 C 280.207031 280.8125 279.867188 282.125 279.101562 283.269531 C 278.710938 283.851562 278.449219 284.101562 277.90625 284.582031 Z M 232.382812 306.484375 C 229.808594 309.289062 229.023438 313.363281 230.898438 316.769531 C 233.144531 320.839844 238.027344 322.183594 242.34375 321.066406 C 242.523438 321.035156 242.6875 321 242.808594 320.960938 C 243.042969 320.890625 243.371094 320.769531 243.695312 320.609375 C 247.179688 319.171875 250.132812 316.289062 250.320312 312.3125 C 250.496094 308.535156 248.25 305.007812 244.683594 303.675781 C 240.574219 302.140625 235.390625 303.214844 232.382812 306.484375 Z M 239.046875 305.785156 C 239.023438 305.785156 239.015625 305.785156 239.046875 305.785156 Z M 241.722656 318.558594 C 241.769531 318.546875 241.765625 318.546875 241.722656 318.558594 Z M 244.636719 316.09375 C 244.203125 316.839844 243.898438 317.203125 243.304688 317.71875 C 243.269531 317.75 243.15625 317.835938 243.105469 317.878906 C 242.9375 318 242.761719 318.109375 242.589844 318.214844 C 242.554688 318.238281 242.539062 318.246094 242.527344 318.257812 C 242.511719 318.265625 242.507812 318.265625 242.488281 318.273438 C 242.417969 318.304688 242.027344 318.453125 241.949219 318.492188 C 241.851562 318.519531 241.75 318.550781 241.648438 318.578125 C 241.578125 318.59375 241.503906 318.609375 241.453125 318.617188 C 241.347656 318.632812 241.242188 318.640625 241.132812 318.648438 C 241.09375 318.648438 240.789062 318.660156 240.738281 318.660156 C 240.210938 318.640625 239.675781 318.546875 239.191406 318.371094 C 237.921875 317.90625 236.871094 317.09375 236.058594 316.023438 C 234.382812 313.832031 234.179688 310.636719 235.597656 308.277344 C 235.957031 307.667969 236.214844 307.351562 236.65625 306.9375 C 236.785156 306.816406 236.917969 306.699219 237.054688 306.589844 C 237.097656 306.558594 237.148438 306.523438 237.167969 306.507812 C 237.289062 306.429688 237.414062 306.355469 237.539062 306.277344 C 237.554688 306.273438 237.8125 306.125 237.886719 306.09375 C 237.941406 306.070312 238.230469 305.96875 238.273438 305.949219 C 238.371094 305.925781 238.46875 305.902344 238.558594 305.867188 C 238.578125 305.863281 238.582031 305.859375 238.59375 305.855469 C 238.605469 305.851562 238.613281 305.851562 238.628906 305.851562 C 238.816406 305.828125 239.003906 305.804688 239.191406 305.789062 C 239.214844 305.789062 239.214844 305.789062 239.246094 305.789062 C 239.445312 305.796875 239.644531 305.804688 239.847656 305.820312 C 240.261719 305.847656 239.996094 305.839844 239.90625 305.824219 C 240.167969 305.871094 240.425781 305.925781 240.683594 305.992188 C 243.125 306.652344 245.109375 309.101562 245.480469 311.8125 C 245.679688 313.269531 245.371094 314.832031 244.636719 316.09375 Z M 165.105469 280.449219 C 166.082031 280.449219 167.679688 279.660156 167.738281 278.539062 C 167.804688 277.292969 166.523438 277 165.539062 277 C 162.445312 277 159.347656 277 156.25 277 C 155.808594 277 155.371094 277 154.933594 277 C 154.875 277 154.8125 277.011719 154.75 277.019531 C 153.242188 275.964844 151.410156 275.371094 149.488281 275.246094 C 149.324219 275.214844 149.152344 275.199219 148.992188 275.207031 C 148.648438 275.199219 148.230469 275.242188 147.804688 275.335938 C 147.09375 275.421875 146.398438 275.558594 145.726562 275.746094 C 145.464844 269.800781 139.292969 266.351562 133.40625 267.832031 C 127.277344 269.371094 123.335938 275.761719 126.53125 281.28125 C 123.429688 282.4375 120.757812 284.796875 119.988281 288.109375 C 119.046875 292.164062 121.269531 296.339844 125.09375 297.929688 C 129.152344 299.613281 134.371094 298.464844 137.492188 295.414062 C 138.945312 293.992188 139.777344 292.242188 140.054688 290.429688 C 140.792969 291.269531 141.695312 291.996094 142.78125 292.519531 C 146.511719 294.320312 151.359375 293.464844 154.597656 291.023438 C 157.644531 288.726562 159.195312 284.683594 157.851562 281.003906 C 157.78125 280.808594 157.679688 280.636719 157.59375 280.449219 C 159.660156 280.449219 161.726562 280.449219 163.789062 280.449219 C 164.230469 280.449219 164.667969 280.449219 165.105469 280.449219 Z M 151.761719 289.523438 C 150.082031 291.324219 147.765625 291.15625 145.796875 289.832031 C 143.335938 288.175781 142.296875 285.195312 142.824219 282.339844 C 143.179688 280.425781 139.128906 281.886719 138.546875 282.324219 C 137.792969 282.890625 137.128906 283.074219 136.207031 283.144531 C 135.503906 283.195312 132.671875 284.140625 133.636719 285.300781 C 135.660156 287.726562 136.097656 291.191406 134.328125 293.898438 C 132.832031 296.1875 130.503906 296.675781 128.128906 295.320312 C 125.730469 293.945312 124.308594 291.113281 124.59375 288.367188 C 124.871094 285.734375 126.582031 283.183594 129.359375 282.996094 C 130.0625 282.945312 132.890625 281.992188 131.925781 280.835938 C 130.34375 278.9375 129.703125 276.480469 130.398438 274.074219 C 130.878906 272.40625 132.171875 270.425781 134.003906 270.0625 C 138.613281 269.144531 141.53125 274.785156 140.824219 278.566406 C 140.46875 280.480469 144.523438 279.023438 145.105469 278.585938 C 145.722656 278.117188 146.316406 277.8125 147.101562 277.777344 C 152.808594 277.90625 155.53125 285.472656 151.761719 289.523438 Z M 159.605469 163.246094 C 158.515625 163.261719 157.191406 163.652344 156.4375 164.480469 C 153.121094 168.121094 152.335938 173.597656 154.914062 177.871094 C 157.203125 181.671875 161.46875 183.703125 165.863281 183.511719 C 170.8125 183.292969 175.742188 180.828125 178.117188 176.355469 C 180.148438 172.53125 179.660156 167.820312 177.058594 164.394531 C 173.773438 160.074219 167.863281 159.074219 162.882812 160.585938 C 162.273438 160.769531 160.558594 161.304688 160.765625 162.226562 C 160.964844 163.105469 162.933594 162.738281 163.421875 162.589844 C 164.695312 162.203125 166.140625 162.148438 167.726562 162.664062 C 169.332031 163.1875 170.746094 164.101562 171.898438 165.332031 C 174.378906 167.976562 175.222656 171.898438 174.105469 175.335938 C 173.605469 176.867188 172.746094 178.296875 171.554688 179.390625 C 171.011719 179.890625 170.398438 180.324219 169.730469 180.644531 C 169.109375 180.941406 168.640625 181.058594 168.058594 181.117188 C 164.878906 181.441406 161.597656 179.453125 159.828125 176.8125 C 157.246094 172.960938 157.742188 167.777344 160.828125 164.390625 C 161.585938 163.558594 160.179688 163.238281 159.605469 163.246094 Z M 106.476562 124.515625 C 105.367188 124.089844 103.882812 124.578125 103.101562 125.417969 C 98.273438 130.605469 97.148438 138.199219 100.539062 144.464844 C 103.527344 149.988281 109.660156 153.0625 115.835938 152.925781 C 122.199219 152.78125 128.332031 149.117188 131.269531 143.445312 C 134.082031 138 133.53125 131.234375 129.816406 126.34375 C 125.4375 120.585938 117.675781 118.574219 110.875 120.640625 C 109.957031 120.917969 108.625 121.703125 108.910156 122.859375 C 109.1875 123.976562 110.859375 124.066406 111.722656 123.804688 C 121.738281 120.761719 130.664062 131.15625 127.628906 140.796875 C 126.238281 145.207031 122.488281 148.800781 117.828125 149.425781 C 113.207031 150.046875 108.621094 147.753906 105.9375 144.023438 C 102.140625 138.753906 102.679688 131.472656 107.074219 126.75 C 107.84375 125.925781 107.460938 124.890625 106.476562 124.515625 Z M 121.695312 192.652344 C 121.691406 192.65625 121.6875 192.65625 121.683594 192.65625 C 121.671875 192.65625 121.664062 192.660156 121.648438 192.667969 C 121.648438 192.667969 121.648438 192.667969 121.644531 192.667969 C 121.644531 192.667969 121.648438 192.667969 121.648438 192.667969 C 121.644531 192.667969 121.644531 192.667969 121.640625 192.667969 C 121.636719 192.667969 121.636719 192.667969 121.628906 192.671875 C 121.59375 192.671875 121.585938 192.671875 121.535156 192.675781 C 121.589844 192.671875 121.601562 192.671875 121.632812 192.667969 C 121.640625 192.664062 121.648438 192.660156 121.660156 192.65625 C 121.625 192.65625 121.585938 192.660156 121.5625 192.660156 C 121.597656 192.65625 121.632812 192.65625 121.667969 192.652344 C 121.695312 192.644531 121.710938 192.636719 121.734375 192.632812 C 121.734375 192.636719 121.707031 192.644531 121.699219 192.648438 C 121.703125 192.648438 121.707031 192.648438 121.710938 192.648438 C 121.714844 192.644531 121.738281 192.636719 121.742188 192.632812 C 121.792969 192.628906 121.820312 192.628906 121.792969 192.640625 C 122.136719 192.609375 122.4375 192.621094 122.953125 192.714844 C 125.664062 193.195312 127.792969 195.238281 128.652344 197.8125 C 128.875 198.484375 130.785156 197.960938 131.214844 197.839844 C 131.5625 197.742188 133.640625 197.183594 133.421875 196.53125 C 132.4375 193.574219 129.871094 191.421875 126.796875 190.917969 C 124.75 190.582031 122.652344 190.898438 120.691406 191.503906 C 118.890625 192.0625 117.089844 192.945312 115.765625 194.316406 C 113.613281 196.550781 112.734375 199.796875 113.769531 202.769531 C 114.765625 205.636719 117.355469 207.695312 120.328125 208.183594 C 122.617188 208.558594 125.039062 208.144531 127.191406 207.34375 C 129.335938 206.546875 131.230469 205.28125 132.507812 203.359375 C 132.957031 202.679688 130.789062 202.953125 130.621094 202.984375 C 129.761719 203.15625 128.34375 203.433594 127.808594 204.238281 C 127.453125 204.777344 127.054688 205.253906 126.566406 205.683594 C 126.332031 205.886719 125.902344 206.273438 125.558594 206.445312 C 125.554688 206.445312 125.546875 206.445312 125.535156 206.445312 C 125.589844 206.425781 125.605469 206.417969 125.511719 206.4375 C 125.527344 206.433594 125.550781 206.421875 125.558594 206.421875 C 125.527344 206.429688 125.515625 206.433594 125.492188 206.441406 C 125.488281 206.445312 125.488281 206.445312 125.488281 206.445312 C 125.472656 206.449219 125.472656 206.449219 125.460938 206.449219 C 125.417969 206.457031 125.265625 206.464844 125.199219 206.46875 C 124.679688 206.476562 124.203125 206.414062 123.683594 206.285156 C 121.359375 205.722656 119.453125 203.90625 118.613281 201.691406 C 117.75 199.410156 118.011719 196.871094 119.34375 194.824219 C 119.632812 194.378906 119.960938 193.972656 120.351562 193.609375 C 120.726562 193.253906 121.273438 192.890625 121.582031 192.703125 C 121.625 192.6875 121.632812 192.683594 121.65625 192.671875 C 121.765625 192.660156 121.84375 192.65625 121.667969 192.667969 C 121.667969 192.667969 121.667969 192.667969 121.671875 192.664062 C 121.757812 192.65625 121.769531 192.652344 121.726562 192.652344 C 121.714844 192.65625 121.695312 192.660156 121.679688 192.660156 C 121.683594 192.660156 121.691406 192.65625 121.695312 192.652344 Z M 125.527344 206.457031 C 125.421875 206.503906 125.324219 206.539062 125.242188 206.527344 C 125.261719 206.53125 125.308594 206.511719 125.347656 206.5 C 125.367188 206.496094 125.414062 206.484375 125.464844 206.464844 C 125.488281 206.464844 125.511719 206.460938 125.527344 206.457031 Z M 121.589844 192.6875 C 121.597656 192.683594 121.609375 192.679688 121.617188 192.675781 C 121.621094 192.675781 121.625 192.675781 121.628906 192.675781 C 121.609375 192.683594 121.617188 192.679688 121.589844 192.6875 Z M 121.792969 192.640625 C 121.765625 192.640625 121.738281 192.644531 121.710938 192.648438 C 121.707031 192.648438 121.699219 192.652344 121.695312 192.652344 C 121.707031 192.652344 121.71875 192.652344 121.726562 192.652344 C 121.753906 192.648438 121.785156 192.644531 121.792969 192.640625 Z M 121.667969 192.652344 C 121.667969 192.652344 121.664062 192.652344 121.660156 192.65625 C 121.671875 192.65625 121.675781 192.65625 121.683594 192.65625 C 121.6875 192.652344 121.695312 192.648438 121.699219 192.648438 C 121.6875 192.648438 121.679688 192.648438 121.667969 192.652344 Z M 121.628906 192.671875 C 121.636719 192.667969 121.640625 192.667969 121.644531 192.667969 C 121.640625 192.667969 121.636719 192.667969 121.632812 192.667969 C 121.632812 192.667969 121.628906 192.667969 121.628906 192.671875 Z M 160.214844 74.75 C 149.683594 73.074219 139.148438 71.398438 128.617188 69.722656 C 127.121094 69.484375 125.625 69.246094 124.128906 69.007812 C 123.039062 68.832031 121.78125 69.148438 120.796875 69.625 C 120.453125 69.792969 119.113281 70.65625 120.203125 70.828125 C 130.734375 72.507812 141.269531 74.183594 151.800781 75.859375 C 153.296875 76.097656 154.792969 76.335938 156.289062 76.574219 C 157.378906 76.75 158.640625 76.433594 159.621094 75.957031 C 159.964844 75.789062 161.308594 74.925781 160.214844 74.75 Z M 160.628906 91.675781 C 160.777344 90.660156 159.203125 90.792969 158.617188 90.84375 C 149.734375 91.617188 140.847656 92.390625 131.960938 93.160156 C 130.683594 93.273438 129.402344 93.382812 128.125 93.496094 C 127.375 93.5625 125.519531 94.078125 125.382812 95.007812 C 125.234375 96.023438 126.808594 95.886719 127.394531 95.835938 C 136.277344 95.0625 145.164062 94.292969 154.046875 93.519531 C 155.328125 93.40625 156.605469 93.296875 157.886719 93.183594 C 158.632812 93.121094 160.492188 92.601562 160.628906 91.675781 Z M 171.6875 311.253906 C 171.605469 311.269531 171.519531 311.285156 171.457031 311.292969 C 171.449219 311.296875 171.441406 311.296875 171.429688 311.304688 C 171.546875 311.339844 171.726562 311.269531 171.6875 311.253906 Z M 174.265625 322.765625 C 174.429688 322.738281 174.585938 322.707031 174.703125 322.667969 C 174.921875 322.601562 175.210938 322.492188 175.503906 322.351562 C 177 321.742188 178.3125 320.890625 179.351562 319.601562 C 180.226562 318.523438 180.796875 317.117188 180.863281 315.726562 C 181.007812 312.675781 179.1875 309.957031 176.324219 308.890625 C 172.980469 307.648438 168.695312 308.585938 166.257812 311.242188 C 164.164062 313.53125 163.601562 316.742188 165.140625 319.492188 C 166.921875 322.675781 170.90625 323.613281 174.265625 322.765625 Z M 173.261719 320.191406 C 173.304688 320.191406 173.34375 320.1875 173.382812 320.1875 C 173.320312 320.195312 173.265625 320.199219 173.261719 320.191406 Z M 174.136719 312.136719 C 174.195312 312.183594 174.261719 312.238281 174.136719 312.136719 Z M 171.851562 311.246094 C 171.851562 311.25 171.785156 311.25 171.714844 311.25 C 171.785156 311.238281 171.84375 311.230469 171.851562 311.246094 Z M 171.121094 311.390625 C 171.058594 311.421875 171.015625 311.445312 170.976562 311.464844 C 171.042969 311.421875 171.105469 311.382812 171.121094 311.390625 Z M 169.070312 314.796875 C 169.097656 314.546875 169.140625 314.300781 169.199219 314.054688 C 169.253906 313.832031 169.324219 313.613281 169.40625 313.394531 C 169.425781 313.34375 169.457031 313.269531 169.472656 313.242188 C 169.550781 313.085938 169.628906 312.933594 169.71875 312.78125 C 169.824219 312.605469 169.945312 312.441406 170.066406 312.277344 C 170.117188 312.21875 170.207031 312.109375 170.234375 312.082031 C 170.304688 312.007812 170.375 311.9375 170.449219 311.871094 C 170.523438 311.796875 170.609375 311.722656 170.699219 311.652344 C 170.707031 311.648438 170.722656 311.640625 170.730469 311.636719 C 170.75 311.625 170.84375 311.554688 170.9375 311.492188 C 170.957031 311.480469 170.96875 311.476562 171 311.460938 C 171.046875 311.4375 171.09375 311.417969 171.140625 311.394531 C 171.152344 311.390625 171.160156 311.386719 171.167969 311.382812 C 171.238281 311.371094 171.351562 311.332031 171.429688 311.304688 C 171.417969 311.300781 171.402344 311.304688 171.390625 311.296875 C 171.398438 311.300781 171.425781 311.296875 171.457031 311.292969 C 171.472656 311.289062 171.492188 311.28125 171.496094 311.28125 C 171.605469 311.253906 171.660156 311.25 171.683594 311.25 C 171.6875 311.25 171.6875 311.25 171.6875 311.25 C 171.691406 311.25 171.6875 311.253906 171.6875 311.253906 C 171.691406 311.253906 171.695312 311.253906 171.699219 311.25 C 171.703125 311.25 171.703125 311.25 171.707031 311.25 C 171.855469 311.257812 172.007812 311.265625 172.160156 311.273438 C 172.207031 311.273438 172.207031 311.273438 172.230469 311.273438 C 172.378906 311.300781 172.542969 311.351562 172.65625 311.378906 C 172.753906 311.40625 172.847656 311.4375 172.945312 311.464844 C 172.96875 311.472656 172.976562 311.472656 172.992188 311.480469 C 173.011719 311.488281 173.027344 311.496094 173.058594 311.511719 C 173.277344 311.628906 173.503906 311.726562 173.71875 311.855469 C 173.847656 311.933594 173.96875 312.015625 174.09375 312.101562 C 174.101562 312.105469 174.117188 312.117188 174.128906 312.128906 C 174.359375 312.320312 174.574219 312.527344 174.773438 312.75 C 175.503906 313.566406 175.878906 314.40625 176.035156 315.5625 C 176.054688 315.691406 176.066406 315.816406 176.078125 315.945312 C 176.078125 316.007812 176.082031 316.027344 176.082031 316.050781 C 176.082031 316.121094 176.082031 316.191406 176.078125 316.261719 C 176.0625 316.566406 176.023438 316.863281 175.964844 317.160156 C 175.90625 317.453125 175.820312 317.742188 175.71875 318.023438 C 175.707031 318.0625 175.710938 318.054688 175.710938 318.0625 C 175.695312 318.085938 175.699219 318.085938 175.675781 318.128906 C 175.597656 318.28125 175.519531 318.4375 175.433594 318.589844 C 175.371094 318.695312 175.304688 318.800781 175.234375 318.90625 C 175.21875 318.933594 175.085938 319.105469 175.027344 319.191406 C 174.96875 319.257812 174.882812 319.351562 174.882812 319.355469 C 174.757812 319.480469 174.632812 319.601562 174.5 319.71875 C 174.492188 319.722656 174.488281 319.730469 174.484375 319.734375 C 174.410156 319.828125 174.242188 319.90625 174.121094 319.972656 C 174.121094 319.972656 174.121094 319.972656 174.117188 319.976562 C 174.046875 320.003906 173.863281 320.074219 173.757812 320.117188 C 173.707031 320.128906 173.65625 320.144531 173.609375 320.15625 C 173.566406 320.164062 173.5 320.171875 173.429688 320.183594 C 173.371094 320.183594 173.316406 320.183594 173.257812 320.179688 C 173.15625 320.175781 173.054688 320.167969 172.957031 320.164062 C 172.9375 320.160156 172.933594 320.164062 172.917969 320.160156 C 172.910156 320.160156 172.90625 320.160156 172.894531 320.15625 C 172.628906 320.089844 172.363281 320.027344 172.101562 319.941406 C 172.085938 319.933594 172.070312 319.925781 172.058594 319.921875 C 171.925781 319.855469 171.789062 319.796875 171.65625 319.726562 C 171.4375 319.609375 171.226562 319.476562 171.023438 319.335938 C 170.96875 319.300781 170.964844 319.300781 170.945312 319.289062 C 170.929688 319.269531 170.929688 319.265625 170.875 319.214844 C 170.804688 319.144531 170.726562 319.082031 170.65625 319.011719 C 170.4375 318.804688 170.238281 318.578125 170.054688 318.335938 C 169.453125 317.546875 169.09375 316.535156 169.035156 315.414062 C 169.03125 315.371094 169.042969 315.023438 169.070312 314.796875 Z M 195.253906 350.8125 C 229.460938 348.863281 262.914062 336.902344 290.320312 316.285156 C 316.71875 296.425781 337.054688 268.753906 347.710938 237.457031 C 358.730469 205.078125 359.183594 169.398438 348.933594 136.765625 C 339.074219 105.378906 319.441406 77.464844 293.535156 57.234375 C 267.003906 36.515625 234.417969 24.339844 200.851562 22.203125 C 166.292969 20 131.09375 28.324219 101.226562 45.855469 C 72.835938 62.519531 49.5 87.476562 35.144531 117.132812 C 20.320312 147.765625 15.523438 182.808594 21.503906 216.308594 C 27.410156 249.402344 43.871094 280.078125 67.875 303.570312 C 91.910156 327.09375 123.027344 342.914062 156.160156 348.625 C 164.40625 350.046875 172.75 350.839844 181.113281 351.054688 C 182.152344 351.082031 183.644531 350.789062 184.488281 350.152344 C 185.140625 349.65625 185.25 349.269531 184.246094 349.242188 C 150.675781 348.367188 117.792969 337.242188 90.648438 317.449219 C 64.300781 298.238281 43.9375 271.257812 33.019531 240.503906 C 21.769531 208.808594 20.726562 173.699219 30.148438 141.410156 C 39.210938 110.359375 57.6875 82.382812 82.476562 61.632812 C 108.109375 40.175781 139.945312 26.988281 173.273438 24.230469 C 206.707031 21.464844 240.660156 29.054688 269.726562 45.804688 C 297.6875 61.917969 320.6875 86.1875 334.976562 115.148438 C 349.742188 145.074219 354.820312 179.425781 349.5 212.363281 C 344.296875 244.597656 328.996094 274.949219 306.472656 298.554688 C 283.820312 322.292969 254.164062 339.1875 221.988281 345.859375 C 213.871094 347.542969 205.644531 348.585938 197.367188 349.058594 C 196.558594 349.105469 194.636719 349.414062 194.164062 350.164062 C 193.667969 350.945312 194.597656 350.851562 195.253906 350.8125 Z M 339.6875 83.019531 C 333.910156 74.824219 327.433594 67.140625 320.382812 60.015625 C 319.285156 58.90625 314.777344 60.660156 315.933594 61.832031 C 345.386719 91.597656 363.65625 131.125 366.828125 172.921875 C 369.519531 208.371094 361.289062 244.296875 343.386719 275.019531 C 326.019531 304.820312 300.121094 329.28125 269.402344 344.960938 C 237.339844 361.328125 200.394531 367.535156 164.714844 362.96875 C 129.898438 358.519531 96.707031 343.808594 70.046875 320.964844 C 43.8125 298.492188 24.351562 268.574219 14.820312 235.347656 C 4.96875 201.011719 5.816406 163.941406 17.269531 130.109375 C 28.320312 97.457031 49.019531 68.417969 76.050781 47.058594 C 103.996094 24.972656 138.238281 11.703125 173.738281 8.980469 C 212.828125 5.976562 252.546875 15.953125 285.507812 37.191406 C 293.894531 42.597656 301.8125 48.703125 309.210938 55.398438 C 310.378906 56.457031 314.835938 54.652344 313.65625 53.582031 C 281.640625 24.605469 239.960938 7.765625 196.828125 6.070312 C 161.878906 4.699219 126.683594 13.117188 96.21875 30.316406 C 65.523438 47.648438 39.972656 73.734375 23.582031 104.96875 C 6.769531 137.019531 0.101562 173.785156 4.558594 209.707031 C 8.949219 245.121094 24.28125 278.722656 47.941406 305.417969 C 71.378906 331.867188 102.472656 351.011719 136.519531 360.367188 C 172.296875 370.199219 210.960938 368.933594 246.128906 357.191406 C 279.902344 345.914062 310.191406 325.023438 332.507812 297.253906 C 354.773438 269.550781 368.628906 235.410156 371.523438 199.957031 C 374.894531 158.617188 363.601562 116.921875 339.6875 83.019531 Z M 339.6875 83.019531 " fill-opacity="1" fill-rule="nonzero"/></svg>