<svg xmlns="http://www.w3.org/2000/svg" xmlns:xlink="http://www.w3.org/1999/xlink" width="500" zoomAndPan="magnify" viewBox="0 0 375 374.999991" height="500" preserveAspectRatio="xMidYMid meet" version="1.0"><defs><clipPath id="1d61c2c10a"><path d="M 33.007812 55 L 344.257812 55 L 344.257812 366.34375 L 33.007812 366.34375 Z M 33.007812 55 " clip-rule="nonzero"/></clipPath><clipPath id="a85436b432"><path d="M 158 10.84375 L 219 10.84375 L 219 72 L 158 72 Z M 158 10.84375 " clip-rule="nonzero"/></clipPath><clipPath id="d6813f8ca2"><path d="M 144 10.84375 L 234 10.84375 L 234 26 L 144 26 Z M 144 10.84375 " clip-rule="nonzero"/></clipPath></defs><g clip-path="url(#1d61c2c10a)"><path fill="#022033" d="M 188.574219 366.511719 C 102.792969 366.511719 33.007812 296.726562 33.007812 210.945312 C 33.007812 125.167969 102.792969 55.378906 188.574219 55.378906 C 274.351562 55.378906 344.140625 125.167969 344.140625 210.945312 C 344.140625 296.726562 274.351562 366.511719 188.574219 366.511719 Z M 188.574219 70.195312 C 110.960938 70.195312 47.820312 133.335938 47.820312 210.945312 C 47.820312 288.558594 110.960938 351.695312 188.574219 351.695312 C 266.183594 351.695312 329.324219 288.558594 329.324219 210.945312 C 329.324219 133.335938 266.183594 70.195312 188.574219 70.195312 Z M 188.574219 70.195312 " fill-opacity="1" fill-rule="nonzero"/></g><path fill="#022033" d="M 188.574219 329.472656 C 123.21875 329.472656 70.046875 276.304688 70.046875 210.945312 C 70.046875 145.589844 123.21875 92.417969 188.574219 92.417969 C 253.929688 92.417969 307.097656 145.589844 307.097656 210.945312 C 307.097656 276.304688 253.929688 329.472656 188.574219 329.472656 Z M 188.574219 107.234375 C 131.386719 107.234375 84.863281 153.761719 84.863281 210.945312 C 84.863281 268.132812 131.386719 314.65625 188.574219 314.65625 C 245.757812 314.65625 292.285156 268.132812 292.285156 210.945312 C 292.285156 153.761719 245.757812 107.234375 188.574219 107.234375 Z M 188.574219 107.234375 " fill-opacity="1" fill-rule="nonzero"/><g clip-path="url(#a85436b432)"><path fill="#022033" d="M 210.796875 71.847656 C 206.707031 71.847656 203.386719 68.53125 203.386719 64.441406 L 203.386719 25.75 L 173.757812 25.75 L 173.757812 64.441406 C 173.757812 68.53125 170.441406 71.847656 166.347656 71.847656 C 162.257812 71.847656 158.941406 68.53125 158.941406 64.441406 L 158.941406 18.339844 C 158.941406 14.25 162.257812 10.933594 166.347656 10.933594 L 210.796875 10.933594 C 214.886719 10.933594 218.203125 14.25 218.203125 18.339844 L 218.203125 64.441406 C 218.203125 68.53125 214.886719 71.847656 210.796875 71.847656 Z M 210.796875 71.847656 " fill-opacity="1" fill-rule="nonzero"/></g><g clip-path="url(#d6813f8ca2)"><path fill="#022033" d="M 225.613281 25.75 L 151.53125 25.75 C 147.441406 25.75 144.125 22.433594 144.125 18.339844 C 144.125 14.25 147.441406 10.933594 151.53125 10.933594 L 225.613281 10.933594 C 229.703125 10.933594 233.019531 14.25 233.019531 18.339844 C 233.019531 22.433594 229.703125 25.75 225.613281 25.75 Z M 225.613281 25.75 " fill-opacity="1" fill-rule="nonzero"/></g><path fill="#cb202d" d="M 145.117188 150.496094 L 141.414062 144.082031 C 139.367188 140.535156 140.582031 136.007812 144.125 133.960938 C 147.667969 131.914062 152.199219 133.128906 154.246094 136.671875 L 157.949219 143.085938 C 159.996094 146.628906 158.78125 151.160156 155.238281 153.207031 C 151.714844 155.242188 147.175781 154.0625 145.117188 150.496094 Z M 145.117188 150.496094 " fill-opacity="1" fill-rule="nonzero"/><path fill="#cb202d" d="M 120.714844 180.320312 L 114.296875 176.617188 C 110.753906 174.574219 109.542969 170.042969 111.585938 166.5 C 113.632812 162.957031 118.164062 161.742188 121.707031 163.789062 L 128.121094 167.492188 C 131.664062 169.535156 132.878906 174.066406 130.832031 177.609375 C 128.78125 181.164062 124.246094 182.363281 120.714844 180.320312 Z M 120.714844 180.320312 " fill-opacity="1" fill-rule="nonzero"/><path fill="#cb202d" d="M 114.492188 218.355469 L 107.085938 218.355469 C 102.992188 218.355469 99.675781 215.035156 99.675781 210.945312 C 99.675781 206.855469 102.992188 203.539062 107.085938 203.539062 L 114.492188 203.539062 C 118.585938 203.539062 121.902344 206.855469 121.902344 210.945312 C 121.902344 215.035156 118.585938 218.355469 114.492188 218.355469 Z M 114.492188 218.355469 " fill-opacity="1" fill-rule="nonzero"/><path fill="#cb202d" d="M 111.585938 255.394531 C 109.542969 251.851562 110.753906 247.320312 114.296875 245.273438 L 120.714844 241.570312 C 124.257812 239.523438 128.789062 240.738281 130.832031 244.28125 C 132.878906 247.824219 131.664062 252.355469 128.121094 254.402344 L 121.707031 258.105469 C 118.179688 260.144531 113.640625 258.953125 111.585938 255.394531 Z M 111.585938 255.394531 " fill-opacity="1" fill-rule="nonzero"/><path fill="#cb202d" d="M 144.125 287.933594 C 140.582031 285.886719 139.367188 281.355469 141.414062 277.8125 L 145.117188 271.398438 C 147.164062 267.855469 151.695312 266.640625 155.238281 268.6875 C 158.78125 270.730469 159.996094 275.261719 157.949219 278.804688 L 154.246094 285.21875 C 152.195312 288.769531 147.664062 289.976562 144.125 287.933594 Z M 144.125 287.933594 " fill-opacity="1" fill-rule="nonzero"/><path fill="#cb202d" d="M 188.574219 299.839844 C 184.480469 299.839844 181.164062 296.523438 181.164062 292.433594 L 181.164062 285.027344 C 181.164062 280.933594 184.480469 277.617188 188.574219 277.617188 C 192.664062 277.617188 195.980469 280.933594 195.980469 285.027344 L 195.980469 292.433594 C 195.980469 296.523438 192.664062 299.839844 188.574219 299.839844 Z M 188.574219 299.839844 " fill-opacity="1" fill-rule="nonzero"/><path fill="#cb202d" d="M 222.902344 285.21875 L 219.195312 278.804688 C 217.152344 275.261719 218.363281 270.730469 221.90625 268.6875 C 225.453125 266.640625 229.980469 267.855469 232.027344 271.398438 L 235.730469 277.8125 C 237.777344 281.355469 236.5625 285.886719 233.019531 287.933594 C 229.488281 289.972656 224.953125 288.777344 222.902344 285.21875 Z M 222.902344 285.21875 " fill-opacity="1" fill-rule="nonzero"/><path fill="#cb202d" d="M 255.4375 258.105469 L 249.023438 254.402344 C 245.480469 252.355469 244.265625 247.824219 246.3125 244.28125 C 248.359375 240.738281 252.886719 239.523438 256.429688 241.570312 L 262.847656 245.273438 C 266.390625 247.320312 267.605469 251.851562 265.558594 255.394531 C 263.507812 258.941406 258.976562 260.148438 255.4375 258.105469 Z M 255.4375 258.105469 " fill-opacity="1" fill-rule="nonzero"/><path fill="#cb202d" d="M 270.058594 218.355469 L 188.574219 218.355469 C 184.480469 218.355469 181.164062 215.035156 181.164062 210.945312 L 181.164062 129.460938 C 181.164062 125.367188 184.480469 122.050781 188.574219 122.050781 C 237.589844 122.050781 277.46875 161.929688 277.46875 210.945312 C 277.46875 215.035156 274.148438 218.355469 270.058594 218.355469 Z M 195.980469 203.539062 L 262.285156 203.539062 C 258.796875 168.59375 230.925781 140.722656 195.980469 137.234375 Z M 195.980469 203.539062 " fill-opacity="1" fill-rule="nonzero"/><path fill="#022033" d="M 274.378906 99.347656 C 270.972656 97.085938 270.042969 92.488281 272.300781 89.082031 L 287.289062 66.488281 L 274.945312 58.300781 L 259.414062 81.707031 C 257.152344 85.117188 252.554688 86.042969 249.148438 83.785156 C 245.738281 81.523438 244.808594 76.925781 247.070312 73.515625 L 266.695312 43.9375 C 268.957031 40.527344 273.554688 39.597656 276.960938 41.859375 L 301.652344 58.238281 C 305.058594 60.496094 305.992188 65.097656 303.730469 68.503906 L 284.648438 97.269531 C 282.378906 100.691406 277.78125 101.605469 274.378906 99.347656 Z M 274.378906 99.347656 " fill-opacity="1" fill-rule="nonzero"/><path fill="#022033" d="M 305.8125 78.777344 L 256.429688 46.011719 C 253.019531 43.75 252.089844 39.152344 254.351562 35.746094 C 256.613281 32.335938 261.214844 31.40625 264.621094 33.667969 L 314.003906 66.429688 C 317.414062 68.691406 318.339844 73.289062 316.082031 76.699219 C 313.832031 80.089844 309.238281 81.050781 305.8125 78.777344 Z M 305.8125 78.777344 " fill-opacity="1" fill-rule="nonzero"/><path fill="#022033" d="M 92.496094 97.269531 L 73.414062 68.503906 C 71.152344 65.097656 72.082031 60.5 75.492188 58.238281 L 100.183594 41.859375 C 103.589844 39.59375 108.1875 40.527344 110.449219 43.9375 L 130.074219 73.515625 C 132.335938 76.925781 131.40625 81.523438 127.996094 83.785156 C 124.585938 86.046875 119.988281 85.113281 117.726562 81.707031 L 102.199219 58.300781 L 89.855469 66.488281 L 104.84375 89.082031 C 107.105469 92.488281 106.175781 97.085938 102.765625 99.347656 C 99.371094 101.597656 94.769531 100.695312 92.496094 97.269531 Z M 92.496094 97.269531 " fill-opacity="1" fill-rule="nonzero"/><path fill="#022033" d="M 61.0625 76.699219 C 58.800781 73.289062 59.734375 68.691406 63.140625 66.429688 L 112.527344 33.667969 C 115.933594 31.40625 120.53125 32.335938 122.792969 35.746094 C 125.054688 39.15625 124.125 43.75 120.714844 46.011719 L 71.332031 78.777344 C 67.902344 81.054688 63.3125 80.085938 61.0625 76.699219 Z M 61.0625 76.699219 " fill-opacity="1" fill-rule="nonzero"/></svg>