<svg xmlns="http://www.w3.org/2000/svg" xmlns:xlink="http://www.w3.org/1999/xlink" width="500" zoomAndPan="magnify" viewBox="0 0 375 374.999991" height="500" preserveAspectRatio="xMidYMid meet" version="1.0"><defs><clipPath id="f873f98e33"><path d="M 17.167969 0.0195312 L 357.667969 0.0195312 L 357.667969 374.980469 L 17.167969 374.980469 Z M 17.167969 0.0195312 " clip-rule="nonzero"/></clipPath></defs><g clip-path="url(#f873f98e33)"><path fill="#cb202d" d="M 357.804688 204.640625 C 357.90625 212.695312 357.59375 220.765625 356.609375 228.800781 C 355.558594 236.804688 354.082031 244.792969 351.882812 252.597656 C 349.652344 260.390625 347 268.097656 343.667969 275.527344 C 340.308594 282.941406 336.5 290.175781 332.121094 297.078125 C 314.671875 324.699219 288.707031 347.167969 258.363281 360.535156 C 228.054688 374.019531 193.53125 378.25 160.414062 372.445312 C 127.269531 366.753906 95.761719 350.84375 71.140625 327.289062 C 46.492188 303.804688 28.777344 272.707031 21.363281 238.9375 C 13.835938 205.230469 16.445312 169.117188 29.171875 136.445312 C 41.816406 103.789062 64.417969 74.871094 93.496094 54.554688 C 100.746094 49.46875 108.421875 44.957031 116.34375 40.90625 C 124.28125 36.90625 132.582031 33.589844 141.046875 30.753906 C 149.523438 27.933594 158.25 25.898438 167.058594 24.324219 C 174.734375 23.027344 182.476562 22.273438 190.234375 21.914062 L 195.1875 0.015625 L 250.410156 51.105469 L 178.554688 73.398438 L 181.671875 59.636719 C 157.152344 61.015625 132.910156 68.65625 111.851562 81.976562 C 87.296875 97.394531 67.253906 120.402344 55.316406 147.285156 C 43.277344 174.117188 39.40625 204.871094 44.488281 234.359375 C 49.460938 263.835938 63.53125 291.929688 84.492188 313.941406 C 105.386719 336.015625 133.058594 351.875 163.171875 358.570312 C 193.234375 365.375 225.578125 363.128906 254.753906 351.828125 C 283.96875 340.625 309.945312 320.453125 328.203125 294.457031 C 332.792969 287.960938 336.828125 281.105469 340.46875 274.019531 C 344.09375 266.902344 347.0625 259.488281 349.640625 251.910156 C 352.164062 244.332031 354 236.507812 355.445312 228.621094 C 356.804688 220.714844 357.511719 212.695312 357.804688 204.640625 " fill-opacity="1" fill-rule="nonzero"/></g><path fill="#cb202d" d="M 193.792969 74.671875 C 191.980469 74.671875 190.511719 76.140625 190.511719 77.953125 L 190.511719 88.664062 C 190.511719 90.476562 191.980469 91.945312 193.792969 91.945312 C 195.601562 91.945312 197.070312 90.476562 197.070312 88.664062 L 197.070312 77.953125 C 197.070312 76.140625 195.601562 74.671875 193.792969 74.671875 " fill-opacity="1" fill-rule="nonzero"/><path fill="#cb202d" d="M 77.816406 201.359375 L 67.101562 201.359375 C 65.292969 201.359375 63.824219 202.828125 63.824219 204.640625 C 63.824219 206.453125 65.292969 207.921875 67.101562 207.921875 L 77.816406 207.921875 C 79.628906 207.921875 81.097656 206.453125 81.097656 204.640625 C 81.097656 202.828125 79.628906 201.359375 77.816406 201.359375 " fill-opacity="1" fill-rule="nonzero"/><path fill="#cb202d" d="M 193.792969 317.335938 C 191.980469 317.335938 190.511719 318.804688 190.511719 320.617188 L 190.511719 331.332031 C 190.511719 333.140625 191.980469 334.609375 193.792969 334.609375 C 195.601562 334.609375 197.070312 333.140625 197.070312 331.332031 L 197.070312 320.617188 C 197.070312 318.804688 195.601562 317.335938 193.792969 317.335938 " fill-opacity="1" fill-rule="nonzero"/><path fill="#cb202d" d="M 320.480469 201.359375 L 309.769531 201.359375 C 307.957031 201.359375 306.488281 202.828125 306.488281 204.640625 C 306.488281 206.453125 307.957031 207.921875 309.769531 207.921875 L 320.480469 207.921875 C 322.292969 207.921875 323.761719 206.453125 323.761719 204.640625 C 323.761719 202.828125 322.292969 201.359375 320.480469 201.359375 " fill-opacity="1" fill-rule="nonzero"/><path fill="#cb202d" d="M 134.324219 98.363281 C 133.871094 97.578125 132.871094 97.308594 132.085938 97.761719 C 131.300781 98.214844 131.03125 99.21875 131.484375 100.003906 L 134.382812 105.023438 C 134.6875 105.550781 135.238281 105.84375 135.804688 105.84375 C 136.082031 105.84375 136.367188 105.773438 136.625 105.625 C 137.410156 105.171875 137.679688 104.167969 137.226562 103.382812 L 134.324219 98.363281 " fill-opacity="1" fill-rule="nonzero"/><path fill="#cb202d" d="M 94.175781 145.234375 L 89.152344 142.335938 C 88.367188 141.882812 87.363281 142.152344 86.914062 142.9375 C 86.460938 143.71875 86.726562 144.722656 87.511719 145.175781 L 92.535156 148.074219 C 92.792969 148.222656 93.074219 148.292969 93.351562 148.292969 C 93.917969 148.292969 94.472656 148 94.773438 147.476562 C 95.226562 146.691406 94.957031 145.6875 94.175781 145.234375 " fill-opacity="1" fill-rule="nonzero"/><path fill="#cb202d" d="M 92.535156 261.207031 L 87.511719 264.109375 C 86.726562 264.558594 86.460938 265.5625 86.914062 266.347656 C 87.214844 266.875 87.765625 267.167969 88.335938 267.167969 C 88.613281 267.167969 88.894531 267.097656 89.152344 266.949219 L 94.175781 264.050781 C 94.957031 263.597656 95.226562 262.59375 94.773438 261.808594 C 94.320312 261.023438 93.320312 260.757812 92.535156 261.207031 " fill-opacity="1" fill-rule="nonzero"/><path fill="#cb202d" d="M 136.625 303.660156 C 135.839844 303.207031 134.835938 303.472656 134.382812 304.257812 L 131.484375 309.28125 C 131.03125 310.066406 131.300781 311.070312 132.085938 311.523438 C 132.34375 311.671875 132.625 311.742188 132.902344 311.742188 C 133.46875 311.742188 134.023438 311.445312 134.324219 310.921875 L 137.226562 305.898438 C 137.679688 305.113281 137.410156 304.113281 136.625 303.660156 " fill-opacity="1" fill-rule="nonzero"/><path fill="#cb202d" d="M 253.199219 304.257812 C 252.746094 303.476562 251.742188 303.207031 250.960938 303.660156 C 250.175781 304.113281 249.90625 305.113281 250.359375 305.898438 L 253.257812 310.921875 C 253.5625 311.445312 254.113281 311.742188 254.679688 311.742188 C 254.957031 311.742188 255.238281 311.671875 255.5 311.523438 C 256.28125 311.070312 256.550781 310.066406 256.097656 309.28125 L 253.199219 304.257812 " fill-opacity="1" fill-rule="nonzero"/><path fill="#cb202d" d="M 300.070312 264.109375 L 295.050781 261.210938 C 294.265625 260.757812 293.261719 261.023438 292.808594 261.808594 C 292.355469 262.59375 292.625 263.597656 293.410156 264.050781 L 298.429688 266.949219 C 298.6875 267.097656 298.972656 267.167969 299.25 267.167969 C 299.816406 267.167969 300.367188 266.875 300.671875 266.347656 C 301.125 265.5625 300.855469 264.5625 300.070312 264.109375 " fill-opacity="1" fill-rule="nonzero"/><path fill="#cb202d" d="M 298.429688 142.335938 L 293.410156 145.234375 C 292.625 145.6875 292.355469 146.691406 292.808594 147.472656 C 293.113281 148 293.664062 148.292969 294.230469 148.292969 C 294.511719 148.292969 294.789062 148.222656 295.050781 148.074219 L 300.070312 145.175781 C 300.855469 144.722656 301.125 143.71875 300.671875 142.9375 C 300.21875 142.148438 299.214844 141.882812 298.429688 142.335938 " fill-opacity="1" fill-rule="nonzero"/><path fill="#cb202d" d="M 255.5 97.761719 C 254.714844 97.308594 253.710938 97.578125 253.257812 98.363281 L 250.359375 103.382812 C 249.90625 104.167969 250.175781 105.171875 250.960938 105.625 C 251.21875 105.773438 251.5 105.84375 251.777344 105.84375 C 252.347656 105.84375 252.894531 105.550781 253.199219 105.023438 L 256.101562 100.003906 C 256.550781 99.21875 256.285156 98.214844 255.5 97.761719 " fill-opacity="1" fill-rule="nonzero"/><path fill="#cb202d" d="M 172.523438 251.414062 L 110.785156 251.414062 C 112.84375 243.300781 116.261719 235.671875 121.042969 228.523438 C 125.820312 221.375 133.957031 212.949219 145.449219 203.242188 C 152.472656 197.292969 157.089844 192.777344 159.300781 189.691406 C 161.511719 186.605469 162.851562 183.675781 163.3125 180.902344 C 163.8125 177.90625 163.402344 175.347656 162.085938 173.21875 C 160.773438 171.09375 158.851562 170.03125 156.324219 170.03125 C 153.695312 170.03125 151.359375 171.136719 149.328125 173.339844 C 147.292969 175.542969 145.523438 179.433594 144.023438 185.011719 L 123.71875 182.785156 C 125.8125 175.074219 128.296875 169.054688 131.175781 164.726562 C 134.050781 160.402344 137.648438 157.082031 141.960938 154.773438 C 146.269531 152.464844 151.898438 151.308594 158.84375 151.308594 C 166.089844 151.308594 171.542969 152.40625 175.207031 154.597656 C 178.871094 156.789062 181.480469 160.15625 183.03125 164.695312 C 184.585938 169.234375 184.894531 174.324219 183.953125 179.960938 C 182.957031 185.953125 180.679688 191.679688 177.125 197.136719 C 173.570312 202.589844 167.761719 208.585938 159.699219 215.117188 C 154.917969 218.917969 151.703125 221.578125 150.050781 223.101562 C 148.398438 224.621094 146.425781 226.609375 144.128906 229.070312 L 176.246094 229.070312 L 172.523438 251.414062 " fill-opacity="1" fill-rule="nonzero"/><path fill="#cb202d" d="M 223.347656 211.847656 L 228.53125 180.722656 L 203.511719 211.847656 Z M 219.8125 233.066406 L 182.320312 233.066406 L 186.066406 210.558594 L 233.429688 151.308594 L 251.378906 151.308594 L 241.296875 211.847656 L 250.597656 211.847656 L 247.0625 233.066406 L 237.761719 233.066406 L 234.707031 251.410156 L 216.757812 251.410156 L 219.8125 233.066406 " fill-opacity="1" fill-rule="nonzero"/><path fill="#cb202d" d="M 260.542969 142.753906 L 271.300781 142 L 269.101562 155.898438 C 270.796875 154.320312 272.417969 153.164062 273.964844 152.425781 C 275.507812 151.691406 277.269531 151.253906 279.242188 151.117188 C 282.167969 150.914062 284.335938 151.617188 285.742188 153.234375 C 287.152344 154.847656 287.570312 157.449219 287.003906 161.035156 L 284.25 178.40625 L 273.441406 179.160156 L 275.820312 164.132812 C 276.09375 162.417969 275.960938 161.226562 275.421875 160.558594 C 274.882812 159.890625 274.019531 159.601562 272.84375 159.683594 C 271.535156 159.773438 270.402344 160.328125 269.441406 161.347656 C 268.476562 162.363281 267.800781 164.117188 267.40625 166.605469 L 265.328125 179.730469 L 254.570312 180.480469 L 260.542969 142.753906 " fill-opacity="1" fill-rule="nonzero"/></svg>