<svg xmlns="http://www.w3.org/2000/svg" xmlns:xlink="http://www.w3.org/1999/xlink" width="500" zoomAndPan="magnify" viewBox="0 0 375 374.999991" height="500" preserveAspectRatio="xMidYMid meet" version="1.0"><defs><g/><clipPath id="33af6a661a"><path d="M 97.65625 41 L 139 41 L 139 124 L 97.65625 124 Z M 97.65625 41 " clip-rule="nonzero"/></clipPath><clipPath id="a799d72bb2"><path d="M 109 22.015625 L 127 22.015625 L 127 39 L 109 39 Z M 109 22.015625 " clip-rule="nonzero"/></clipPath><clipPath id="6aa2e70e2f"><path d="M 97.65625 151 L 139 151 L 139 182.515625 L 97.65625 182.515625 Z M 97.65625 151 " clip-rule="nonzero"/></clipPath><clipPath id="a85a5d40f2"><path d="M 143 151 L 185 151 L 185 182.515625 L 143 182.515625 Z M 143 151 " clip-rule="nonzero"/></clipPath><clipPath id="ccb379ab77"><path d="M 190 151 L 232 151 L 232 182.515625 L 190 182.515625 Z M 190 151 " clip-rule="nonzero"/></clipPath><clipPath id="083ae5baac"><path d="M 236 151 L 277.65625 151 L 277.65625 182.515625 L 236 182.515625 Z M 236 151 " clip-rule="nonzero"/></clipPath><clipPath id="924c168d7e"><path d="M 0.398438 15 L 35 15 L 35 54 L 0.398438 54 Z M 0.398438 15 " clip-rule="nonzero"/></clipPath><clipPath id="3fe19ebe8c"><rect x="0" width="296" y="0" height="120"/></clipPath></defs><g clip-path="url(#33af6a661a)"><path fill="#cb202d" d="M 101.222656 81.597656 C 103.320312 81.699219 105.050781 80.027344 105.050781 77.949219 L 105.050781 54.777344 C 105.050781 54.210938 105.511719 53.75 106.078125 53.75 C 106.644531 53.75 107.105469 54.210938 107.105469 54.777344 L 107.105469 118.929688 C 107.105469 121.53125 109.128906 123.742188 111.726562 123.835938 C 114.453125 123.933594 116.695312 121.75 116.695312 119.042969 L 116.695312 82.914062 C 116.695312 82.257812 117.175781 81.671875 117.828125 81.609375 C 118.574219 81.539062 119.207031 82.125 119.207031 82.859375 L 119.207031 118.929688 C 119.207031 121.53125 121.226562 123.742188 123.824219 123.835938 C 126.554688 123.933594 128.792969 121.75 128.792969 119.042969 L 128.792969 54.777344 C 128.792969 54.210938 129.253906 53.75 129.824219 53.75 L 130.050781 53.75 C 130.617188 53.75 131.078125 54.210938 131.078125 54.777344 L 131.078125 77.847656 C 131.078125 79.8125 132.589844 81.507812 134.554688 81.597656 C 136.652344 81.699219 138.382812 80.027344 138.382812 77.949219 L 138.382812 49.183594 C 138.382812 45.148438 135.113281 41.878906 131.078125 41.878906 L 105.050781 41.878906 C 101.015625 41.878906 97.746094 45.148438 97.746094 49.183594 L 97.746094 77.847656 C 97.746094 79.816406 99.257812 81.507812 101.222656 81.597656 Z M 101.222656 81.597656 " fill-opacity="1" fill-rule="nonzero"/></g><g clip-path="url(#a799d72bb2)"><path fill="#cb202d" d="M 126.511719 30.464844 C 126.511719 31.019531 126.457031 31.566406 126.347656 32.113281 C 126.238281 32.65625 126.078125 33.183594 125.867188 33.695312 C 125.65625 34.210938 125.394531 34.695312 125.085938 35.15625 C 124.777344 35.617188 124.429688 36.042969 124.035156 36.4375 C 123.644531 36.828125 123.21875 37.179688 122.757812 37.488281 C 122.296875 37.796875 121.808594 38.054688 121.296875 38.269531 C 120.785156 38.480469 120.253906 38.640625 119.710938 38.75 C 119.167969 38.855469 118.617188 38.910156 118.0625 38.910156 C 117.507812 38.910156 116.960938 38.855469 116.414062 38.75 C 115.871094 38.640625 115.34375 38.480469 114.832031 38.269531 C 114.320312 38.054688 113.832031 37.796875 113.371094 37.488281 C 112.910156 37.179688 112.484375 36.828125 112.089844 36.4375 C 111.699219 36.042969 111.347656 35.617188 111.039062 35.15625 C 110.730469 34.695312 110.472656 34.210938 110.257812 33.695312 C 110.046875 33.183594 109.886719 32.65625 109.777344 32.113281 C 109.671875 31.566406 109.617188 31.019531 109.617188 30.464844 C 109.617188 29.910156 109.671875 29.359375 109.777344 28.816406 C 109.886719 28.273438 110.046875 27.742188 110.257812 27.230469 C 110.472656 26.71875 110.730469 26.230469 111.039062 25.769531 C 111.347656 25.308594 111.699219 24.882812 112.089844 24.492188 C 112.484375 24.097656 112.910156 23.75 113.371094 23.441406 C 113.832031 23.132812 114.320312 22.871094 114.832031 22.660156 C 115.34375 22.449219 115.871094 22.289062 116.414062 22.179688 C 116.960938 22.070312 117.507812 22.015625 118.0625 22.015625 C 118.617188 22.015625 119.167969 22.070312 119.710938 22.179688 C 120.253906 22.289062 120.785156 22.449219 121.296875 22.660156 C 121.808594 22.871094 122.296875 23.132812 122.757812 23.441406 C 123.21875 23.75 123.644531 24.097656 124.035156 24.492188 C 124.429688 24.882812 124.777344 25.308594 125.085938 25.769531 C 125.394531 26.230469 125.65625 26.71875 125.867188 27.230469 C 126.078125 27.742188 126.238281 28.273438 126.347656 28.816406 C 126.457031 29.359375 126.511719 29.910156 126.511719 30.464844 Z M 126.511719 30.464844 " fill-opacity="1" fill-rule="nonzero"/></g><path fill="#cb202d" d="M 131.332031 126.949219 C 131.332031 130.453125 133.207031 133.527344 136.007812 135.222656 L 129.246094 135.222656 C 124.484375 135.222656 120.613281 139.09375 120.613281 143.855469 L 120.613281 147.882812 L 161.382812 147.882812 L 161.382812 143.855469 C 161.382812 139.09375 157.511719 135.222656 152.75 135.222656 L 145.988281 135.222656 C 148.789062 133.527344 150.664062 130.453125 150.664062 126.949219 C 150.664062 121.621094 146.328125 117.285156 141 117.285156 C 135.667969 117.285156 131.332031 121.621094 131.332031 126.949219 Z M 131.332031 126.949219 " fill-opacity="1" fill-rule="nonzero"/><path fill="#cb202d" d="M 166.902344 143.855469 L 166.902344 147.882812 L 207.675781 147.882812 L 207.675781 143.855469 C 207.675781 139.09375 203.800781 135.222656 199.039062 135.222656 L 192.28125 135.222656 C 195.078125 133.527344 196.953125 130.453125 196.953125 126.949219 C 196.953125 121.621094 192.617188 117.285156 187.289062 117.285156 C 181.960938 117.285156 177.625 121.621094 177.625 126.949219 C 177.625 130.453125 179.5 133.527344 182.296875 135.222656 L 175.535156 135.222656 C 170.777344 135.222656 166.902344 139.09375 166.902344 143.855469 Z M 166.902344 143.855469 " fill-opacity="1" fill-rule="nonzero"/><path fill="#cb202d" d="M 228.585938 135.222656 L 221.828125 135.222656 C 217.066406 135.222656 213.195312 139.09375 213.195312 143.855469 L 213.195312 147.882812 L 253.964844 147.882812 L 253.964844 143.855469 C 253.964844 139.09375 250.089844 135.222656 245.332031 135.222656 L 238.570312 135.222656 C 241.367188 133.527344 243.242188 130.453125 243.242188 126.949219 C 243.242188 121.621094 238.90625 117.285156 233.578125 117.285156 C 228.25 117.285156 223.914062 121.621094 223.914062 126.949219 C 223.914062 130.453125 225.789062 133.527344 228.585938 135.222656 Z M 228.585938 135.222656 " fill-opacity="1" fill-rule="nonzero"/><g clip-path="url(#6aa2e70e2f)"><path fill="#cb202d" d="M 129.816406 169.550781 L 123.054688 169.550781 C 125.855469 167.855469 127.726562 164.78125 127.726562 161.28125 C 127.726562 155.949219 123.394531 151.613281 118.0625 151.613281 C 112.734375 151.613281 108.398438 155.949219 108.398438 161.28125 C 108.398438 164.78125 110.273438 167.855469 113.070312 169.550781 L 106.3125 169.550781 C 101.550781 169.550781 97.679688 173.425781 97.679688 178.183594 L 97.679688 182.214844 L 138.449219 182.214844 L 138.449219 178.183594 C 138.449219 173.425781 134.574219 169.550781 129.816406 169.550781 Z M 129.816406 169.550781 " fill-opacity="1" fill-rule="nonzero"/></g><g clip-path="url(#a85a5d40f2)"><path fill="#cb202d" d="M 176.105469 169.550781 L 169.347656 169.550781 C 172.144531 167.855469 174.019531 164.78125 174.019531 161.28125 C 174.019531 155.949219 169.683594 151.613281 164.355469 151.613281 C 159.027344 151.613281 154.691406 155.949219 154.691406 161.28125 C 154.691406 164.78125 156.5625 167.855469 159.363281 169.550781 L 152.601562 169.550781 C 147.84375 169.550781 143.96875 173.425781 143.96875 178.183594 L 143.96875 182.214844 L 184.738281 182.214844 L 184.738281 178.183594 C 184.738281 173.425781 180.867188 169.550781 176.105469 169.550781 Z M 176.105469 169.550781 " fill-opacity="1" fill-rule="nonzero"/></g><g clip-path="url(#ccb379ab77)"><path fill="#cb202d" d="M 222.398438 169.550781 L 215.636719 169.550781 C 218.433594 167.855469 220.308594 164.78125 220.308594 161.28125 C 220.308594 155.949219 215.972656 151.613281 210.644531 151.613281 C 205.316406 151.613281 200.980469 155.949219 200.980469 161.28125 C 200.980469 164.78125 202.855469 167.855469 205.652344 169.550781 L 198.894531 169.550781 C 194.132812 169.550781 190.257812 173.425781 190.257812 178.183594 L 190.257812 182.214844 L 231.03125 182.214844 L 231.03125 178.183594 C 231.03125 173.425781 227.15625 169.550781 222.398438 169.550781 Z M 222.398438 169.550781 " fill-opacity="1" fill-rule="nonzero"/></g><g clip-path="url(#083ae5baac)"><path fill="#cb202d" d="M 268.6875 169.550781 L 261.925781 169.550781 C 264.726562 167.855469 266.597656 164.78125 266.597656 161.28125 C 266.597656 155.949219 262.265625 151.613281 256.933594 151.613281 C 251.605469 151.613281 247.269531 155.949219 247.269531 161.28125 C 247.269531 164.78125 249.144531 167.855469 251.941406 169.550781 L 245.183594 169.550781 C 240.421875 169.550781 236.550781 173.425781 236.550781 178.183594 L 236.550781 182.214844 L 277.320312 182.214844 L 277.320312 178.183594 C 277.320312 173.425781 273.449219 169.550781 268.6875 169.550781 Z M 268.6875 169.550781 " fill-opacity="1" fill-rule="nonzero"/></g><path fill="#cb202d" d="M 154.707031 88.015625 L 176.097656 88.015625 L 159.84375 104.265625 C 157.980469 106.128906 157.980469 109.160156 159.84375 111.027344 C 160.746094 111.929688 161.945312 112.425781 163.222656 112.425781 C 164.5 112.425781 165.699219 111.929688 166.605469 111.027344 L 187.5 90.128906 L 208.394531 111.027344 C 209.296875 111.929688 210.5 112.425781 211.773438 112.425781 C 213.050781 112.425781 214.25 111.929688 215.15625 111.023438 C 216.058594 110.121094 216.554688 108.921875 216.554688 107.644531 C 216.554688 106.367188 216.058594 105.167969 215.15625 104.265625 L 198.902344 88.011719 L 219.871094 88.011719 C 221.609375 88.011719 223.023438 86.601562 223.023438 84.863281 L 223.023438 36.582031 C 223.023438 34.84375 221.609375 33.429688 219.871094 33.429688 L 154.707031 33.429688 C 152.96875 33.429688 151.554688 34.84375 151.554688 36.582031 L 151.554688 84.863281 C 151.554688 86.601562 152.96875 88.015625 154.707031 88.015625 Z M 161.113281 42.992188 L 213.464844 42.992188 L 213.464844 78.453125 L 161.113281 78.453125 Z M 161.113281 42.992188 " fill-opacity="1" fill-rule="nonzero"/><g transform="matrix(1, 0, 0, 1, 44, 206)"><g clip-path="url(#3fe19ebe8c)"><g clip-path="url(#924c168d7e)"><g fill="#022033" fill-opacity="1"><g transform="translate(0.585015, 53.714517)"><g><path d="M 12.546875 -31.234375 L 0.21875 -31.234375 L 0.21875 -38.5 L 33.765625 -38.5 L 33.765625 -31.234375 L 21.453125 -31.234375 L 21.453125 0 L 12.546875 0 Z M 12.546875 -31.234375 "/></g></g></g></g><g fill="#022033" fill-opacity="1"><g transform="translate(34.572744, 53.714517)"><g><path d="M 12.15625 -25.6875 C 13.175781 -27.113281 14.554688 -28.191406 16.296875 -28.921875 C 18.046875 -29.660156 20.054688 -30.03125 22.328125 -30.03125 L 22.328125 -22.109375 C 21.378906 -22.179688 20.738281 -22.21875 20.40625 -22.21875 C 17.945312 -22.21875 16.019531 -21.53125 14.625 -20.15625 C 13.238281 -18.78125 12.546875 -16.71875 12.546875 -13.96875 L 12.546875 0 L 3.953125 0 L 3.953125 -29.59375 L 12.15625 -29.59375 Z M 12.15625 -25.6875 "/></g></g></g><g fill="#022033" fill-opacity="1"><g transform="translate(58.276165, 53.714517)"><g><path d="M 15.890625 -30.03125 C 20.472656 -30.03125 23.992188 -28.9375 26.453125 -26.75 C 28.910156 -24.570312 30.140625 -21.285156 30.140625 -16.890625 L 30.140625 0 L 22.109375 0 L 22.109375 -3.6875 C 20.492188 -0.9375 17.488281 0.4375 13.09375 0.4375 C 10.820312 0.4375 8.847656 0.0507812 7.171875 -0.71875 C 5.503906 -1.488281 4.226562 -2.550781 3.34375 -3.90625 C 2.46875 -5.257812 2.03125 -6.800781 2.03125 -8.53125 C 2.03125 -11.28125 3.066406 -13.441406 5.140625 -15.015625 C 7.210938 -16.585938 10.410156 -17.375 14.734375 -17.375 L 21.5625 -17.375 C 21.5625 -19.25 20.992188 -20.6875 19.859375 -21.6875 C 18.722656 -22.695312 17.015625 -23.203125 14.734375 -23.203125 C 13.160156 -23.203125 11.613281 -22.953125 10.09375 -22.453125 C 8.570312 -21.960938 7.28125 -21.296875 6.21875 -20.453125 L 3.140625 -26.453125 C 4.753906 -27.585938 6.6875 -28.46875 8.9375 -29.09375 C 11.1875 -29.71875 13.503906 -30.03125 15.890625 -30.03125 Z M 15.234375 -5.328125 C 16.703125 -5.328125 18.003906 -5.664062 19.140625 -6.34375 C 20.273438 -7.03125 21.082031 -8.03125 21.5625 -9.34375 L 21.5625 -12.375 L 15.671875 -12.375 C 12.148438 -12.375 10.390625 -11.21875 10.390625 -8.90625 C 10.390625 -7.8125 10.820312 -6.941406 11.6875 -6.296875 C 12.550781 -5.648438 13.734375 -5.328125 15.234375 -5.328125 Z M 15.234375 -5.328125 "/></g></g></g><g fill="#022033" fill-opacity="1"><g transform="translate(92.208897, 53.714517)"><g><path d="M 3.953125 -29.59375 L 12.546875 -29.59375 L 12.546875 0 L 3.953125 0 Z M 8.25 -33.71875 C 6.675781 -33.71875 5.394531 -34.175781 4.40625 -35.09375 C 3.414062 -36.007812 2.921875 -37.144531 2.921875 -38.5 C 2.921875 -39.851562 3.414062 -40.988281 4.40625 -41.90625 C 5.394531 -42.820312 6.675781 -43.28125 8.25 -43.28125 C 9.820312 -43.28125 11.101562 -42.835938 12.09375 -41.953125 C 13.082031 -41.078125 13.578125 -39.984375 13.578125 -38.671875 C 13.578125 -37.234375 13.082031 -36.046875 12.09375 -35.109375 C 11.101562 -34.179688 9.820312 -33.71875 8.25 -33.71875 Z M 8.25 -33.71875 "/></g></g></g><g fill="#022033" fill-opacity="1"><g transform="translate(108.762794, 53.714517)"><g><path d="M 21.9375 -30.03125 C 25.601562 -30.03125 28.5625 -28.929688 30.8125 -26.734375 C 33.070312 -24.535156 34.203125 -21.269531 34.203125 -16.9375 L 34.203125 0 L 25.625 0 L 25.625 -15.625 C 25.625 -17.96875 25.109375 -19.71875 24.078125 -20.875 C 23.054688 -22.03125 21.578125 -22.609375 19.640625 -22.609375 C 17.472656 -22.609375 15.75 -21.9375 14.46875 -20.59375 C 13.1875 -19.257812 12.546875 -17.269531 12.546875 -14.625 L 12.546875 0 L 3.953125 0 L 3.953125 -29.59375 L 12.15625 -29.59375 L 12.15625 -26.125 C 13.289062 -27.375 14.703125 -28.335938 16.390625 -29.015625 C 18.078125 -29.691406 19.925781 -30.03125 21.9375 -30.03125 Z M 21.9375 -30.03125 "/></g></g></g><g fill="#022033" fill-opacity="1"><g transform="translate(146.765264, 53.714517)"><g><path d="M 3.953125 -29.59375 L 12.546875 -29.59375 L 12.546875 0 L 3.953125 0 Z M 8.25 -33.71875 C 6.675781 -33.71875 5.394531 -34.175781 4.40625 -35.09375 C 3.414062 -36.007812 2.921875 -37.144531 2.921875 -38.5 C 2.921875 -39.851562 3.414062 -40.988281 4.40625 -41.90625 C 5.394531 -42.820312 6.675781 -43.28125 8.25 -43.28125 C 9.820312 -43.28125 11.101562 -42.835938 12.09375 -41.953125 C 13.082031 -41.078125 13.578125 -39.984375 13.578125 -38.671875 C 13.578125 -37.234375 13.082031 -36.046875 12.09375 -35.109375 C 11.101562 -34.179688 9.820312 -33.71875 8.25 -33.71875 Z M 8.25 -33.71875 "/></g></g></g><g fill="#022033" fill-opacity="1"><g transform="translate(163.31916, 53.714517)"><g><path d="M 21.9375 -30.03125 C 25.601562 -30.03125 28.5625 -28.929688 30.8125 -26.734375 C 33.070312 -24.535156 34.203125 -21.269531 34.203125 -16.9375 L 34.203125 0 L 25.625 0 L 25.625 -15.625 C 25.625 -17.96875 25.109375 -19.71875 24.078125 -20.875 C 23.054688 -22.03125 21.578125 -22.609375 19.640625 -22.609375 C 17.472656 -22.609375 15.75 -21.9375 14.46875 -20.59375 C 13.1875 -19.257812 12.546875 -17.269531 12.546875 -14.625 L 12.546875 0 L 3.953125 0 L 3.953125 -29.59375 L 12.15625 -29.59375 L 12.15625 -26.125 C 13.289062 -27.375 14.703125 -28.335938 16.390625 -29.015625 C 18.078125 -29.691406 19.925781 -30.03125 21.9375 -30.03125 Z M 21.9375 -30.03125 "/></g></g></g><g fill="#022033" fill-opacity="1"><g transform="translate(201.32163, 53.714517)"><g><path d="M 34.484375 -29.59375 L 34.484375 -4.953125 C 34.484375 0.472656 33.070312 4.503906 30.25 7.140625 C 27.425781 9.785156 23.300781 11.109375 17.875 11.109375 C 15.007812 11.109375 12.296875 10.757812 9.734375 10.0625 C 7.171875 9.363281 5.046875 8.359375 3.359375 7.046875 L 6.765625 0.875 C 8.015625 1.90625 9.59375 2.722656 11.5 3.328125 C 13.40625 3.929688 15.3125 4.234375 17.21875 4.234375 C 20.1875 4.234375 22.375 3.5625 23.78125 2.21875 C 25.195312 0.882812 25.90625 -1.132812 25.90625 -3.84375 L 25.90625 -5.109375 C 23.664062 -2.660156 20.550781 -1.4375 16.5625 -1.4375 C 13.84375 -1.4375 11.351562 -2.03125 9.09375 -3.21875 C 6.84375 -4.40625 5.054688 -6.082031 3.734375 -8.25 C 2.421875 -10.414062 1.765625 -12.910156 1.765625 -15.734375 C 1.765625 -18.554688 2.421875 -21.046875 3.734375 -23.203125 C 5.054688 -25.367188 6.84375 -27.046875 9.09375 -28.234375 C 11.351562 -29.429688 13.84375 -30.03125 16.5625 -30.03125 C 20.84375 -30.03125 24.101562 -28.617188 26.34375 -25.796875 L 26.34375 -29.59375 Z M 18.265625 -8.46875 C 20.535156 -8.46875 22.394531 -9.132812 23.84375 -10.46875 C 25.289062 -11.8125 26.015625 -13.566406 26.015625 -15.734375 C 26.015625 -17.890625 25.289062 -19.632812 23.84375 -20.96875 C 22.394531 -22.3125 20.535156 -22.984375 18.265625 -22.984375 C 15.984375 -22.984375 14.109375 -22.3125 12.640625 -20.96875 C 11.179688 -19.632812 10.453125 -17.890625 10.453125 -15.734375 C 10.453125 -13.566406 11.179688 -11.8125 12.640625 -10.46875 C 14.109375 -9.132812 15.984375 -8.46875 18.265625 -8.46875 Z M 18.265625 -8.46875 "/></g></g></g><g fill="#cb202d" fill-opacity="1"><g transform="translate(239.829469, 53.714517)"><g/></g></g><g fill="#cb202d" fill-opacity="1"><g transform="translate(255.393435, 53.714517)"><g><path d="M 34.15625 0.65625 L 29.53125 -3.625 C 25.863281 -0.769531 21.578125 0.65625 16.671875 0.65625 C 13.878906 0.65625 11.363281 0.207031 9.125 -0.6875 C 6.894531 -1.582031 5.144531 -2.835938 3.875 -4.453125 C 2.613281 -6.066406 1.984375 -7.882812 1.984375 -9.90625 C 1.984375 -12.28125 2.648438 -14.375 3.984375 -16.1875 C 5.328125 -18.007812 7.484375 -19.742188 10.453125 -21.390625 C 9.054688 -22.828125 8.046875 -24.191406 7.421875 -25.484375 C 6.796875 -26.785156 6.484375 -28.132812 6.484375 -29.53125 C 6.484375 -31.40625 6.976562 -33.054688 7.96875 -34.484375 C 8.957031 -35.910156 10.359375 -37.019531 12.171875 -37.8125 C 13.992188 -38.601562 16.097656 -39 18.484375 -39 C 21.816406 -39 24.488281 -38.195312 26.5 -36.59375 C 28.519531 -35 29.53125 -32.847656 29.53125 -30.140625 C 29.53125 -28.160156 28.929688 -26.398438 27.734375 -24.859375 C 26.546875 -23.316406 24.632812 -21.832031 22 -20.40625 L 29.046875 -13.859375 C 29.890625 -15.617188 30.53125 -17.617188 30.96875 -19.859375 L 37.84375 -17.703125 C 37.101562 -14.296875 35.925781 -11.382812 34.3125 -8.96875 L 38.828125 -4.78125 Z M 18.484375 -33.171875 C 17.203125 -33.171875 16.179688 -32.835938 15.421875 -32.171875 C 14.671875 -31.515625 14.296875 -30.671875 14.296875 -29.640625 C 14.296875 -28.867188 14.5 -28.144531 14.90625 -27.46875 C 15.3125 -26.789062 16.097656 -25.882812 17.265625 -24.75 C 19.140625 -25.738281 20.441406 -26.625 21.171875 -27.40625 C 21.910156 -28.195312 22.28125 -29.050781 22.28125 -29.96875 C 22.28125 -30.925781 21.945312 -31.695312 21.28125 -32.28125 C 20.625 -32.875 19.691406 -33.171875 18.484375 -33.171875 Z M 17.265625 -6.046875 C 19.941406 -6.046875 22.34375 -6.800781 24.46875 -8.3125 L 15.1875 -17 C 13.457031 -16.007812 12.222656 -15.035156 11.484375 -14.078125 C 10.753906 -13.128906 10.390625 -12.046875 10.390625 -10.828125 C 10.390625 -9.398438 11.015625 -8.242188 12.265625 -7.359375 C 13.515625 -6.484375 15.179688 -6.046875 17.265625 -6.046875 Z M 17.265625 -6.046875 "/></g></g></g><g fill="#cb202d" fill-opacity="1"><g transform="translate(31.789099, 105.438786)"><g><path d="M 17.21875 0.65625 C 14.175781 0.65625 11.234375 0.242188 8.390625 -0.578125 C 5.546875 -1.398438 3.265625 -2.472656 1.546875 -3.796875 L 4.5625 -10.5 C 6.21875 -9.289062 8.179688 -8.316406 10.453125 -7.578125 C 12.722656 -6.847656 14.992188 -6.484375 17.265625 -6.484375 C 19.796875 -6.484375 21.664062 -6.859375 22.875 -7.609375 C 24.082031 -8.367188 24.6875 -9.367188 24.6875 -10.609375 C 24.6875 -11.523438 24.328125 -12.285156 23.609375 -12.890625 C 22.898438 -13.503906 21.984375 -13.992188 20.859375 -14.359375 C 19.742188 -14.722656 18.234375 -15.125 16.328125 -15.5625 C 13.398438 -16.257812 11 -16.957031 9.125 -17.65625 C 7.257812 -18.351562 5.65625 -19.46875 4.3125 -21 C 2.976562 -22.539062 2.3125 -24.597656 2.3125 -27.171875 C 2.3125 -29.410156 2.914062 -31.4375 4.125 -33.25 C 5.332031 -35.0625 7.15625 -36.5 9.59375 -37.5625 C 12.03125 -38.625 15.007812 -39.15625 18.53125 -39.15625 C 20.988281 -39.15625 23.390625 -38.863281 25.734375 -38.28125 C 28.085938 -37.695312 30.144531 -36.851562 31.90625 -35.75 L 29.15625 -28.984375 C 25.59375 -31.003906 22.035156 -32.015625 18.484375 -32.015625 C 15.984375 -32.015625 14.140625 -31.609375 12.953125 -30.796875 C 11.765625 -29.992188 11.171875 -28.929688 11.171875 -27.609375 C 11.171875 -26.285156 11.859375 -25.300781 13.234375 -24.65625 C 14.609375 -24.019531 16.707031 -23.390625 19.53125 -22.765625 C 22.457031 -22.066406 24.851562 -21.367188 26.71875 -20.671875 C 28.59375 -19.984375 30.195312 -18.882812 31.53125 -17.375 C 32.875 -15.875 33.546875 -13.84375 33.546875 -11.28125 C 33.546875 -9.070312 32.929688 -7.0625 31.703125 -5.25 C 30.472656 -3.4375 28.628906 -2 26.171875 -0.9375 C 23.722656 0.125 20.738281 0.65625 17.21875 0.65625 Z M 17.21875 0.65625 "/></g></g></g><g fill="#cb202d" fill-opacity="1"><g transform="translate(66.876754, 105.438786)"><g><path d="M 33.765625 -29.59375 L 33.765625 0 L 25.625 0 L 25.625 -3.515625 C 24.488281 -2.234375 23.128906 -1.253906 21.546875 -0.578125 C 19.972656 0.0976562 18.269531 0.4375 16.4375 0.4375 C 12.550781 0.4375 9.472656 -0.675781 7.203125 -2.90625 C 4.929688 -5.144531 3.796875 -8.46875 3.796875 -12.875 L 3.796875 -29.59375 L 12.375 -29.59375 L 12.375 -14.140625 C 12.375 -9.367188 14.375 -6.984375 18.375 -6.984375 C 20.425781 -6.984375 22.070312 -7.648438 23.3125 -8.984375 C 24.5625 -10.328125 25.1875 -12.316406 25.1875 -14.953125 L 25.1875 -29.59375 Z M 33.765625 -29.59375 "/></g></g></g><g fill="#cb202d" fill-opacity="1"><g transform="translate(104.659234, 105.438786)"><g><path d="M 21.453125 -30.03125 C 24.203125 -30.03125 26.703125 -29.394531 28.953125 -28.125 C 31.210938 -26.863281 32.984375 -25.085938 34.265625 -22.796875 C 35.546875 -20.503906 36.1875 -17.835938 36.1875 -14.796875 C 36.1875 -11.753906 35.546875 -9.085938 34.265625 -6.796875 C 32.984375 -4.503906 31.210938 -2.722656 28.953125 -1.453125 C 26.703125 -0.191406 24.203125 0.4375 21.453125 0.4375 C 17.671875 0.4375 14.703125 -0.753906 12.546875 -3.140625 L 12.546875 10.671875 L 3.953125 10.671875 L 3.953125 -29.59375 L 12.15625 -29.59375 L 12.15625 -26.1875 C 14.28125 -28.75 17.378906 -30.03125 21.453125 -30.03125 Z M 19.96875 -6.59375 C 22.164062 -6.59375 23.96875 -7.335938 25.375 -8.828125 C 26.789062 -10.316406 27.5 -12.304688 27.5 -14.796875 C 27.5 -17.285156 26.789062 -19.269531 25.375 -20.75 C 23.96875 -22.238281 22.164062 -22.984375 19.96875 -22.984375 C 17.769531 -22.984375 15.960938 -22.238281 14.546875 -20.75 C 13.140625 -19.269531 12.4375 -17.285156 12.4375 -14.796875 C 12.4375 -12.304688 13.140625 -10.316406 14.546875 -8.828125 C 15.960938 -7.335938 17.769531 -6.59375 19.96875 -6.59375 Z M 19.96875 -6.59375 "/></g></g></g><g fill="#cb202d" fill-opacity="1"><g transform="translate(142.606706, 105.438786)"><g><path d="M 21.453125 -30.03125 C 24.203125 -30.03125 26.703125 -29.394531 28.953125 -28.125 C 31.210938 -26.863281 32.984375 -25.085938 34.265625 -22.796875 C 35.546875 -20.503906 36.1875 -17.835938 36.1875 -14.796875 C 36.1875 -11.753906 35.546875 -9.085938 34.265625 -6.796875 C 32.984375 -4.503906 31.210938 -2.722656 28.953125 -1.453125 C 26.703125 -0.191406 24.203125 0.4375 21.453125 0.4375 C 17.671875 0.4375 14.703125 -0.753906 12.546875 -3.140625 L 12.546875 10.671875 L 3.953125 10.671875 L 3.953125 -29.59375 L 12.15625 -29.59375 L 12.15625 -26.1875 C 14.28125 -28.75 17.378906 -30.03125 21.453125 -30.03125 Z M 19.96875 -6.59375 C 22.164062 -6.59375 23.96875 -7.335938 25.375 -8.828125 C 26.789062 -10.316406 27.5 -12.304688 27.5 -14.796875 C 27.5 -17.285156 26.789062 -19.269531 25.375 -20.75 C 23.96875 -22.238281 22.164062 -22.984375 19.96875 -22.984375 C 17.769531 -22.984375 15.960938 -22.238281 14.546875 -20.75 C 13.140625 -19.269531 12.4375 -17.285156 12.4375 -14.796875 C 12.4375 -12.304688 13.140625 -10.316406 14.546875 -8.828125 C 15.960938 -7.335938 17.769531 -6.59375 19.96875 -6.59375 Z M 19.96875 -6.59375 "/></g></g></g><g fill="#cb202d" fill-opacity="1"><g transform="translate(180.554178, 105.438786)"><g><path d="M 18.046875 0.4375 C 14.921875 0.4375 12.117188 -0.210938 9.640625 -1.515625 C 7.171875 -2.816406 5.238281 -4.617188 3.84375 -6.921875 C 2.457031 -9.234375 1.765625 -11.859375 1.765625 -14.796875 C 1.765625 -17.722656 2.457031 -20.34375 3.84375 -22.65625 C 5.238281 -24.96875 7.171875 -26.773438 9.640625 -28.078125 C 12.117188 -29.378906 14.921875 -30.03125 18.046875 -30.03125 C 21.160156 -30.03125 23.941406 -29.378906 26.390625 -28.078125 C 28.847656 -26.773438 30.773438 -24.96875 32.171875 -22.65625 C 33.566406 -20.34375 34.265625 -17.722656 34.265625 -14.796875 C 34.265625 -11.859375 33.566406 -9.234375 32.171875 -6.921875 C 30.773438 -4.617188 28.847656 -2.816406 26.390625 -1.515625 C 23.941406 -0.210938 21.160156 0.4375 18.046875 0.4375 Z M 18.046875 -6.59375 C 20.242188 -6.59375 22.046875 -7.335938 23.453125 -8.828125 C 24.867188 -10.316406 25.578125 -12.304688 25.578125 -14.796875 C 25.578125 -17.285156 24.867188 -19.269531 23.453125 -20.75 C 22.046875 -22.238281 20.242188 -22.984375 18.046875 -22.984375 C 15.835938 -22.984375 14.019531 -22.238281 12.59375 -20.75 C 11.164062 -19.269531 10.453125 -17.285156 10.453125 -14.796875 C 10.453125 -12.304688 11.164062 -10.316406 12.59375 -8.828125 C 14.019531 -7.335938 15.835938 -6.59375 18.046875 -6.59375 Z M 18.046875 -6.59375 "/></g></g></g><g fill="#cb202d" fill-opacity="1"><g transform="translate(216.576766, 105.438786)"><g><path d="M 12.15625 -25.6875 C 13.175781 -27.113281 14.554688 -28.191406 16.296875 -28.921875 C 18.046875 -29.660156 20.054688 -30.03125 22.328125 -30.03125 L 22.328125 -22.109375 C 21.378906 -22.179688 20.738281 -22.21875 20.40625 -22.21875 C 17.945312 -22.21875 16.019531 -21.53125 14.625 -20.15625 C 13.238281 -18.78125 12.546875 -16.71875 12.546875 -13.96875 L 12.546875 0 L 3.953125 0 L 3.953125 -29.59375 L 12.15625 -29.59375 Z M 12.15625 -25.6875 "/></g></g></g><g fill="#cb202d" fill-opacity="1"><g transform="translate(240.280187, 105.438786)"><g><path d="M 23.046875 -1.4375 C 22.203125 -0.8125 21.164062 -0.34375 19.9375 -0.03125 C 18.707031 0.28125 17.414062 0.4375 16.0625 0.4375 C 12.539062 0.4375 9.816406 -0.457031 7.890625 -2.25 C 5.960938 -4.050781 5 -6.691406 5 -10.171875 L 5 -22.328125 L 0.4375 -22.328125 L 0.4375 -28.9375 L 5 -28.9375 L 5 -36.140625 L 13.578125 -36.140625 L 13.578125 -28.9375 L 20.953125 -28.9375 L 20.953125 -22.328125 L 13.578125 -22.328125 L 13.578125 -10.28125 C 13.578125 -9.039062 13.898438 -8.078125 14.546875 -7.390625 C 15.191406 -6.710938 16.097656 -6.375 17.265625 -6.375 C 18.628906 -6.375 19.785156 -6.742188 20.734375 -7.484375 Z M 23.046875 -1.4375 "/></g></g></g></g></g></svg>