<svg xmlns="http://www.w3.org/2000/svg" xmlns:xlink="http://www.w3.org/1999/xlink" width="500" zoomAndPan="magnify" viewBox="0 0 375 374.999991" height="500" preserveAspectRatio="xMidYMid meet" version="1.0"><defs><g/><clipPath id="27182a1015"><path d="M 159 8.398438 L 254 8.398438 L 254 43 L 159 43 Z M 159 8.398438 " clip-rule="nonzero"/></clipPath><clipPath id="797f5a99ed"><path d="M 100 131 L 307.691406 131 L 307.691406 211 L 100 211 Z M 100 131 " clip-rule="nonzero"/></clipPath><clipPath id="af23971e24"><path d="M 67 163 L 112 163 L 112 225.898438 L 67 225.898438 Z M 67 163 " clip-rule="nonzero"/></clipPath><clipPath id="a8c5eb3437"><path d="M 28 0.28125 L 266 0.28125 L 266 122 L 28 122 Z M 28 0.28125 " clip-rule="nonzero"/></clipPath><clipPath id="6365e64812"><rect x="0" width="238" y="0" height="122"/></clipPath><clipPath id="a6914c84fc"><path d="M 0.839844 109 L 293.640625 109 L 293.640625 148.839844 L 0.839844 148.839844 Z M 0.839844 109 " clip-rule="nonzero"/></clipPath><clipPath id="5fbd162ce2"><rect x="0" width="294" y="0" height="40"/></clipPath><clipPath id="4e403fe619"><rect x="0" width="294" y="0" height="149"/></clipPath></defs><path fill="#cb202d" d="M 214.109375 108.34375 L 214.109375 120.964844 C 214.109375 121.445312 214.0625 121.925781 213.96875 122.398438 C 213.875 122.871094 213.734375 123.332031 213.550781 123.777344 C 213.363281 124.222656 213.136719 124.644531 212.871094 125.046875 C 212.601562 125.449219 212.296875 125.820312 211.957031 126.160156 C 211.613281 126.503906 211.242188 126.808594 210.84375 127.078125 C 210.441406 127.34375 210.019531 127.570312 209.570312 127.757812 C 209.125 127.941406 208.667969 128.082031 208.195312 128.175781 C 207.71875 128.269531 207.242188 128.320312 206.761719 128.320312 L 205.8125 128.320312 C 205.328125 128.320312 204.851562 128.273438 204.375 128.175781 C 203.902344 128.082031 203.445312 127.941406 202.996094 127.757812 C 202.550781 127.574219 202.128906 127.347656 201.726562 127.078125 C 201.324219 126.808594 200.953125 126.503906 200.613281 126.164062 C 200.269531 125.820312 199.964844 125.449219 199.699219 125.050781 C 199.429688 124.648438 199.203125 124.222656 199.015625 123.777344 C 198.832031 123.332031 198.691406 122.871094 198.597656 122.398438 C 198.503906 121.925781 198.457031 121.445312 198.457031 120.964844 L 198.457031 108.34375 Z M 214.109375 108.34375 " fill-opacity="1" fill-rule="nonzero"/><g clip-path="url(#27182a1015)"><path fill="#cb202d" d="M 253.480469 39.128906 L 253.480469 42.007812 L 244.757812 42.007812 L 244.757812 39.128906 C 244.757812 38.410156 244.722656 37.6875 244.648438 36.972656 C 244.578125 36.253906 244.472656 35.542969 244.332031 34.835938 C 244.1875 34.128906 244.011719 33.429688 243.804688 32.742188 C 243.59375 32.050781 243.351562 31.375 243.074219 30.707031 C 242.796875 30.042969 242.488281 29.390625 242.148438 28.757812 C 241.808594 28.121094 241.441406 27.503906 241.039062 26.902344 C 240.636719 26.304688 240.210938 25.726562 239.75 25.167969 C 239.292969 24.613281 238.8125 24.078125 238.300781 23.570312 C 237.792969 23.058594 237.257812 22.574219 236.699219 22.117188 C 236.144531 21.660156 235.566406 21.230469 234.964844 20.832031 C 234.367188 20.429688 233.75 20.058594 233.113281 19.71875 C 232.480469 19.378906 231.828125 19.070312 231.164062 18.796875 C 230.496094 18.519531 229.820312 18.277344 229.128906 18.066406 C 228.441406 17.855469 227.742188 17.679688 227.035156 17.539062 C 226.328125 17.398438 225.617188 17.292969 224.898438 17.222656 C 224.179688 17.148438 223.460938 17.113281 222.742188 17.113281 L 189.824219 17.113281 C 189.105469 17.113281 188.386719 17.148438 187.667969 17.222656 C 186.949219 17.292969 186.238281 17.398438 185.53125 17.539062 C 184.824219 17.679688 184.125 17.855469 183.4375 18.066406 C 182.746094 18.277344 182.070312 18.519531 181.40625 18.796875 C 180.738281 19.070312 180.089844 19.378906 179.453125 19.71875 C 178.816406 20.058594 178.199219 20.429688 177.601562 20.832031 C 177 21.230469 176.421875 21.660156 175.867188 22.117188 C 175.308594 22.574219 174.777344 23.058594 174.265625 23.570312 C 173.757812 24.078125 173.273438 24.613281 172.816406 25.167969 C 172.359375 25.726562 171.929688 26.304688 171.53125 26.902344 C 171.128906 27.503906 170.757812 28.121094 170.417969 28.757812 C 170.078125 29.390625 169.769531 30.042969 169.496094 30.707031 C 169.21875 31.375 168.976562 32.050781 168.765625 32.742188 C 168.554688 33.429688 168.382812 34.128906 168.238281 34.835938 C 168.097656 35.542969 167.992188 36.253906 167.921875 36.972656 C 167.851562 37.6875 167.8125 38.410156 167.8125 39.128906 L 167.8125 42.007812 L 159.089844 42.007812 L 159.089844 39.128906 C 159.089844 38.121094 159.140625 37.117188 159.242188 36.117188 C 159.339844 35.117188 159.488281 34.121094 159.6875 33.136719 C 159.882812 32.148438 160.128906 31.171875 160.421875 30.210938 C 160.714844 29.246094 161.050781 28.300781 161.4375 27.371094 C 161.824219 26.441406 162.253906 25.535156 162.726562 24.644531 C 163.203125 23.757812 163.71875 22.898438 164.28125 22.058594 C 164.839844 21.222656 165.4375 20.414062 166.074219 19.636719 C 166.714844 18.859375 167.390625 18.117188 168.101562 17.402344 C 168.8125 16.691406 169.558594 16.015625 170.335938 15.378906 C 171.113281 14.738281 171.921875 14.140625 172.757812 13.582031 C 173.59375 13.023438 174.457031 12.503906 175.34375 12.03125 C 176.230469 11.554688 177.136719 11.125 178.066406 10.738281 C 178.996094 10.351562 179.945312 10.015625 180.90625 9.722656 C 181.867188 9.429688 182.84375 9.183594 183.832031 8.984375 C 184.816406 8.789062 185.8125 8.640625 186.8125 8.539062 C 187.816406 8.441406 188.820312 8.390625 189.824219 8.386719 L 222.742188 8.386719 C 223.746094 8.390625 224.75 8.441406 225.753906 8.539062 C 226.753906 8.640625 227.75 8.789062 228.734375 8.984375 C 229.722656 9.183594 230.699219 9.425781 231.660156 9.71875 C 232.625 10.011719 233.570312 10.351562 234.5 10.738281 C 235.429688 11.121094 236.339844 11.554688 237.226562 12.027344 C 238.113281 12.503906 238.976562 13.019531 239.8125 13.578125 C 240.648438 14.136719 241.457031 14.738281 242.234375 15.375 C 243.011719 16.015625 243.757812 16.691406 244.46875 17.402344 C 245.179688 18.113281 245.855469 18.859375 246.492188 19.636719 C 247.132812 20.414062 247.730469 21.222656 248.289062 22.058594 C 248.851562 22.894531 249.367188 23.757812 249.84375 24.644531 C 250.316406 25.53125 250.746094 26.441406 251.132812 27.371094 C 251.519531 28.300781 251.859375 29.246094 252.152344 30.210938 C 252.445312 31.171875 252.6875 32.148438 252.886719 33.132812 C 253.082031 34.121094 253.230469 35.117188 253.332031 36.117188 C 253.429688 37.117188 253.480469 38.121094 253.480469 39.128906 Z M 253.480469 39.128906 " fill-opacity="1" fill-rule="nonzero"/></g><path fill="#cb202d" d="M 289.03125 64.402344 L 289.03125 96.953125 C 267.03125 105.976562 244.796875 111.457031 222.832031 113.269531 L 222.832031 103.980469 C 222.832031 103.695312 222.804688 103.410156 222.75 103.128906 C 222.695312 102.847656 222.609375 102.574219 222.5 102.3125 C 222.390625 102.046875 222.257812 101.792969 222.097656 101.558594 C 221.941406 101.320312 221.757812 101.097656 221.554688 100.894531 C 221.355469 100.691406 221.132812 100.511719 220.894531 100.351562 C 220.65625 100.195312 220.40625 100.058594 220.140625 99.949219 C 219.875 99.839844 219.605469 99.757812 219.324219 99.703125 C 219.042969 99.644531 218.757812 99.617188 218.472656 99.617188 L 194.09375 99.617188 C 193.808594 99.617188 193.523438 99.644531 193.242188 99.703125 C 192.960938 99.757812 192.691406 99.839844 192.425781 99.949219 C 192.160156 100.058594 191.910156 100.195312 191.671875 100.351562 C 191.433594 100.511719 191.210938 100.691406 191.007812 100.894531 C 190.808594 101.097656 190.625 101.320312 190.46875 101.558594 C 190.308594 101.792969 190.171875 102.046875 190.0625 102.3125 C 189.953125 102.574219 189.871094 102.847656 189.816406 103.128906 C 189.761719 103.410156 189.730469 103.695312 189.730469 103.980469 L 189.730469 113.25 C 167.765625 111.433594 145.535156 105.953125 123.539062 96.929688 L 123.539062 64.378906 Z M 289.03125 64.402344 " fill-opacity="1" fill-rule="nonzero"/><path fill="#cb202d" d="M 287.941406 55.675781 L 124.625 55.675781 C 125.019531 54.929688 125.507812 54.25 126.089844 53.636719 C 126.671875 53.027344 127.324219 52.5 128.046875 52.066406 C 128.773438 51.628906 129.539062 51.300781 130.355469 51.074219 C 131.167969 50.847656 131.996094 50.734375 132.839844 50.730469 L 279.722656 50.730469 C 280.570312 50.734375 281.398438 50.847656 282.210938 51.074219 C 283.027344 51.300781 283.792969 51.628906 284.519531 52.066406 C 285.242188 52.5 285.894531 53.027344 286.476562 53.636719 C 287.054688 54.25 287.542969 54.929688 287.941406 55.675781 Z M 287.941406 55.675781 " fill-opacity="1" fill-rule="nonzero"/><path fill="#cb202d" d="M 280.117188 109.679688 L 280.117188 130.484375 L 236.617188 160.207031 C 233.242188 154.855469 227.136719 149.609375 216.101562 147.855469 C 215.875 147.816406 215.648438 147.800781 215.417969 147.800781 L 184.933594 147.800781 C 181.660156 147.789062 178.605469 146.960938 175.773438 145.316406 C 168.953125 141.363281 152.875 134.480469 132.453125 141.707031 L 132.453125 109.679688 C 151.023438 116.285156 170.128906 120.402344 189.769531 122.023438 C 189.839844 123.03125 190 124.023438 190.257812 125 C 190.511719 125.976562 190.855469 126.921875 191.289062 127.835938 C 191.722656 128.746094 192.238281 129.613281 192.832031 130.425781 C 193.429688 131.242188 194.097656 131.996094 194.832031 132.6875 C 195.570312 133.375 196.367188 133.992188 197.21875 134.53125 C 198.074219 135.070312 198.96875 135.527344 199.910156 135.898438 C 200.847656 136.269531 201.816406 136.550781 202.808594 136.742188 C 203.800781 136.929688 204.800781 137.027344 205.8125 137.027344 L 206.761719 137.027344 C 207.769531 137.027344 208.769531 136.929688 209.761719 136.738281 C 210.753906 136.550781 211.71875 136.269531 212.660156 135.898438 C 213.597656 135.527344 214.496094 135.070312 215.347656 134.53125 C 216.203125 133.988281 216.996094 133.375 217.734375 132.683594 C 218.472656 131.992188 219.136719 131.242188 219.734375 130.425781 C 220.328125 129.609375 220.84375 128.746094 221.277344 127.832031 C 221.710938 126.921875 222.054688 125.976562 222.308594 125 C 222.566406 124.023438 222.726562 123.03125 222.796875 122.023438 C 242.441406 120.402344 261.546875 116.289062 280.117188 109.679688 Z M 280.117188 109.679688 " fill-opacity="1" fill-rule="nonzero"/><g clip-path="url(#797f5a99ed)"><path fill="#cb202d" d="M 303.070312 151.78125 L 237.941406 197.992188 C 235.148438 199.980469 232.21875 201.738281 229.152344 203.273438 C 226.082031 204.804688 222.917969 206.09375 219.648438 207.132812 C 216.382812 208.171875 213.054688 208.953125 209.664062 209.476562 C 206.277344 210 202.867188 210.257812 199.4375 210.253906 L 116.761719 210.875 L 100.476562 169.644531 L 113.355469 162.125 C 116.898438 160.058594 119.585938 158.394531 122.078125 156.730469 C 124.570312 155.046875 127.167969 153.546875 129.871094 152.226562 L 130.054688 152.140625 C 148.878906 143.066406 163.742188 148.417969 171.417969 152.867188 C 173.472656 154.058594 175.648438 154.96875 177.941406 155.585938 C 180.238281 156.207031 182.574219 156.519531 184.949219 156.523438 L 215.082031 156.523438 C 223.167969 157.894531 228.472656 161.769531 230.84375 168.074219 C 230.84375 168.128906 230.886719 168.1875 230.902344 168.242188 C 231.636719 170.28125 232.058594 172.386719 232.171875 174.550781 L 186.996094 177.085938 C 186.707031 177.09375 186.425781 177.128906 186.144531 177.191406 C 185.867188 177.257812 185.597656 177.347656 185.335938 177.464844 C 185.074219 177.582031 184.824219 177.722656 184.59375 177.886719 C 184.359375 178.054688 184.144531 178.238281 183.945312 178.449219 C 183.75 178.65625 183.574219 178.882812 183.421875 179.125 C 183.269531 179.367188 183.140625 179.621094 183.039062 179.890625 C 182.9375 180.15625 182.863281 180.433594 182.8125 180.714844 C 182.765625 180.996094 182.746094 181.28125 182.753906 181.566406 C 182.761719 181.855469 182.796875 182.136719 182.859375 182.417969 C 182.925781 182.695312 183.015625 182.964844 183.132812 183.226562 C 183.246094 183.488281 183.390625 183.738281 183.554688 183.972656 C 183.71875 184.203125 183.90625 184.421875 184.117188 184.617188 C 184.324219 184.8125 184.550781 184.988281 184.792969 185.140625 C 185.035156 185.292969 185.289062 185.421875 185.554688 185.523438 C 185.824219 185.625 186.097656 185.699219 186.382812 185.75 C 186.664062 185.796875 186.949219 185.816406 187.234375 185.808594 L 187.484375 185.808594 L 236.660156 183.039062 C 237.164062 183.011719 237.644531 182.898438 238.109375 182.707031 C 238.574219 182.511719 238.988281 182.242188 239.359375 181.902344 C 239.730469 181.566406 240.035156 181.171875 240.269531 180.730469 C 240.507812 180.285156 240.660156 179.8125 240.734375 179.316406 C 241.148438 175.640625 240.917969 172.003906 240.046875 168.410156 L 286.9375 136.390625 L 287.105469 136.269531 L 291.011719 133.609375 C 291.605469 133.214844 292.234375 132.886719 292.894531 132.617188 C 293.558594 132.347656 294.238281 132.144531 294.9375 132.011719 C 295.640625 131.875 296.347656 131.808594 297.058594 131.8125 C 297.773438 131.816406 298.480469 131.890625 299.179688 132.03125 C 299.878906 132.175781 300.558594 132.382812 301.214844 132.660156 C 301.875 132.9375 302.5 133.273438 303.089844 133.671875 C 303.683594 134.070312 304.230469 134.519531 304.734375 135.027344 C 305.238281 135.53125 305.6875 136.082031 306.082031 136.675781 C 306.476562 137.269531 306.8125 137.898438 307.082031 138.558594 C 307.355469 139.21875 307.5625 139.898438 307.699219 140.597656 C 307.839844 141.296875 307.910156 142.003906 307.910156 142.71875 C 307.910156 143.429688 307.839844 144.136719 307.699219 144.835938 C 307.5625 145.539062 307.355469 146.21875 307.085938 146.878906 C 306.8125 147.535156 306.480469 148.164062 306.082031 148.757812 C 305.6875 149.351562 305.238281 149.902344 304.734375 150.410156 C 304.234375 150.914062 303.683594 151.367188 303.09375 151.765625 Z M 303.070312 151.78125 " fill-opacity="1" fill-rule="nonzero"/></g><g clip-path="url(#af23971e24)"><path fill="#cb202d" d="M 111.195312 220.53125 L 91.125 226.003906 L 67.042969 172.183594 L 88.628906 163.390625 L 90.90625 169.15625 L 91.039062 169.492188 L 109.695312 216.730469 L 109.792969 216.980469 Z M 111.195312 220.53125 " fill-opacity="1" fill-rule="nonzero"/></g><g transform="matrix(1, 0, 0, 1, 45, 215)"><g clip-path="url(#4e403fe619)"><g clip-path="url(#a8c5eb3437)"><g transform="matrix(1, 0, 0, 1, 28, 0)"><g clip-path="url(#6365e64812)"><g fill="#000000" fill-opacity="1"><g transform="translate(1.483261, 88.930932)"><g><path d="M 15.078125 0 L 15.078125 -34.984375 L 2 -34.984375 L 2 -49.296875 L 8 -49.296875 C 10.769531 -49.296875 12.945312 -49.78125 14.53125 -50.75 C 16.113281 -51.726562 17.296875 -53.328125 18.078125 -55.546875 L 19.078125 -58.296875 L 31.390625 -58.296875 L 31.390625 0 Z M 15.078125 0 "/></g></g></g><g fill="#000000" fill-opacity="1"><g transform="translate(39.04484, 88.930932)"><g><path d="M 29.234375 1.25 C 23.785156 1.25 19.132812 0.0390625 15.28125 -2.375 C 11.425781 -4.789062 8.46875 -8.273438 6.40625 -12.828125 C 4.351562 -17.378906 3.328125 -22.820312 3.328125 -29.15625 C 3.328125 -35.53125 4.351562 -40.976562 6.40625 -45.5 C 8.46875 -50.03125 11.425781 -53.503906 15.28125 -55.921875 C 19.132812 -58.335938 23.785156 -59.546875 29.234375 -59.546875 C 34.671875 -59.546875 39.316406 -58.335938 43.171875 -55.921875 C 47.035156 -53.503906 49.992188 -50.03125 52.046875 -45.5 C 54.097656 -40.976562 55.125 -35.53125 55.125 -29.15625 C 55.125 -22.820312 54.097656 -17.378906 52.046875 -12.828125 C 49.992188 -8.273438 47.035156 -4.789062 43.171875 -2.375 C 39.316406 0.0390625 34.671875 1.25 29.234375 1.25 Z M 19.484375 -29.15625 C 19.484375 -24.09375 20.300781 -20.171875 21.9375 -17.390625 C 23.582031 -14.617188 26.015625 -13.234375 29.234375 -13.234375 C 32.453125 -13.234375 34.878906 -14.632812 36.515625 -17.4375 C 38.148438 -20.25 38.96875 -24.15625 38.96875 -29.15625 C 38.96875 -34.207031 38.160156 -38.117188 36.546875 -40.890625 C 34.941406 -43.671875 32.503906 -45.0625 29.234375 -45.0625 C 26.015625 -45.0625 23.582031 -43.671875 21.9375 -40.890625 C 20.300781 -38.117188 19.484375 -34.207031 19.484375 -29.15625 Z M 19.484375 -29.15625 "/></g></g></g><g fill="#000000" fill-opacity="1"><g transform="translate(97.510973, 88.930932)"><g><path d="M 29.234375 1.25 C 23.785156 1.25 19.132812 0.0390625 15.28125 -2.375 C 11.425781 -4.789062 8.46875 -8.273438 6.40625 -12.828125 C 4.351562 -17.378906 3.328125 -22.820312 3.328125 -29.15625 C 3.328125 -35.53125 4.351562 -40.976562 6.40625 -45.5 C 8.46875 -50.03125 11.425781 -53.503906 15.28125 -55.921875 C 19.132812 -58.335938 23.785156 -59.546875 29.234375 -59.546875 C 34.671875 -59.546875 39.316406 -58.335938 43.171875 -55.921875 C 47.035156 -53.503906 49.992188 -50.03125 52.046875 -45.5 C 54.097656 -40.976562 55.125 -35.53125 55.125 -29.15625 C 55.125 -22.820312 54.097656 -17.378906 52.046875 -12.828125 C 49.992188 -8.273438 47.035156 -4.789062 43.171875 -2.375 C 39.316406 0.0390625 34.671875 1.25 29.234375 1.25 Z M 19.484375 -29.15625 C 19.484375 -24.09375 20.300781 -20.171875 21.9375 -17.390625 C 23.582031 -14.617188 26.015625 -13.234375 29.234375 -13.234375 C 32.453125 -13.234375 34.878906 -14.632812 36.515625 -17.4375 C 38.148438 -20.25 38.96875 -24.15625 38.96875 -29.15625 C 38.96875 -34.207031 38.160156 -38.117188 36.546875 -40.890625 C 34.941406 -43.671875 32.503906 -45.0625 29.234375 -45.0625 C 26.015625 -45.0625 23.582031 -43.671875 21.9375 -40.890625 C 20.300781 -38.117188 19.484375 -34.207031 19.484375 -29.15625 Z M 19.484375 -29.15625 "/></g></g></g><g fill="#cb202d" fill-opacity="1"><g transform="translate(155.983255, 88.930932)"><g><path d="M 14.984375 0 L 49.640625 -58.296875 L 66.125 -58.296875 L 31.390625 0 Z M 2.75 -45.890625 C 2.75 -48.441406 3.375 -50.742188 4.625 -52.796875 C 5.875 -54.847656 7.648438 -56.484375 9.953125 -57.703125 C 12.253906 -58.929688 15.015625 -59.546875 18.234375 -59.546875 C 21.515625 -59.546875 24.304688 -58.929688 26.609375 -57.703125 C 28.910156 -56.484375 30.671875 -54.847656 31.890625 -52.796875 C 33.117188 -50.742188 33.734375 -48.441406 33.734375 -45.890625 C 33.734375 -43.335938 33.117188 -41.03125 31.890625 -38.96875 C 30.671875 -36.914062 28.910156 -35.28125 26.609375 -34.0625 C 24.304688 -32.84375 21.515625 -32.234375 18.234375 -32.234375 C 15.015625 -32.234375 12.253906 -32.84375 9.953125 -34.0625 C 7.648438 -35.28125 5.875 -36.914062 4.625 -38.96875 C 3.375 -41.03125 2.75 -43.335938 2.75 -45.890625 Z M 14.484375 -45.890625 C 14.484375 -44.835938 14.816406 -43.9375 15.484375 -43.1875 C 16.148438 -42.4375 17.066406 -42.0625 18.234375 -42.0625 C 19.460938 -42.0625 20.40625 -42.4375 21.0625 -43.1875 C 21.726562 -43.9375 22.0625 -44.835938 22.0625 -45.890625 C 22.0625 -46.941406 21.726562 -47.84375 21.0625 -48.59375 C 20.40625 -49.34375 19.460938 -49.71875 18.234375 -49.71875 C 17.066406 -49.71875 16.148438 -49.34375 15.484375 -48.59375 C 14.816406 -47.84375 14.484375 -46.941406 14.484375 -45.890625 Z M 47.296875 -12.40625 C 47.296875 -14.957031 47.921875 -17.257812 49.171875 -19.3125 C 50.421875 -21.375 52.195312 -23.015625 54.5 -24.234375 C 56.8125 -25.453125 59.578125 -26.0625 62.796875 -26.0625 C 66.015625 -26.0625 68.773438 -25.453125 71.078125 -24.234375 C 73.378906 -23.015625 75.15625 -21.375 76.40625 -19.3125 C 77.65625 -17.257812 78.28125 -14.957031 78.28125 -12.40625 C 78.28125 -9.851562 77.65625 -7.550781 76.40625 -5.5 C 75.15625 -3.445312 73.378906 -1.804688 71.078125 -0.578125 C 68.773438 0.640625 66.015625 1.25 62.796875 1.25 C 59.578125 1.25 56.8125 0.640625 54.5 -0.578125 C 52.195312 -1.804688 50.421875 -3.445312 49.171875 -5.5 C 47.921875 -7.550781 47.296875 -9.851562 47.296875 -12.40625 Z M 58.96875 -12.40625 C 58.96875 -11.351562 59.3125 -10.453125 60 -9.703125 C 60.695312 -8.953125 61.628906 -8.578125 62.796875 -8.578125 C 63.960938 -8.578125 64.878906 -8.953125 65.546875 -9.703125 C 66.210938 -10.453125 66.546875 -11.351562 66.546875 -12.40625 C 66.546875 -13.457031 66.210938 -14.359375 65.546875 -15.109375 C 64.878906 -15.859375 63.960938 -16.234375 62.796875 -16.234375 C 61.628906 -16.234375 60.695312 -15.859375 60 -15.109375 C 59.3125 -14.359375 58.96875 -13.457031 58.96875 -12.40625 Z M 58.96875 -12.40625 "/></g></g></g></g></g></g><g clip-path="url(#a6914c84fc)"><g transform="matrix(1, 0, 0, 1, -0.000000000000007105, 109)"><g clip-path="url(#5fbd162ce2)"><g fill="#000000" fill-opacity="1"><g transform="translate(1.50255, 29.260934)"><g><path d="M 2.265625 0 L 2.265625 -18.90625 L 14.703125 -18.90625 L 14.703125 -15.296875 L 6.53125 -15.296875 L 6.53125 -11.375 L 13.96875 -11.375 L 13.96875 -7.78125 L 6.53125 -7.78125 L 6.53125 -3.640625 L 15 -3.640625 L 15 0 Z M 2.265625 0 "/></g></g></g><g fill="#000000" fill-opacity="1"><g transform="translate(17.871595, 29.260934)"><g><path d="M 6.78125 0.265625 C 5.101562 0.265625 3.773438 -0.125 2.796875 -0.90625 C 1.828125 -1.6875 1.34375 -2.765625 1.34375 -4.140625 C 1.34375 -5.453125 1.78125 -6.5 2.65625 -7.28125 C 3.53125 -8.0625 4.707031 -8.453125 6.1875 -8.453125 L 11.3125 -8.453125 L 11.3125 -9.109375 C 11.3125 -9.804688 11.0625 -10.363281 10.5625 -10.78125 C 10.0625 -11.207031 9.40625 -11.421875 8.59375 -11.421875 C 7.925781 -11.421875 7.359375 -11.269531 6.890625 -10.96875 C 6.421875 -10.664062 6.125 -10.257812 6 -9.75 L 2.046875 -9.75 C 2.304688 -11.300781 3.003906 -12.488281 4.140625 -13.3125 C 5.285156 -14.144531 6.757812 -14.5625 8.5625 -14.5625 C 10.6875 -14.5625 12.347656 -14.023438 13.546875 -12.953125 C 14.742188 -11.878906 15.34375 -10.40625 15.34375 -8.53125 L 15.34375 0 L 12.296875 0 L 11.828125 -1.640625 C 10.585938 -0.367188 8.90625 0.265625 6.78125 0.265625 Z M 5.40625 -4.296875 C 5.40625 -3.804688 5.613281 -3.410156 6.03125 -3.109375 C 6.457031 -2.816406 7.019531 -2.671875 7.71875 -2.671875 C 8.75 -2.671875 9.601562 -2.96875 10.28125 -3.5625 C 10.957031 -4.15625 11.3125 -4.929688 11.34375 -5.890625 L 7.453125 -5.890625 C 6.835938 -5.890625 6.34375 -5.742188 5.96875 -5.453125 C 5.59375 -5.171875 5.40625 -4.785156 5.40625 -4.296875 Z M 5.40625 -4.296875 "/></g></g></g><g fill="#000000" fill-opacity="1"><g transform="translate(34.996968, 29.260934)"><g><path d="M 2.046875 0 L 2.046875 -14.1875 L 5.109375 -14.1875 L 5.640625 -12.296875 C 6.109375 -12.960938 6.6875 -13.441406 7.375 -13.734375 C 8.0625 -14.035156 8.925781 -14.1875 9.96875 -14.1875 L 11.515625 -14.1875 L 11.515625 -10.453125 L 9.9375 -10.453125 C 8.769531 -10.453125 7.847656 -10.132812 7.171875 -9.5 C 6.492188 -8.875 6.15625 -7.796875 6.15625 -6.265625 L 6.15625 0 Z M 2.046875 0 "/></g></g></g><g fill="#000000" fill-opacity="1"><g transform="translate(47.422321, 29.260934)"><g><path d="M 2.046875 0 L 2.046875 -14.1875 L 5.109375 -14.1875 L 5.53125 -12.59375 C 6.113281 -13.257812 6.8125 -13.753906 7.625 -14.078125 C 8.445312 -14.398438 9.328125 -14.5625 10.265625 -14.5625 C 12.117188 -14.5625 13.570312 -13.984375 14.625 -12.828125 C 15.675781 -11.679688 16.203125 -10.125 16.203125 -8.15625 L 16.203125 0 L 12.109375 0 L 12.109375 -7.71875 C 12.109375 -8.769531 11.859375 -9.585938 11.359375 -10.171875 C 10.859375 -10.753906 10.171875 -11.046875 9.296875 -11.046875 C 8.359375 -11.046875 7.597656 -10.722656 7.015625 -10.078125 C 6.441406 -9.429688 6.15625 -8.546875 6.15625 -7.421875 L 6.15625 0 Z M 2.046875 0 "/></g></g></g><g fill="#000000" fill-opacity="1"><g transform="translate(65.412066, 29.260934)"><g><path d="M 2.046875 0 L 2.046875 -14.1875 L 6.15625 -14.1875 L 6.15625 0 Z M 1.453125 -18.78125 C 1.453125 -19.53125 1.695312 -20.144531 2.1875 -20.625 C 2.6875 -21.101562 3.328125 -21.34375 4.109375 -21.34375 C 4.898438 -21.34375 5.535156 -21.101562 6.015625 -20.625 C 6.503906 -20.144531 6.75 -19.53125 6.75 -18.78125 C 6.75 -18.019531 6.503906 -17.398438 6.015625 -16.921875 C 5.535156 -16.441406 4.898438 -16.203125 4.109375 -16.203125 C 3.328125 -16.203125 2.6875 -16.441406 2.1875 -16.921875 C 1.695312 -17.398438 1.453125 -18.019531 1.453125 -18.78125 Z M 1.453125 -18.78125 "/></g></g></g><g fill="#000000" fill-opacity="1"><g transform="translate(73.623601, 29.260934)"><g><path d="M 2.046875 0 L 2.046875 -14.1875 L 5.109375 -14.1875 L 5.53125 -12.59375 C 6.113281 -13.257812 6.8125 -13.753906 7.625 -14.078125 C 8.445312 -14.398438 9.328125 -14.5625 10.265625 -14.5625 C 12.117188 -14.5625 13.570312 -13.984375 14.625 -12.828125 C 15.675781 -11.679688 16.203125 -10.125 16.203125 -8.15625 L 16.203125 0 L 12.109375 0 L 12.109375 -7.71875 C 12.109375 -8.769531 11.859375 -9.585938 11.359375 -10.171875 C 10.859375 -10.753906 10.171875 -11.046875 9.296875 -11.046875 C 8.359375 -11.046875 7.597656 -10.722656 7.015625 -10.078125 C 6.441406 -9.429688 6.15625 -8.546875 6.15625 -7.421875 L 6.15625 0 Z M 2.046875 0 "/></g></g></g><g fill="#000000" fill-opacity="1"><g transform="translate(91.613346, 29.260934)"><g><path d="M 8.96875 6 C 6.914062 6 5.242188 5.53125 3.953125 4.59375 C 2.671875 3.65625 1.9375 2.367188 1.75 0.734375 L 5.75 0.734375 C 5.894531 1.335938 6.242188 1.8125 6.796875 2.15625 C 7.347656 2.5 8.046875 2.671875 8.890625 2.671875 C 11.160156 2.671875 12.296875 1.519531 12.296875 -0.78125 L 12.296875 -1.78125 C 11.710938 -1.332031 11.046875 -0.984375 10.296875 -0.734375 C 9.554688 -0.492188 8.765625 -0.375 7.921875 -0.375 C 6.585938 -0.375 5.398438 -0.675781 4.359375 -1.28125 C 3.328125 -1.882812 2.515625 -2.722656 1.921875 -3.796875 C 1.335938 -4.867188 1.046875 -6.097656 1.046875 -7.484375 C 1.046875 -8.867188 1.335938 -10.09375 1.921875 -11.15625 C 2.515625 -12.21875 3.328125 -13.050781 4.359375 -13.65625 C 5.398438 -14.257812 6.585938 -14.5625 7.921875 -14.5625 C 8.921875 -14.5625 9.847656 -14.394531 10.703125 -14.0625 C 11.566406 -13.726562 12.300781 -13.242188 12.90625 -12.609375 L 13.34375 -14.1875 L 16.40625 -14.1875 L 16.40625 -0.78125 C 16.40625 0.625 16.101562 1.832031 15.5 2.84375 C 14.894531 3.863281 14.03125 4.644531 12.90625 5.1875 C 11.789062 5.726562 10.476562 6 8.96875 6 Z M 5.109375 -7.484375 C 5.109375 -6.378906 5.445312 -5.484375 6.125 -4.796875 C 6.8125 -4.117188 7.695312 -3.78125 8.78125 -3.78125 C 9.863281 -3.78125 10.75 -4.117188 11.4375 -4.796875 C 12.132812 -5.484375 12.484375 -6.378906 12.484375 -7.484375 C 12.484375 -8.566406 12.132812 -9.445312 11.4375 -10.125 C 10.75 -10.8125 9.863281 -11.15625 8.78125 -11.15625 C 7.695312 -11.15625 6.8125 -10.8125 6.125 -10.125 C 5.445312 -9.445312 5.109375 -8.566406 5.109375 -7.484375 Z M 5.109375 -7.484375 "/></g></g></g><g fill="#000000" fill-opacity="1"><g transform="translate(110.089305, 29.260934)"><g/></g></g><g fill="#cb202d" fill-opacity="1"><g transform="translate(116.440043, 29.260934)"><g><path d="M 11.234375 0.375 C 9.273438 0.375 7.535156 -0.0390625 6.015625 -0.875 C 4.492188 -1.71875 3.300781 -2.875 2.4375 -4.34375 C 1.582031 -5.820312 1.15625 -7.523438 1.15625 -9.453125 C 1.15625 -11.378906 1.582031 -13.082031 2.4375 -14.5625 C 3.300781 -16.039062 4.492188 -17.195312 6.015625 -18.03125 C 7.535156 -18.875 9.273438 -19.296875 11.234375 -19.296875 C 13.210938 -19.296875 14.957031 -18.875 16.46875 -18.03125 C 17.988281 -17.195312 19.179688 -16.039062 20.046875 -14.5625 C 20.910156 -13.082031 21.34375 -11.378906 21.34375 -9.453125 C 21.34375 -7.523438 20.910156 -5.820312 20.046875 -4.34375 C 19.179688 -2.875 17.988281 -1.71875 16.46875 -0.875 C 14.957031 -0.0390625 13.210938 0.375 11.234375 0.375 Z M 5.53125 -9.453125 C 5.53125 -8.316406 5.773438 -7.316406 6.265625 -6.453125 C 6.753906 -5.585938 7.425781 -4.910156 8.28125 -4.421875 C 9.132812 -3.941406 10.117188 -3.703125 11.234375 -3.703125 C 12.367188 -3.703125 13.363281 -3.941406 14.21875 -4.421875 C 15.070312 -4.910156 15.738281 -5.585938 16.21875 -6.453125 C 16.695312 -7.316406 16.9375 -8.316406 16.9375 -9.453125 C 16.9375 -10.585938 16.695312 -11.585938 16.21875 -12.453125 C 15.738281 -13.316406 15.070312 -13.988281 14.21875 -14.46875 C 13.363281 -14.957031 12.367188 -15.203125 11.234375 -15.203125 C 10.117188 -15.203125 9.132812 -14.957031 8.28125 -14.46875 C 7.425781 -13.988281 6.753906 -13.316406 6.265625 -12.453125 C 5.773438 -11.585938 5.53125 -10.585938 5.53125 -9.453125 Z M 5.53125 -9.453125 "/></g></g></g><g fill="#cb202d" fill-opacity="1"><g transform="translate(138.940728, 29.260934)"><g><path d="M 10.640625 0.375 C 9.765625 0.375 8.945312 0.242188 8.1875 -0.015625 C 7.425781 -0.273438 6.75 -0.640625 6.15625 -1.109375 L 6.15625 5.40625 L 2.046875 5.40625 L 2.046875 -14.1875 L 5.109375 -14.1875 L 5.5625 -12.5625 C 6.195312 -13.195312 6.945312 -13.6875 7.8125 -14.03125 C 8.675781 -14.382812 9.617188 -14.5625 10.640625 -14.5625 C 12.066406 -14.5625 13.316406 -14.238281 14.390625 -13.59375 C 15.472656 -12.957031 16.328125 -12.082031 16.953125 -10.96875 C 17.578125 -9.851562 17.890625 -8.566406 17.890625 -7.109375 C 17.890625 -5.648438 17.578125 -4.359375 16.953125 -3.234375 C 16.328125 -2.109375 15.472656 -1.222656 14.390625 -0.578125 C 13.316406 0.0546875 12.066406 0.375 10.640625 0.375 Z M 6 -7.109375 C 6 -5.953125 6.363281 -5.003906 7.09375 -4.265625 C 7.820312 -3.523438 8.765625 -3.15625 9.921875 -3.15625 C 11.085938 -3.15625 12.03125 -3.523438 12.75 -4.265625 C 13.46875 -5.003906 13.828125 -5.953125 13.828125 -7.109375 C 13.828125 -8.253906 13.46875 -9.195312 12.75 -9.9375 C 12.03125 -10.675781 11.085938 -11.046875 9.921875 -11.046875 C 8.765625 -11.046875 7.820312 -10.675781 7.09375 -9.9375 C 6.363281 -9.195312 6 -8.253906 6 -7.109375 Z M 6 -7.109375 "/></g></g></g><g fill="#cb202d" fill-opacity="1"><g transform="translate(157.875881, 29.260934)"><g><path d="M 10.640625 0.375 C 9.765625 0.375 8.945312 0.242188 8.1875 -0.015625 C 7.425781 -0.273438 6.75 -0.640625 6.15625 -1.109375 L 6.15625 5.40625 L 2.046875 5.40625 L 2.046875 -14.1875 L 5.109375 -14.1875 L 5.5625 -12.5625 C 6.195312 -13.195312 6.945312 -13.6875 7.8125 -14.03125 C 8.675781 -14.382812 9.617188 -14.5625 10.640625 -14.5625 C 12.066406 -14.5625 13.316406 -14.238281 14.390625 -13.59375 C 15.472656 -12.957031 16.328125 -12.082031 16.953125 -10.96875 C 17.578125 -9.851562 17.890625 -8.566406 17.890625 -7.109375 C 17.890625 -5.648438 17.578125 -4.359375 16.953125 -3.234375 C 16.328125 -2.109375 15.472656 -1.222656 14.390625 -0.578125 C 13.316406 0.0546875 12.066406 0.375 10.640625 0.375 Z M 6 -7.109375 C 6 -5.953125 6.363281 -5.003906 7.09375 -4.265625 C 7.820312 -3.523438 8.765625 -3.15625 9.921875 -3.15625 C 11.085938 -3.15625 12.03125 -3.523438 12.75 -4.265625 C 13.46875 -5.003906 13.828125 -5.953125 13.828125 -7.109375 C 13.828125 -8.253906 13.46875 -9.195312 12.75 -9.9375 C 12.03125 -10.675781 11.085938 -11.046875 9.921875 -11.046875 C 8.765625 -11.046875 7.820312 -10.675781 7.09375 -9.9375 C 6.363281 -9.195312 6 -8.253906 6 -7.109375 Z M 6 -7.109375 "/></g></g></g><g fill="#cb202d" fill-opacity="1"><g transform="translate(176.811034, 29.260934)"><g><path d="M 9.015625 0.375 C 7.453125 0.375 6.070312 0.0625 4.875 -0.5625 C 3.675781 -1.195312 2.738281 -2.078125 2.0625 -3.203125 C 1.382812 -4.328125 1.046875 -5.628906 1.046875 -7.109375 C 1.046875 -8.585938 1.382812 -9.882812 2.0625 -11 C 2.738281 -12.113281 3.675781 -12.984375 4.875 -13.609375 C 6.070312 -14.242188 7.453125 -14.5625 9.015625 -14.5625 C 10.585938 -14.5625 11.972656 -14.242188 13.171875 -13.609375 C 14.367188 -12.984375 15.300781 -12.113281 15.96875 -11 C 16.632812 -9.882812 16.96875 -8.585938 16.96875 -7.109375 C 16.96875 -5.628906 16.632812 -4.328125 15.96875 -3.203125 C 15.300781 -2.078125 14.367188 -1.195312 13.171875 -0.5625 C 11.972656 0.0625 10.585938 0.375 9.015625 0.375 Z M 5.109375 -7.109375 C 5.109375 -5.953125 5.472656 -5.003906 6.203125 -4.265625 C 6.929688 -3.523438 7.867188 -3.15625 9.015625 -3.15625 C 10.171875 -3.15625 11.109375 -3.523438 11.828125 -4.265625 C 12.546875 -5.003906 12.90625 -5.953125 12.90625 -7.109375 C 12.90625 -8.273438 12.546875 -9.222656 11.828125 -9.953125 C 11.109375 -10.679688 10.171875 -11.046875 9.015625 -11.046875 C 7.867188 -11.046875 6.929688 -10.679688 6.203125 -9.953125 C 5.472656 -9.222656 5.109375 -8.273438 5.109375 -7.109375 Z M 5.109375 -7.109375 "/></g></g></g><g fill="#cb202d" fill-opacity="1"><g transform="translate(194.827787, 29.260934)"><g><path d="M 2.046875 0 L 2.046875 -14.1875 L 5.109375 -14.1875 L 5.640625 -12.296875 C 6.109375 -12.960938 6.6875 -13.441406 7.375 -13.734375 C 8.0625 -14.035156 8.925781 -14.1875 9.96875 -14.1875 L 11.515625 -14.1875 L 11.515625 -10.453125 L 9.9375 -10.453125 C 8.769531 -10.453125 7.847656 -10.132812 7.171875 -9.5 C 6.492188 -8.875 6.15625 -7.796875 6.15625 -6.265625 L 6.15625 0 Z M 2.046875 0 "/></g></g></g><g fill="#cb202d" fill-opacity="1"><g transform="translate(207.25314, 29.260934)"><g><path d="M 8.890625 0 C 7.085938 0 5.703125 -0.460938 4.734375 -1.390625 C 3.773438 -2.316406 3.296875 -3.644531 3.296875 -5.375 L 3.296875 -10.828125 L 0.546875 -10.828125 L 0.546875 -14.1875 L 1.8125 -14.1875 C 2.582031 -14.1875 3.109375 -14.3125 3.390625 -14.5625 C 3.671875 -14.8125 3.863281 -15.296875 3.96875 -16.015625 L 4.21875 -17.859375 L 7.40625 -17.859375 L 7.40625 -14.1875 L 11.296875 -14.1875 L 11.296875 -10.828125 L 7.40625 -10.828125 L 7.40625 -6 C 7.40625 -4.375 8.195312 -3.5625 9.78125 -3.5625 L 11.484375 -3.5625 L 11.484375 0 Z M 8.890625 0 "/></g></g></g><g fill="#cb202d" fill-opacity="1"><g transform="translate(219.867572, 29.260934)"><g><path d="M 7.703125 0.375 C 5.859375 0.375 4.410156 -0.203125 3.359375 -1.359375 C 2.304688 -2.523438 1.78125 -4.085938 1.78125 -6.046875 L 1.78125 -14.1875 L 5.890625 -14.1875 L 5.890625 -6.453125 C 5.890625 -5.410156 6.132812 -4.597656 6.625 -4.015625 C 7.125 -3.441406 7.804688 -3.15625 8.671875 -3.15625 C 9.609375 -3.15625 10.351562 -3.476562 10.90625 -4.125 C 11.46875 -4.78125 11.75 -5.664062 11.75 -6.78125 L 11.75 -14.1875 L 15.859375 -14.1875 L 15.859375 0 L 12.8125 0 L 12.375 -1.59375 C 11.8125 -0.925781 11.125 -0.429688 10.3125 -0.109375 C 9.507812 0.210938 8.640625 0.375 7.703125 0.375 Z M 7.703125 0.375 "/></g></g></g><g fill="#cb202d" fill-opacity="1"><g transform="translate(237.776282, 29.260934)"><g><path d="M 2.046875 0 L 2.046875 -14.1875 L 5.109375 -14.1875 L 5.53125 -12.59375 C 6.113281 -13.257812 6.8125 -13.753906 7.625 -14.078125 C 8.445312 -14.398438 9.328125 -14.5625 10.265625 -14.5625 C 12.117188 -14.5625 13.570312 -13.984375 14.625 -12.828125 C 15.675781 -11.679688 16.203125 -10.125 16.203125 -8.15625 L 16.203125 0 L 12.109375 0 L 12.109375 -7.71875 C 12.109375 -8.769531 11.859375 -9.585938 11.359375 -10.171875 C 10.859375 -10.753906 10.171875 -11.046875 9.296875 -11.046875 C 8.359375 -11.046875 7.597656 -10.722656 7.015625 -10.078125 C 6.441406 -9.429688 6.15625 -8.546875 6.15625 -7.421875 L 6.15625 0 Z M 2.046875 0 "/></g></g></g><g fill="#cb202d" fill-opacity="1"><g transform="translate(255.766027, 29.260934)"><g><path d="M 2.046875 0 L 2.046875 -14.1875 L 6.15625 -14.1875 L 6.15625 0 Z M 1.453125 -18.78125 C 1.453125 -19.53125 1.695312 -20.144531 2.1875 -20.625 C 2.6875 -21.101562 3.328125 -21.34375 4.109375 -21.34375 C 4.898438 -21.34375 5.535156 -21.101562 6.015625 -20.625 C 6.503906 -20.144531 6.75 -19.53125 6.75 -18.78125 C 6.75 -18.019531 6.503906 -17.398438 6.015625 -16.921875 C 5.535156 -16.441406 4.898438 -16.203125 4.109375 -16.203125 C 3.328125 -16.203125 2.6875 -16.441406 2.1875 -16.921875 C 1.695312 -17.398438 1.453125 -18.019531 1.453125 -18.78125 Z M 1.453125 -18.78125 "/></g></g></g><g fill="#cb202d" fill-opacity="1"><g transform="translate(263.977562, 29.260934)"><g><path d="M 8.890625 0 C 7.085938 0 5.703125 -0.460938 4.734375 -1.390625 C 3.773438 -2.316406 3.296875 -3.644531 3.296875 -5.375 L 3.296875 -10.828125 L 0.546875 -10.828125 L 0.546875 -14.1875 L 1.8125 -14.1875 C 2.582031 -14.1875 3.109375 -14.3125 3.390625 -14.5625 C 3.671875 -14.8125 3.863281 -15.296875 3.96875 -16.015625 L 4.21875 -17.859375 L 7.40625 -17.859375 L 7.40625 -14.1875 L 11.296875 -14.1875 L 11.296875 -10.828125 L 7.40625 -10.828125 L 7.40625 -6 C 7.40625 -4.375 8.195312 -3.5625 9.78125 -3.5625 L 11.484375 -3.5625 L 11.484375 0 Z M 8.890625 0 "/></g></g></g><g fill="#cb202d" fill-opacity="1"><g transform="translate(276.591995, 29.260934)"><g><path d="M 2.109375 5.40625 L 2.109375 1.859375 L 3.734375 1.859375 C 4.578125 1.859375 5.179688 1.726562 5.546875 1.46875 C 5.921875 1.207031 6.222656 0.726562 6.453125 0.03125 L 6.625 -0.453125 L 0.25 -14.1875 L 4.78125 -14.1875 L 8.59375 -5.40625 L 9.890625 -9.015625 L 11.78125 -14.1875 L 16.1875 -14.1875 L 9.859375 1.671875 C 9.484375 2.648438 9.050781 3.40625 8.5625 3.9375 C 8.070312 4.476562 7.46875 4.859375 6.75 5.078125 C 6.03125 5.296875 5.125 5.40625 4.03125 5.40625 Z M 2.109375 5.40625 "/></g></g></g></g></g></g></g></g></svg>