<svg xmlns="http://www.w3.org/2000/svg" xmlns:xlink="http://www.w3.org/1999/xlink" width="500" zoomAndPan="magnify" viewBox="0 0 375 374.999991" height="500" preserveAspectRatio="xMidYMid meet" version="1.0"><defs><g/><clipPath id="82ed08109e"><path d="M 64 13.5 L 286 13.5 L 286 276 L 64 276 Z M 64 13.5 " clip-rule="nonzero"/></clipPath></defs><g clip-path="url(#82ed08109e)"><path fill="#cb202d" d="M 255.898438 72.6875 L 260.730469 82.703125 L 271.75 84.207031 L 263.722656 91.898438 L 265.695312 102.84375 L 255.894531 97.585938 L 246.097656 102.84375 L 248.070312 91.898438 L 240.039062 84.207031 L 251.058594 82.703125 Z M 182.464844 266.511719 C 189.054688 267.734375 195.171875 267.707031 200.816406 266.425781 C 205.980469 265.25 210.792969 263.011719 215.25 259.710938 L 216.054688 259.097656 L 216.480469 258.761719 C 216.574219 258.691406 216.664062 258.625 216.757812 258.566406 L 282.417969 208.714844 C 282.523438 208.632812 282.640625 208.554688 282.753906 208.492188 L 282.75 208.484375 C 285.519531 206.886719 286.308594 204.070312 285.804688 201.332031 C 285.585938 200.140625 285.132812 198.949219 284.5 197.851562 C 283.855469 196.75 283.050781 195.757812 282.125 194.980469 C 279.933594 193.136719 276.949219 192.421875 273.914062 194.167969 L 273.917969 194.175781 L 204.222656 234.453125 C 203.441406 234.90625 202.550781 234.996094 201.738281 234.78125 L 201.738281 234.785156 L 185.636719 230.441406 L 162.519531 224.246094 C 160.773438 223.78125 159.738281 221.984375 160.203125 220.242188 C 160.667969 218.496094 162.464844 217.460938 164.207031 217.925781 L 187.324219 224.121094 L 187.328125 224.121094 C 189.261719 224.636719 191.222656 224.339844 192.851562 223.449219 L 192.984375 223.367188 C 194.640625 222.410156 195.941406 220.824219 196.46875 218.847656 L 196.472656 218.839844 C 197.003906 216.855469 196.675781 214.835938 195.722656 213.183594 C 194.765625 211.523438 193.179688 210.226562 191.199219 209.699219 L 149.113281 198.421875 L 149.117188 198.417969 L 148.957031 198.371094 C 142.648438 196.34375 136.65625 195.605469 130.992188 196.144531 C 125.390625 196.683594 120.054688 198.492188 114.996094 201.574219 L 114.992188 201.566406 L 114.921875 201.609375 L 94.816406 213.214844 L 118.523438 254.28125 L 127.585938 249.050781 C 128.417969 248.507812 129.480469 248.351562 130.488281 248.714844 C 143.847656 253.605469 153.535156 257.066406 161.628906 259.832031 C 169.519531 262.53125 175.796875 264.523438 182.464844 266.511719 Z M 87.53125 213.667969 L 114.734375 260.789062 C 115.4375 262.003906 115.578125 263.40625 115.238281 264.683594 C 114.894531 265.957031 114.078125 267.101562 112.867188 267.800781 L 112.855469 267.808594 L 112.851562 267.800781 L 99.527344 275.492188 L 99.402344 275.570312 L 99.351562 275.597656 L 99.347656 275.59375 L 99.34375 275.59375 L 99.328125 275.605469 C 98.164062 276.210938 96.84375 276.316406 95.640625 275.988281 C 94.375 275.648438 93.234375 274.828125 92.527344 273.609375 L 92.523438 273.597656 L 92.425781 273.429688 L 92.410156 273.414062 L 65.074219 226.054688 L 64.996094 225.933594 C 64.363281 224.75 64.242188 223.402344 64.574219 222.171875 C 64.914062 220.90625 65.738281 219.761719 66.957031 219.054688 L 80.277344 211.363281 C 81.496094 210.664062 82.894531 210.527344 84.164062 210.867188 C 85.441406 211.207031 86.585938 212.027344 87.28125 213.234375 L 87.519531 213.640625 L 87.523438 213.652344 Z M 271.855469 179.109375 L 271.855469 151.667969 C 271.855469 149.34375 273.75 147.449219 276.074219 147.449219 L 279.03125 147.449219 C 280.761719 147.449219 282.238281 146.46875 282.917969 144.878906 C 283.597656 143.285156 283.269531 141.539062 282.066406 140.296875 L 272.449219 130.363281 L 258.933594 116.402344 C 258.105469 115.550781 257.089844 115.117188 255.902344 115.117188 C 254.714844 115.117188 253.695312 115.550781 252.871094 116.402344 L 239.359375 130.359375 L 229.738281 140.292969 C 228.535156 141.539062 228.207031 143.28125 228.886719 144.875 C 229.558594 146.46875 231.039062 147.445312 232.773438 147.445312 L 235.726562 147.445312 C 238.050781 147.445312 239.949219 149.339844 239.949219 151.664062 L 239.949219 179.109375 C 239.949219 181.429688 241.847656 183.328125 244.167969 183.328125 L 267.636719 183.328125 C 269.960938 183.332031 271.855469 181.433594 271.855469 179.109375 Z M 216.96875 162.851562 L 216.96875 179.109375 C 216.96875 181.433594 215.074219 183.332031 212.75 183.332031 L 189.28125 183.332031 C 186.957031 183.332031 185.058594 181.433594 185.058594 179.109375 L 185.058594 92.636719 C 185.058594 90.3125 183.164062 88.414062 180.839844 88.414062 L 177.882812 88.414062 C 176.152344 88.414062 174.671875 87.4375 173.996094 85.84375 C 173.320312 84.25 173.644531 82.503906 174.847656 81.261719 L 184.464844 71.328125 L 197.976562 57.371094 C 198.804688 56.519531 199.824219 56.085938 201.007812 56.085938 C 202.195312 56.085938 203.214844 56.519531 204.039062 57.371094 L 217.554688 71.328125 L 227.175781 81.261719 C 228.375 82.503906 228.703125 84.25 228.027344 85.84375 C 227.351562 87.4375 225.875 88.414062 224.140625 88.414062 L 221.183594 88.414062 C 218.859375 88.414062 216.960938 90.3125 216.960938 92.636719 L 216.960938 162.851562 Z M 162.082031 179.109375 L 162.082031 134.117188 C 162.082031 131.796875 163.976562 129.898438 166.300781 129.898438 L 169.257812 129.898438 C 170.988281 129.898438 172.464844 128.917969 173.140625 127.324219 C 173.816406 125.734375 173.492188 123.984375 172.289062 122.742188 L 162.671875 112.8125 L 149.15625 98.851562 C 148.328125 98 147.308594 97.570312 146.125 97.570312 C 144.9375 97.570312 143.917969 98 143.09375 98.851562 L 129.578125 112.808594 L 119.957031 122.742188 C 118.757812 123.984375 118.429688 125.730469 119.105469 127.320312 C 119.78125 128.914062 121.261719 129.894531 122.988281 129.894531 L 125.945312 129.894531 C 128.269531 129.894531 130.164062 131.789062 130.164062 134.117188 L 130.164062 179.109375 C 130.164062 181.429688 132.0625 183.328125 134.386719 183.328125 L 157.855469 183.328125 C 160.1875 183.332031 162.082031 181.433594 162.082031 179.109375 Z M 146.125 55.136719 L 150.960938 65.152344 L 161.976562 66.65625 L 153.949219 74.347656 L 155.921875 85.289062 L 146.125 80.03125 L 136.324219 85.289062 L 138.296875 74.347656 L 130.273438 66.65625 L 141.292969 65.152344 Z M 201.011719 13.652344 L 205.847656 23.667969 L 216.863281 25.171875 L 208.835938 32.863281 L 210.808594 43.808594 L 201.007812 38.546875 L 191.210938 43.808594 L 193.183594 32.863281 L 185.15625 25.171875 L 196.171875 23.667969 Z M 201.011719 13.652344 " fill-opacity="1" fill-rule="evenodd"/></g><g fill="#000000" fill-opacity="1"><g transform="translate(11.257153, 328.400897)"><g><path d="M 25.984375 -7.671875 C 26.316406 -7.671875 26.609375 -7.546875 26.859375 -7.296875 L 29.25 -4.703125 C 27.925781 -3.066406 26.300781 -1.8125 24.375 -0.9375 C 22.445312 -0.0703125 20.128906 0.359375 17.421875 0.359375 C 15.003906 0.359375 12.832031 -0.0507812 10.90625 -0.875 C 8.976562 -1.695312 7.332031 -2.84375 5.96875 -4.3125 C 4.601562 -5.789062 3.554688 -7.550781 2.828125 -9.59375 C 2.097656 -11.632812 1.734375 -13.863281 1.734375 -16.28125 C 1.734375 -18.726562 2.125 -20.96875 2.90625 -23 C 3.6875 -25.03125 4.785156 -26.78125 6.203125 -28.25 C 7.617188 -29.726562 9.3125 -30.875 11.28125 -31.6875 C 13.25 -32.507812 15.425781 -32.921875 17.8125 -32.921875 C 20.1875 -32.921875 22.289062 -32.53125 24.125 -31.75 C 25.96875 -30.96875 27.53125 -29.945312 28.8125 -28.6875 L 26.796875 -25.875 C 26.671875 -25.6875 26.515625 -25.523438 26.328125 -25.390625 C 26.140625 -25.253906 25.882812 -25.1875 25.5625 -25.1875 C 25.332031 -25.1875 25.097656 -25.25 24.859375 -25.375 C 24.617188 -25.507812 24.351562 -25.671875 24.0625 -25.859375 C 23.78125 -26.046875 23.453125 -26.25 23.078125 -26.46875 C 22.703125 -26.695312 22.265625 -26.90625 21.765625 -27.09375 C 21.273438 -27.28125 20.703125 -27.4375 20.046875 -27.5625 C 19.398438 -27.695312 18.644531 -27.765625 17.78125 -27.765625 C 16.332031 -27.765625 15.003906 -27.503906 13.796875 -26.984375 C 12.585938 -26.460938 11.546875 -25.710938 10.671875 -24.734375 C 9.796875 -23.753906 9.117188 -22.550781 8.640625 -21.125 C 8.160156 -19.707031 7.921875 -18.09375 7.921875 -16.28125 C 7.921875 -14.445312 8.179688 -12.816406 8.703125 -11.390625 C 9.222656 -9.960938 9.925781 -8.757812 10.8125 -7.78125 C 11.695312 -6.8125 12.738281 -6.066406 13.9375 -5.546875 C 15.132812 -5.023438 16.425781 -4.765625 17.8125 -4.765625 C 18.632812 -4.765625 19.378906 -4.8125 20.046875 -4.90625 C 20.710938 -5 21.328125 -5.140625 21.890625 -5.328125 C 22.453125 -5.523438 22.984375 -5.773438 23.484375 -6.078125 C 23.992188 -6.390625 24.5 -6.773438 25 -7.234375 C 25.144531 -7.367188 25.300781 -7.472656 25.46875 -7.546875 C 25.632812 -7.628906 25.804688 -7.671875 25.984375 -7.671875 Z M 25.984375 -7.671875 "/></g></g></g><g fill="#000000" fill-opacity="1"><g transform="translate(39.914485, 328.400897)"><g><path d="M 12.96875 -23.46875 C 14.675781 -23.46875 16.234375 -23.1875 17.640625 -22.625 C 19.046875 -22.070312 20.242188 -21.285156 21.234375 -20.265625 C 22.234375 -19.242188 23.003906 -17.992188 23.546875 -16.515625 C 24.085938 -15.046875 24.359375 -13.40625 24.359375 -11.59375 C 24.359375 -9.757812 24.085938 -8.109375 23.546875 -6.640625 C 23.003906 -5.171875 22.234375 -3.914062 21.234375 -2.875 C 20.242188 -1.84375 19.046875 -1.046875 17.640625 -0.484375 C 16.234375 0.0664062 14.675781 0.34375 12.96875 0.34375 C 11.238281 0.34375 9.664062 0.0664062 8.25 -0.484375 C 6.84375 -1.046875 5.640625 -1.84375 4.640625 -2.875 C 3.648438 -3.914062 2.878906 -5.171875 2.328125 -6.640625 C 1.785156 -8.109375 1.515625 -9.757812 1.515625 -11.59375 C 1.515625 -13.40625 1.785156 -15.046875 2.328125 -16.515625 C 2.878906 -17.992188 3.648438 -19.242188 4.640625 -20.265625 C 5.640625 -21.285156 6.84375 -22.070312 8.25 -22.625 C 9.664062 -23.1875 11.238281 -23.46875 12.96875 -23.46875 Z M 12.96875 -3.9375 C 14.882812 -3.9375 16.304688 -4.582031 17.234375 -5.875 C 18.160156 -7.164062 18.625 -9.054688 18.625 -11.546875 C 18.625 -14.035156 18.160156 -15.929688 17.234375 -17.234375 C 16.304688 -18.546875 14.882812 -19.203125 12.96875 -19.203125 C 11.019531 -19.203125 9.578125 -18.546875 8.640625 -17.234375 C 7.703125 -15.921875 7.234375 -14.023438 7.234375 -11.546875 C 7.234375 -9.066406 7.703125 -7.175781 8.640625 -5.875 C 9.578125 -4.582031 11.019531 -3.9375 12.96875 -3.9375 Z M 12.96875 -3.9375 "/></g></g></g><g fill="#000000" fill-opacity="1"><g transform="translate(64.654767, 328.400897)"><g><path d="M 2.75 0 L 2.75 -23.09375 L 6.140625 -23.09375 C 6.867188 -23.09375 7.34375 -22.757812 7.5625 -22.09375 L 7.921875 -20.375 C 8.328125 -20.820312 8.75 -21.234375 9.1875 -21.609375 C 9.632812 -21.984375 10.109375 -22.304688 10.609375 -22.578125 C 11.117188 -22.847656 11.660156 -23.0625 12.234375 -23.21875 C 12.816406 -23.382812 13.453125 -23.46875 14.140625 -23.46875 C 15.597656 -23.46875 16.796875 -23.070312 17.734375 -22.28125 C 18.671875 -21.488281 19.375 -20.441406 19.84375 -19.140625 C 20.195312 -19.898438 20.644531 -20.554688 21.1875 -21.109375 C 21.726562 -21.660156 22.320312 -22.109375 22.96875 -22.453125 C 23.613281 -22.796875 24.300781 -23.050781 25.03125 -23.21875 C 25.757812 -23.382812 26.488281 -23.46875 27.21875 -23.46875 C 28.5 -23.46875 29.632812 -23.269531 30.625 -22.875 C 31.613281 -22.488281 32.445312 -21.914062 33.125 -21.15625 C 33.800781 -20.40625 34.3125 -19.488281 34.65625 -18.40625 C 35.007812 -17.332031 35.1875 -16.097656 35.1875 -14.703125 L 35.1875 0 L 29.625 0 L 29.625 -14.703125 C 29.625 -16.171875 29.300781 -17.273438 28.65625 -18.015625 C 28.007812 -18.765625 27.066406 -19.140625 25.828125 -19.140625 C 25.253906 -19.140625 24.722656 -19.039062 24.234375 -18.84375 C 23.742188 -18.644531 23.316406 -18.363281 22.953125 -18 C 22.585938 -17.632812 22.296875 -17.171875 22.078125 -16.609375 C 21.867188 -16.054688 21.765625 -15.421875 21.765625 -14.703125 L 21.765625 0 L 16.1875 0 L 16.1875 -14.703125 C 16.1875 -16.242188 15.875 -17.367188 15.25 -18.078125 C 14.625 -18.785156 13.710938 -19.140625 12.515625 -19.140625 C 11.703125 -19.140625 10.945312 -18.9375 10.25 -18.53125 C 9.550781 -18.132812 8.90625 -17.59375 8.3125 -16.90625 L 8.3125 0 Z M 2.75 0 "/></g></g></g><g fill="#000000" fill-opacity="1"><g transform="translate(101.236239, 328.400897)"><g><path d="M 8.3125 -5.984375 C 8.9375 -5.222656 9.617188 -4.679688 10.359375 -4.359375 C 11.109375 -4.046875 11.914062 -3.890625 12.78125 -3.890625 C 13.625 -3.890625 14.382812 -4.046875 15.0625 -4.359375 C 15.738281 -4.679688 16.3125 -5.164062 16.78125 -5.8125 C 17.257812 -6.457031 17.625 -7.269531 17.875 -8.25 C 18.132812 -9.238281 18.265625 -10.398438 18.265625 -11.734375 C 18.265625 -13.078125 18.15625 -14.21875 17.9375 -15.15625 C 17.71875 -16.101562 17.40625 -16.867188 17 -17.453125 C 16.59375 -18.035156 16.097656 -18.460938 15.515625 -18.734375 C 14.941406 -19.003906 14.285156 -19.140625 13.546875 -19.140625 C 12.398438 -19.140625 11.421875 -18.894531 10.609375 -18.40625 C 9.796875 -17.914062 9.03125 -17.226562 8.3125 -16.34375 Z M 8.015625 -19.953125 C 8.960938 -21.015625 10.035156 -21.875 11.234375 -22.53125 C 12.429688 -23.195312 13.84375 -23.53125 15.46875 -23.53125 C 16.726562 -23.53125 17.878906 -23.265625 18.921875 -22.734375 C 19.960938 -22.210938 20.863281 -21.453125 21.625 -20.453125 C 22.382812 -19.453125 22.96875 -18.21875 23.375 -16.75 C 23.789062 -15.289062 24 -13.617188 24 -11.734375 C 24 -10.003906 23.765625 -8.40625 23.296875 -6.9375 C 22.835938 -5.46875 22.175781 -4.191406 21.3125 -3.109375 C 20.445312 -2.023438 19.398438 -1.175781 18.171875 -0.5625 C 16.953125 0.0390625 15.585938 0.34375 14.078125 0.34375 C 12.785156 0.34375 11.679688 0.144531 10.765625 -0.25 C 9.847656 -0.65625 9.03125 -1.207031 8.3125 -1.90625 L 8.3125 7.546875 L 2.75 7.546875 L 2.75 -23.09375 L 6.140625 -23.09375 C 6.867188 -23.09375 7.34375 -22.757812 7.5625 -22.09375 Z M 8.015625 -19.953125 "/></g></g></g><g fill="#000000" fill-opacity="1"><g transform="translate(125.683861, 328.400897)"><g><path d="M 17.625 -14.203125 C 17.625 -14.921875 17.519531 -15.597656 17.3125 -16.234375 C 17.113281 -16.878906 16.8125 -17.441406 16.40625 -17.921875 C 16.007812 -18.398438 15.5 -18.773438 14.875 -19.046875 C 14.25 -19.328125 13.523438 -19.46875 12.703125 -19.46875 C 11.097656 -19.46875 9.832031 -19.007812 8.90625 -18.09375 C 7.976562 -17.1875 7.390625 -15.890625 7.140625 -14.203125 Z M 7.03125 -10.859375 C 7.113281 -9.671875 7.320312 -8.644531 7.65625 -7.78125 C 7.988281 -6.914062 8.421875 -6.203125 8.953125 -5.640625 C 9.492188 -5.078125 10.132812 -4.65625 10.875 -4.375 C 11.625 -4.101562 12.453125 -3.96875 13.359375 -3.96875 C 14.253906 -3.96875 15.023438 -4.070312 15.671875 -4.28125 C 16.328125 -4.488281 16.898438 -4.71875 17.390625 -4.96875 C 17.878906 -5.226562 18.304688 -5.460938 18.671875 -5.671875 C 19.046875 -5.878906 19.40625 -5.984375 19.75 -5.984375 C 20.207031 -5.984375 20.550781 -5.8125 20.78125 -5.46875 L 22.375 -3.4375 C 21.757812 -2.71875 21.066406 -2.113281 20.296875 -1.625 C 19.535156 -1.144531 18.738281 -0.753906 17.90625 -0.453125 C 17.070312 -0.160156 16.222656 0.0390625 15.359375 0.15625 C 14.503906 0.28125 13.671875 0.34375 12.859375 0.34375 C 11.253906 0.34375 9.757812 0.078125 8.375 -0.453125 C 6.988281 -0.992188 5.785156 -1.785156 4.765625 -2.828125 C 3.753906 -3.867188 2.953125 -5.15625 2.359375 -6.6875 C 1.773438 -8.226562 1.484375 -10.015625 1.484375 -12.046875 C 1.484375 -13.617188 1.738281 -15.097656 2.25 -16.484375 C 2.757812 -17.878906 3.488281 -19.085938 4.4375 -20.109375 C 5.394531 -21.140625 6.5625 -21.957031 7.9375 -22.5625 C 9.3125 -23.164062 10.863281 -23.46875 12.59375 -23.46875 C 14.039062 -23.46875 15.378906 -23.234375 16.609375 -22.765625 C 17.847656 -22.296875 18.910156 -21.613281 19.796875 -20.71875 C 20.679688 -19.832031 21.375 -18.738281 21.875 -17.4375 C 22.375 -16.132812 22.625 -14.648438 22.625 -12.984375 C 22.625 -12.148438 22.535156 -11.585938 22.359375 -11.296875 C 22.179688 -11.003906 21.835938 -10.859375 21.328125 -10.859375 Z M 7.03125 -10.859375 "/></g></g></g><g fill="#000000" fill-opacity="1"><g transform="translate(148.600688, 328.400897)"><g><path d="M 10.453125 0.359375 C 8.441406 0.359375 6.894531 -0.207031 5.8125 -1.34375 C 4.738281 -2.476562 4.203125 -4.039062 4.203125 -6.03125 L 4.203125 -18.9375 L 1.84375 -18.9375 C 1.539062 -18.9375 1.285156 -19.03125 1.078125 -19.21875 C 0.867188 -19.414062 0.765625 -19.710938 0.765625 -20.109375 L 0.765625 -22.3125 L 4.484375 -22.921875 L 5.65625 -29.21875 C 5.726562 -29.519531 5.867188 -29.753906 6.078125 -29.921875 C 6.285156 -30.085938 6.554688 -30.171875 6.890625 -30.171875 L 9.765625 -30.171875 L 9.765625 -22.890625 L 15.9375 -22.890625 L 15.9375 -18.9375 L 9.765625 -18.9375 L 9.765625 -6.421875 C 9.765625 -5.703125 9.941406 -5.140625 10.296875 -4.734375 C 10.648438 -4.328125 11.132812 -4.125 11.75 -4.125 C 12.09375 -4.125 12.378906 -4.164062 12.609375 -4.25 C 12.847656 -4.332031 13.050781 -4.414062 13.21875 -4.5 C 13.394531 -4.59375 13.550781 -4.679688 13.6875 -4.765625 C 13.820312 -4.847656 13.957031 -4.890625 14.09375 -4.890625 C 14.257812 -4.890625 14.394531 -4.847656 14.5 -4.765625 C 14.601562 -4.679688 14.71875 -4.554688 14.84375 -4.390625 L 16.5 -1.6875 C 15.6875 -1.007812 14.753906 -0.5 13.703125 -0.15625 C 12.660156 0.1875 11.578125 0.359375 10.453125 0.359375 Z M 10.453125 0.359375 "/></g></g></g><g fill="#000000" fill-opacity="1"><g transform="translate(164.223691, 328.400897)"><g><path d="M 8.515625 -23.09375 L 8.515625 0 L 2.921875 0 L 2.921875 -23.09375 Z M 9.28125 -29.828125 C 9.28125 -29.347656 9.179688 -28.898438 8.984375 -28.484375 C 8.785156 -28.066406 8.523438 -27.695312 8.203125 -27.375 C 7.878906 -27.0625 7.5 -26.8125 7.0625 -26.625 C 6.632812 -26.4375 6.171875 -26.34375 5.671875 -26.34375 C 5.191406 -26.34375 4.738281 -26.4375 4.3125 -26.625 C 3.882812 -26.8125 3.507812 -27.0625 3.1875 -27.375 C 2.875 -27.695312 2.625 -28.066406 2.4375 -28.484375 C 2.25 -28.898438 2.15625 -29.347656 2.15625 -29.828125 C 2.15625 -30.328125 2.25 -30.789062 2.4375 -31.21875 C 2.625 -31.65625 2.875 -32.03125 3.1875 -32.34375 C 3.507812 -32.664062 3.882812 -32.921875 4.3125 -33.109375 C 4.738281 -33.296875 5.191406 -33.390625 5.671875 -33.390625 C 6.171875 -33.390625 6.632812 -33.296875 7.0625 -33.109375 C 7.5 -32.921875 7.878906 -32.664062 8.203125 -32.34375 C 8.523438 -32.03125 8.785156 -31.65625 8.984375 -31.21875 C 9.179688 -30.789062 9.28125 -30.328125 9.28125 -29.828125 Z M 9.28125 -29.828125 "/></g></g></g><g fill="#000000" fill-opacity="1"><g transform="translate(174.533925, 328.400897)"><g><path d="M 10.453125 0.359375 C 8.441406 0.359375 6.894531 -0.207031 5.8125 -1.34375 C 4.738281 -2.476562 4.203125 -4.039062 4.203125 -6.03125 L 4.203125 -18.9375 L 1.84375 -18.9375 C 1.539062 -18.9375 1.285156 -19.03125 1.078125 -19.21875 C 0.867188 -19.414062 0.765625 -19.710938 0.765625 -20.109375 L 0.765625 -22.3125 L 4.484375 -22.921875 L 5.65625 -29.21875 C 5.726562 -29.519531 5.867188 -29.753906 6.078125 -29.921875 C 6.285156 -30.085938 6.554688 -30.171875 6.890625 -30.171875 L 9.765625 -30.171875 L 9.765625 -22.890625 L 15.9375 -22.890625 L 15.9375 -18.9375 L 9.765625 -18.9375 L 9.765625 -6.421875 C 9.765625 -5.703125 9.941406 -5.140625 10.296875 -4.734375 C 10.648438 -4.328125 11.132812 -4.125 11.75 -4.125 C 12.09375 -4.125 12.378906 -4.164062 12.609375 -4.25 C 12.847656 -4.332031 13.050781 -4.414062 13.21875 -4.5 C 13.394531 -4.59375 13.550781 -4.679688 13.6875 -4.765625 C 13.820312 -4.847656 13.957031 -4.890625 14.09375 -4.890625 C 14.257812 -4.890625 14.394531 -4.847656 14.5 -4.765625 C 14.601562 -4.679688 14.71875 -4.554688 14.84375 -4.390625 L 16.5 -1.6875 C 15.6875 -1.007812 14.753906 -0.5 13.703125 -0.15625 C 12.660156 0.1875 11.578125 0.359375 10.453125 0.359375 Z M 10.453125 0.359375 "/></g></g></g><g fill="#000000" fill-opacity="1"><g transform="translate(190.156929, 328.400897)"><g><path d="M 8.515625 -23.09375 L 8.515625 0 L 2.921875 0 L 2.921875 -23.09375 Z M 9.28125 -29.828125 C 9.28125 -29.347656 9.179688 -28.898438 8.984375 -28.484375 C 8.785156 -28.066406 8.523438 -27.695312 8.203125 -27.375 C 7.878906 -27.0625 7.5 -26.8125 7.0625 -26.625 C 6.632812 -26.4375 6.171875 -26.34375 5.671875 -26.34375 C 5.191406 -26.34375 4.738281 -26.4375 4.3125 -26.625 C 3.882812 -26.8125 3.507812 -27.0625 3.1875 -27.375 C 2.875 -27.695312 2.625 -28.066406 2.4375 -28.484375 C 2.25 -28.898438 2.15625 -29.347656 2.15625 -29.828125 C 2.15625 -30.328125 2.25 -30.789062 2.4375 -31.21875 C 2.625 -31.65625 2.875 -32.03125 3.1875 -32.34375 C 3.507812 -32.664062 3.882812 -32.921875 4.3125 -33.109375 C 4.738281 -33.296875 5.191406 -33.390625 5.671875 -33.390625 C 6.171875 -33.390625 6.632812 -33.296875 7.0625 -33.109375 C 7.5 -32.921875 7.878906 -32.664062 8.203125 -32.34375 C 8.523438 -32.03125 8.785156 -31.65625 8.984375 -31.21875 C 9.179688 -30.789062 9.28125 -30.328125 9.28125 -29.828125 Z M 9.28125 -29.828125 "/></g></g></g><g fill="#000000" fill-opacity="1"><g transform="translate(200.467162, 328.400897)"><g><path d="M 23.578125 -23.09375 L 14.40625 0 L 9.359375 0 L 0.203125 -23.09375 L 4.796875 -23.09375 C 5.210938 -23.09375 5.5625 -22.992188 5.84375 -22.796875 C 6.125 -22.609375 6.304688 -22.363281 6.390625 -22.0625 L 10.859375 -9.734375 C 11.097656 -9.003906 11.304688 -8.296875 11.484375 -7.609375 C 11.660156 -6.921875 11.816406 -6.226562 11.953125 -5.53125 C 12.109375 -6.226562 12.273438 -6.921875 12.453125 -7.609375 C 12.628906 -8.296875 12.847656 -9.003906 13.109375 -9.734375 L 17.65625 -22.0625 C 17.757812 -22.363281 17.945312 -22.609375 18.21875 -22.796875 C 18.488281 -22.992188 18.8125 -23.09375 19.1875 -23.09375 Z M 23.578125 -23.09375 "/></g></g></g><g fill="#000000" fill-opacity="1"><g transform="translate(223.113851, 328.400897)"><g><path d="M 17.625 -14.203125 C 17.625 -14.921875 17.519531 -15.597656 17.3125 -16.234375 C 17.113281 -16.878906 16.8125 -17.441406 16.40625 -17.921875 C 16.007812 -18.398438 15.5 -18.773438 14.875 -19.046875 C 14.25 -19.328125 13.523438 -19.46875 12.703125 -19.46875 C 11.097656 -19.46875 9.832031 -19.007812 8.90625 -18.09375 C 7.976562 -17.1875 7.390625 -15.890625 7.140625 -14.203125 Z M 7.03125 -10.859375 C 7.113281 -9.671875 7.320312 -8.644531 7.65625 -7.78125 C 7.988281 -6.914062 8.421875 -6.203125 8.953125 -5.640625 C 9.492188 -5.078125 10.132812 -4.65625 10.875 -4.375 C 11.625 -4.101562 12.453125 -3.96875 13.359375 -3.96875 C 14.253906 -3.96875 15.023438 -4.070312 15.671875 -4.28125 C 16.328125 -4.488281 16.898438 -4.71875 17.390625 -4.96875 C 17.878906 -5.226562 18.304688 -5.460938 18.671875 -5.671875 C 19.046875 -5.878906 19.40625 -5.984375 19.75 -5.984375 C 20.207031 -5.984375 20.550781 -5.8125 20.78125 -5.46875 L 22.375 -3.4375 C 21.757812 -2.71875 21.066406 -2.113281 20.296875 -1.625 C 19.535156 -1.144531 18.738281 -0.753906 17.90625 -0.453125 C 17.070312 -0.160156 16.222656 0.0390625 15.359375 0.15625 C 14.503906 0.28125 13.671875 0.34375 12.859375 0.34375 C 11.253906 0.34375 9.757812 0.078125 8.375 -0.453125 C 6.988281 -0.992188 5.785156 -1.785156 4.765625 -2.828125 C 3.753906 -3.867188 2.953125 -5.15625 2.359375 -6.6875 C 1.773438 -8.226562 1.484375 -10.015625 1.484375 -12.046875 C 1.484375 -13.617188 1.738281 -15.097656 2.25 -16.484375 C 2.757812 -17.878906 3.488281 -19.085938 4.4375 -20.109375 C 5.394531 -21.140625 6.5625 -21.957031 7.9375 -22.5625 C 9.3125 -23.164062 10.863281 -23.46875 12.59375 -23.46875 C 14.039062 -23.46875 15.378906 -23.234375 16.609375 -22.765625 C 17.847656 -22.296875 18.910156 -21.613281 19.796875 -20.71875 C 20.679688 -19.832031 21.375 -18.738281 21.875 -17.4375 C 22.375 -16.132812 22.625 -14.648438 22.625 -12.984375 C 22.625 -12.148438 22.535156 -11.585938 22.359375 -11.296875 C 22.179688 -11.003906 21.835938 -10.859375 21.328125 -10.859375 Z M 7.03125 -10.859375 "/></g></g></g><g fill="#cb202d" fill-opacity="1"><g transform="translate(246.042298, 328.400897)"><g/></g></g><g fill="#cb202d" fill-opacity="1"><g transform="translate(255.857265, 328.400897)"><g><path d="M 13.46875 -17.0625 C 14.601562 -17.0625 15.59375 -17.203125 16.4375 -17.484375 C 17.289062 -17.773438 17.988281 -18.171875 18.53125 -18.671875 C 19.082031 -19.179688 19.492188 -19.78125 19.765625 -20.46875 C 20.035156 -21.15625 20.171875 -21.910156 20.171875 -22.734375 C 20.171875 -24.390625 19.625 -25.660156 18.53125 -26.546875 C 17.445312 -27.429688 15.785156 -27.875 13.546875 -27.875 L 9.6875 -27.875 L 9.6875 -17.0625 Z M 29.046875 0 L 23.578125 0 C 22.535156 0 21.785156 -0.40625 21.328125 -1.21875 L 14.484375 -11.640625 C 14.222656 -12.023438 13.9375 -12.300781 13.625 -12.46875 C 13.320312 -12.632812 12.867188 -12.71875 12.265625 -12.71875 L 9.6875 -12.71875 L 9.6875 0 L 3.625 0 L 3.625 -32.5625 L 13.546875 -32.5625 C 15.753906 -32.5625 17.648438 -32.332031 19.234375 -31.875 C 20.816406 -31.414062 22.113281 -30.769531 23.125 -29.9375 C 24.144531 -29.113281 24.894531 -28.128906 25.375 -26.984375 C 25.851562 -25.835938 26.09375 -24.570312 26.09375 -23.1875 C 26.09375 -22.09375 25.929688 -21.054688 25.609375 -20.078125 C 25.285156 -19.109375 24.816406 -18.222656 24.203125 -17.421875 C 23.597656 -16.628906 22.847656 -15.929688 21.953125 -15.328125 C 21.066406 -14.734375 20.050781 -14.265625 18.90625 -13.921875 C 19.300781 -13.691406 19.660156 -13.421875 19.984375 -13.109375 C 20.316406 -12.804688 20.617188 -12.441406 20.890625 -12.015625 Z M 29.046875 0 "/></g></g></g><g fill="#cb202d" fill-opacity="1"><g transform="translate(283.681661, 328.400897)"><g><path d="M 14.953125 -9.859375 C 13.347656 -9.785156 11.992188 -9.644531 10.890625 -9.4375 C 9.796875 -9.238281 8.914062 -8.984375 8.25 -8.671875 C 7.59375 -8.359375 7.125 -7.988281 6.84375 -7.5625 C 6.5625 -7.144531 6.421875 -6.6875 6.421875 -6.1875 C 6.421875 -5.21875 6.707031 -4.519531 7.28125 -4.09375 C 7.863281 -3.675781 8.617188 -3.46875 9.546875 -3.46875 C 10.679688 -3.46875 11.664062 -3.671875 12.5 -4.078125 C 13.332031 -4.492188 14.148438 -5.125 14.953125 -5.96875 Z M 2.203125 -19.875 C 4.859375 -22.3125 8.054688 -23.53125 11.796875 -23.53125 C 13.148438 -23.53125 14.359375 -23.304688 15.421875 -22.859375 C 16.484375 -22.421875 17.382812 -21.804688 18.125 -21.015625 C 18.863281 -20.234375 19.421875 -19.289062 19.796875 -18.1875 C 20.179688 -17.09375 20.375 -15.894531 20.375 -14.59375 L 20.375 0 L 17.859375 0 C 17.328125 0 16.921875 -0.078125 16.640625 -0.234375 C 16.359375 -0.390625 16.132812 -0.707031 15.96875 -1.1875 L 15.46875 -2.859375 C 14.882812 -2.335938 14.3125 -1.875 13.75 -1.46875 C 13.195312 -1.070312 12.617188 -0.738281 12.015625 -0.46875 C 11.421875 -0.195312 10.78125 0.00390625 10.09375 0.140625 C 9.414062 0.285156 8.660156 0.359375 7.828125 0.359375 C 6.859375 0.359375 5.957031 0.226562 5.125 -0.03125 C 4.300781 -0.289062 3.585938 -0.679688 2.984375 -1.203125 C 2.390625 -1.734375 1.925781 -2.390625 1.59375 -3.171875 C 1.269531 -3.953125 1.109375 -4.863281 1.109375 -5.90625 C 1.109375 -6.488281 1.203125 -7.066406 1.390625 -7.640625 C 1.585938 -8.222656 1.90625 -8.773438 2.34375 -9.296875 C 2.789062 -9.828125 3.367188 -10.320312 4.078125 -10.78125 C 4.785156 -11.25 5.648438 -11.65625 6.671875 -12 C 7.703125 -12.34375 8.898438 -12.625 10.265625 -12.84375 C 11.628906 -13.0625 13.191406 -13.191406 14.953125 -13.234375 L 14.953125 -14.59375 C 14.953125 -16.132812 14.617188 -17.273438 13.953125 -18.015625 C 13.296875 -18.765625 12.34375 -19.140625 11.09375 -19.140625 C 10.195312 -19.140625 9.453125 -19.03125 8.859375 -18.8125 C 8.265625 -18.601562 7.742188 -18.367188 7.296875 -18.109375 C 6.847656 -17.847656 6.4375 -17.613281 6.0625 -17.40625 C 5.695312 -17.195312 5.289062 -17.09375 4.84375 -17.09375 C 4.445312 -17.09375 4.113281 -17.191406 3.84375 -17.390625 C 3.570312 -17.597656 3.359375 -17.835938 3.203125 -18.109375 Z M 2.203125 -19.875 "/></g></g></g><g fill="#cb202d" fill-opacity="1"><g transform="translate(305.405361, 328.400897)"><g><path d="M 10.453125 0.359375 C 8.441406 0.359375 6.894531 -0.207031 5.8125 -1.34375 C 4.738281 -2.476562 4.203125 -4.039062 4.203125 -6.03125 L 4.203125 -18.9375 L 1.84375 -18.9375 C 1.539062 -18.9375 1.285156 -19.03125 1.078125 -19.21875 C 0.867188 -19.414062 0.765625 -19.710938 0.765625 -20.109375 L 0.765625 -22.3125 L 4.484375 -22.921875 L 5.65625 -29.21875 C 5.726562 -29.519531 5.867188 -29.753906 6.078125 -29.921875 C 6.285156 -30.085938 6.554688 -30.171875 6.890625 -30.171875 L 9.765625 -30.171875 L 9.765625 -22.890625 L 15.9375 -22.890625 L 15.9375 -18.9375 L 9.765625 -18.9375 L 9.765625 -6.421875 C 9.765625 -5.703125 9.941406 -5.140625 10.296875 -4.734375 C 10.648438 -4.328125 11.132812 -4.125 11.75 -4.125 C 12.09375 -4.125 12.378906 -4.164062 12.609375 -4.25 C 12.847656 -4.332031 13.050781 -4.414062 13.21875 -4.5 C 13.394531 -4.59375 13.550781 -4.679688 13.6875 -4.765625 C 13.820312 -4.847656 13.957031 -4.890625 14.09375 -4.890625 C 14.257812 -4.890625 14.394531 -4.847656 14.5 -4.765625 C 14.601562 -4.679688 14.71875 -4.554688 14.84375 -4.390625 L 16.5 -1.6875 C 15.6875 -1.007812 14.753906 -0.5 13.703125 -0.15625 C 12.660156 0.1875 11.578125 0.359375 10.453125 0.359375 Z M 10.453125 0.359375 "/></g></g></g><g fill="#cb202d" fill-opacity="1"><g transform="translate(321.028364, 328.400897)"><g><path d="M 17.625 -14.203125 C 17.625 -14.921875 17.519531 -15.597656 17.3125 -16.234375 C 17.113281 -16.878906 16.8125 -17.441406 16.40625 -17.921875 C 16.007812 -18.398438 15.5 -18.773438 14.875 -19.046875 C 14.25 -19.328125 13.523438 -19.46875 12.703125 -19.46875 C 11.097656 -19.46875 9.832031 -19.007812 8.90625 -18.09375 C 7.976562 -17.1875 7.390625 -15.890625 7.140625 -14.203125 Z M 7.03125 -10.859375 C 7.113281 -9.671875 7.320312 -8.644531 7.65625 -7.78125 C 7.988281 -6.914062 8.421875 -6.203125 8.953125 -5.640625 C 9.492188 -5.078125 10.132812 -4.65625 10.875 -4.375 C 11.625 -4.101562 12.453125 -3.96875 13.359375 -3.96875 C 14.253906 -3.96875 15.023438 -4.070312 15.671875 -4.28125 C 16.328125 -4.488281 16.898438 -4.71875 17.390625 -4.96875 C 17.878906 -5.226562 18.304688 -5.460938 18.671875 -5.671875 C 19.046875 -5.878906 19.40625 -5.984375 19.75 -5.984375 C 20.207031 -5.984375 20.550781 -5.8125 20.78125 -5.46875 L 22.375 -3.4375 C 21.757812 -2.71875 21.066406 -2.113281 20.296875 -1.625 C 19.535156 -1.144531 18.738281 -0.753906 17.90625 -0.453125 C 17.070312 -0.160156 16.222656 0.0390625 15.359375 0.15625 C 14.503906 0.28125 13.671875 0.34375 12.859375 0.34375 C 11.253906 0.34375 9.757812 0.078125 8.375 -0.453125 C 6.988281 -0.992188 5.785156 -1.785156 4.765625 -2.828125 C 3.753906 -3.867188 2.953125 -5.15625 2.359375 -6.6875 C 1.773438 -8.226562 1.484375 -10.015625 1.484375 -12.046875 C 1.484375 -13.617188 1.738281 -15.097656 2.25 -16.484375 C 2.757812 -17.878906 3.488281 -19.085938 4.4375 -20.109375 C 5.394531 -21.140625 6.5625 -21.957031 7.9375 -22.5625 C 9.3125 -23.164062 10.863281 -23.46875 12.59375 -23.46875 C 14.039062 -23.46875 15.378906 -23.234375 16.609375 -22.765625 C 17.847656 -22.296875 18.910156 -21.613281 19.796875 -20.71875 C 20.679688 -19.832031 21.375 -18.738281 21.875 -17.4375 C 22.375 -16.132812 22.625 -14.648438 22.625 -12.984375 C 22.625 -12.148438 22.535156 -11.585938 22.359375 -11.296875 C 22.179688 -11.003906 21.835938 -10.859375 21.328125 -10.859375 Z M 7.03125 -10.859375 "/></g></g></g><g fill="#cb202d" fill-opacity="1"><g transform="translate(343.945191, 328.400897)"><g><path d="M 16.84375 -18.59375 C 16.6875 -18.351562 16.523438 -18.179688 16.359375 -18.078125 C 16.203125 -17.984375 15.992188 -17.9375 15.734375 -17.9375 C 15.460938 -17.9375 15.171875 -18.007812 14.859375 -18.15625 C 14.554688 -18.3125 14.203125 -18.484375 13.796875 -18.671875 C 13.390625 -18.859375 12.925781 -19.023438 12.40625 -19.171875 C 11.894531 -19.328125 11.285156 -19.40625 10.578125 -19.40625 C 9.484375 -19.40625 8.625 -19.171875 8 -18.703125 C 7.375 -18.242188 7.0625 -17.640625 7.0625 -16.890625 C 7.0625 -16.390625 7.222656 -15.96875 7.546875 -15.625 C 7.867188 -15.289062 8.296875 -14.992188 8.828125 -14.734375 C 9.367188 -14.484375 9.972656 -14.253906 10.640625 -14.046875 C 11.316406 -13.847656 12.003906 -13.628906 12.703125 -13.390625 C 13.398438 -13.148438 14.085938 -12.875 14.765625 -12.5625 C 15.441406 -12.257812 16.046875 -11.867188 16.578125 -11.390625 C 17.109375 -10.921875 17.535156 -10.359375 17.859375 -9.703125 C 18.179688 -9.046875 18.34375 -8.25 18.34375 -7.3125 C 18.34375 -6.207031 18.144531 -5.1875 17.75 -4.25 C 17.351562 -3.3125 16.765625 -2.5 15.984375 -1.8125 C 15.203125 -1.125 14.238281 -0.585938 13.09375 -0.203125 C 11.945312 0.171875 10.625 0.359375 9.125 0.359375 C 8.320312 0.359375 7.539062 0.285156 6.78125 0.140625 C 6.03125 0.00390625 5.304688 -0.1875 4.609375 -0.4375 C 3.910156 -0.695312 3.265625 -1 2.671875 -1.34375 C 2.078125 -1.695312 1.554688 -2.078125 1.109375 -2.484375 L 2.390625 -4.59375 C 2.554688 -4.84375 2.75 -5.035156 2.96875 -5.171875 C 3.195312 -5.304688 3.484375 -5.375 3.828125 -5.375 C 4.171875 -5.375 4.492188 -5.273438 4.796875 -5.078125 C 5.109375 -4.890625 5.46875 -4.679688 5.875 -4.453125 C 6.28125 -4.234375 6.753906 -4.023438 7.296875 -3.828125 C 7.847656 -3.628906 8.546875 -3.53125 9.390625 -3.53125 C 10.046875 -3.53125 10.609375 -3.609375 11.078125 -3.765625 C 11.554688 -3.921875 11.945312 -4.125 12.25 -4.375 C 12.5625 -4.632812 12.789062 -4.929688 12.9375 -5.265625 C 13.082031 -5.609375 13.15625 -5.960938 13.15625 -6.328125 C 13.15625 -6.867188 12.992188 -7.3125 12.671875 -7.65625 C 12.347656 -8 11.914062 -8.296875 11.375 -8.546875 C 10.84375 -8.804688 10.234375 -9.035156 9.546875 -9.234375 C 8.867188 -9.441406 8.171875 -9.664062 7.453125 -9.90625 C 6.742188 -10.144531 6.046875 -10.425781 5.359375 -10.75 C 4.679688 -11.070312 4.078125 -11.476562 3.546875 -11.96875 C 3.015625 -12.46875 2.585938 -13.078125 2.265625 -13.796875 C 1.941406 -14.515625 1.78125 -15.382812 1.78125 -16.40625 C 1.78125 -17.351562 1.96875 -18.253906 2.34375 -19.109375 C 2.71875 -19.972656 3.269531 -20.722656 4 -21.359375 C 4.726562 -21.992188 5.632812 -22.503906 6.71875 -22.890625 C 7.8125 -23.273438 9.070312 -23.46875 10.5 -23.46875 C 12.082031 -23.46875 13.523438 -23.203125 14.828125 -22.671875 C 16.140625 -22.148438 17.234375 -21.460938 18.109375 -20.609375 Z M 16.84375 -18.59375 "/></g></g></g></svg>