<svg xmlns="http://www.w3.org/2000/svg" xmlns:xlink="http://www.w3.org/1999/xlink" width="500" zoomAndPan="magnify" viewBox="0 0 375 374.999991" height="500" preserveAspectRatio="xMidYMid meet" version="1.0"><defs><g/><clipPath id="33fe4fead8"><path d="M 165 0.695312 L 274.6875 0.695312 L 274.6875 138 L 165 138 Z M 165 0.695312 " clip-rule="nonzero"/></clipPath><clipPath id="1f673a8115"><rect x="0" width="270" y="0" height="59"/></clipPath><clipPath id="b4ffca01f3"><path d="M 0.71875 272 L 320.398438 272 L 320.398438 312.398438 L 0.71875 312.398438 Z M 0.71875 272 " clip-rule="nonzero"/></clipPath><clipPath id="e223a13c84"><rect x="0" width="321" y="0" height="41"/></clipPath><clipPath id="7a152766a7"><rect x="0" width="321" y="0" height="313"/></clipPath></defs><g transform="matrix(1, 0, 0, 1, 24, 32)"><g clip-path="url(#7a152766a7)"><g clip-path="url(#33fe4fead8)"><path fill="#cb202d" d="M 274.128906 69.152344 C 274.128906 113.246094 254.765625 137.59375 219.875 137.59375 C 184.597656 137.59375 165.429688 113.246094 165.429688 69.152344 C 165.429688 25.058594 184.597656 0.710938 219.875 0.710938 C 254.765625 0.710938 274.128906 25.058594 274.128906 69.152344 Z M 207.414062 69.152344 C 207.414062 97.335938 210.289062 107.6875 219.875 107.6875 C 229.269531 107.6875 232.144531 97.335938 232.144531 69.152344 C 232.144531 40.78125 229.269531 30.621094 219.875 30.621094 C 210.289062 30.617188 207.414062 40.78125 207.414062 69.152344 Z M 207.414062 69.152344 " fill-opacity="1" fill-rule="nonzero"/></g><path fill="#000000" d="M 156.46875 61.171875 C 156.371094 61.246094 156.257812 61.300781 156.132812 61.332031 C 155.867188 61.394531 153.421875 61.863281 149.777344 59.0625 C 148.328125 57.949219 147.699219 56.3125 148.28125 55.164062 C 148.542969 54.652344 149.425781 53.542969 152.003906 54.296875 C 152.464844 54.429688 152.730469 54.914062 152.59375 55.371094 C 152.460938 55.832031 151.976562 56.097656 151.515625 55.964844 C 150.445312 55.652344 149.914062 55.789062 149.832031 55.953125 C 149.707031 56.195312 149.945312 57 150.835938 57.683594 C 153.847656 60 155.71875 59.644531 155.734375 59.636719 C 156.203125 59.527344 156.671875 59.816406 156.78125 60.285156 C 156.859375 60.625 156.726562 60.96875 156.46875 61.171875 Z M 156.46875 61.171875 " fill-opacity="1" fill-rule="nonzero"/><path fill="#cb202d" d="M 152.832031 93.542969 L 165.886719 48.179688 C 166.78125 45.0625 164.375 41.976562 161.132812 42.085938 L 113.957031 43.679688 C 112.949219 43.710938 111.976562 44.066406 111.179688 44.683594 L 55.085938 88.417969 C 53.195312 89.890625 52.855469 92.621094 54.332031 94.515625 L 88.988281 138.964844 C 90.460938 140.859375 93.191406 141.195312 95.085938 139.722656 L 151.179688 95.988281 C 151.976562 95.367188 152.554688 94.511719 152.832031 93.542969 Z M 144.601562 59.871094 C 142.394531 57.039062 142.898438 52.953125 145.734375 50.746094 C 148.566406 48.535156 152.652344 49.042969 154.859375 51.875 C 157.070312 54.707031 156.5625 58.792969 153.730469 61.003906 C 150.898438 63.210938 146.808594 62.707031 144.601562 59.871094 Z M 144.601562 59.871094 " fill-opacity="1" fill-rule="nonzero"/><path fill="#000000" d="M 208.453125 77.488281 C 208.1875 77.695312 207.8125 77.722656 207.503906 77.53125 C 207.109375 77.285156 206.980469 76.765625 207.21875 76.375 C 209.105469 73.261719 207.203125 65.414062 203.441406 60.824219 C 201.613281 58.59375 198.648438 56.21875 194.894531 57.585938 C 191.898438 58.675781 190.226562 60.527344 188.617188 62.320312 C 185.191406 66.125 182.234375 69.40625 169.3125 63.140625 C 158.992188 58.136719 154.070312 56.695312 151.964844 56.082031 L 151.488281 55.9375 C 151.042969 55.804688 150.785156 55.335938 150.910156 54.894531 C 151.035156 54.449219 151.496094 54.199219 151.941406 54.332031 L 152.40625 54.46875 C 154.550781 55.09375 159.566406 56.5625 170.015625 61.632812 C 181.808594 67.351562 184.136719 64.761719 187.367188 61.183594 C 189.035156 59.332031 190.921875 57.234375 194.300781 56.003906 C 197.945312 54.679688 201.648438 56.015625 204.722656 59.773438 C 209.019531 65.015625 210.925781 73.515625 208.652344 77.265625 C 208.597656 77.355469 208.53125 77.429688 208.453125 77.488281 Z M 208.453125 77.488281 " fill-opacity="1" fill-rule="nonzero"/><path fill="#ffffff" d="M 91.03125 91.410156 L 92.375 93.105469 L 84.542969 99.300781 L 83.480469 97.960938 L 83.691406 87.992188 L 78.8125 91.847656 L 77.46875 90.148438 L 85.0625 84.144531 L 86.125 85.484375 L 85.902344 95.464844 Z M 91.03125 91.410156 " fill-opacity="1" fill-rule="nonzero"/><path fill="#ffffff" d="M 99.636719 81.09375 L 92.519531 86.726562 C 93.820312 87.847656 95.597656 87.824219 97.175781 86.574219 C 98.195312 85.769531 98.738281 84.8125 98.859375 83.640625 L 101.035156 84.046875 C 100.984375 85.664062 100.113281 87.179688 98.550781 88.414062 C 95.507812 90.820312 91.992188 90.425781 89.855469 87.726562 C 87.722656 85.023438 88.175781 81.515625 90.878906 79.378906 C 93.527344 77.28125 96.929688 77.601562 99.171875 80.4375 C 99.308594 80.609375 99.492188 80.878906 99.636719 81.09375 Z M 91.386719 85.328125 L 96.535156 81.257812 C 95.328125 80.082031 93.613281 79.976562 92.222656 81.078125 C 90.84375 82.164062 90.542969 83.84375 91.386719 85.328125 Z M 91.386719 85.328125 " fill-opacity="1" fill-rule="nonzero"/><path fill="#ffffff" d="M 102.75 69.988281 L 104.351562 72.007812 C 104.136719 72.121094 103.96875 72.226562 103.816406 72.347656 C 102.203125 73.625 101.9375 75.378906 103.402344 77.230469 L 106.882812 81.632812 L 104.757812 83.3125 L 97.582031 74.238281 L 99.605469 72.640625 L 100.652344 73.964844 C 100.511719 72.53125 101.238281 71.183594 102.75 69.988281 Z M 102.75 69.988281 " fill-opacity="1" fill-rule="nonzero"/><path fill="#ffffff" d="M 107.386719 73.859375 C 105.238281 71.140625 105.757812 67.609375 108.542969 65.40625 C 111.363281 63.175781 114.902344 63.496094 117.054688 66.210938 C 119.203125 68.929688 118.714844 72.464844 115.894531 74.695312 C 113.109375 76.902344 109.539062 76.578125 107.386719 73.859375 Z M 114.914062 67.90625 C 113.542969 66.171875 111.515625 65.980469 109.96875 67.207031 C 108.4375 68.414062 108.15625 70.433594 109.527344 72.164062 C 110.898438 73.898438 112.925781 74.089844 114.457031 72.878906 C 116.003906 71.65625 116.285156 69.636719 114.914062 67.90625 Z M 114.914062 67.90625 " fill-opacity="1" fill-rule="nonzero"/><path fill="#ffffff" d="M 96.207031 107.691406 L 96.636719 108.238281 L 99.136719 106.261719 L 100.476562 107.960938 L 98.050781 109.882812 L 103.828125 117.1875 L 101.703125 118.867188 L 95.925781 111.5625 L 94.429688 112.742188 L 93.085938 111.046875 L 94.582031 109.863281 L 94.125 109.285156 C 92.621094 107.382812 92.777344 105.242188 94.882812 103.574219 C 95.613281 102.996094 96.449219 102.585938 97.195312 102.550781 L 97.863281 104.617188 C 97.363281 104.652344 96.835938 104.820312 96.394531 105.171875 C 95.511719 105.871094 95.441406 106.726562 96.207031 107.691406 Z M 96.207031 107.691406 " fill-opacity="1" fill-rule="nonzero"/><path fill="#ffffff" d="M 112.992188 103.667969 L 105.875 109.300781 C 107.175781 110.421875 108.953125 110.398438 110.53125 109.148438 C 111.550781 108.34375 112.09375 107.390625 112.214844 106.214844 L 114.386719 106.625 C 114.339844 108.238281 113.46875 109.753906 111.90625 110.992188 C 108.863281 113.394531 105.347656 113 103.210938 110.300781 C 101.074219 107.597656 101.53125 104.089844 104.230469 101.953125 C 106.882812 99.855469 110.285156 100.175781 112.527344 103.015625 C 112.664062 103.183594 112.847656 103.453125 112.992188 103.667969 Z M 104.742188 107.902344 L 109.886719 103.832031 C 108.683594 102.65625 106.96875 102.550781 105.574219 103.652344 C 104.199219 104.742188 103.894531 106.417969 104.742188 107.902344 Z M 104.742188 107.902344 " fill-opacity="1" fill-rule="nonzero"/><path fill="#ffffff" d="M 123.558594 95.3125 L 116.4375 100.941406 C 117.742188 102.066406 119.519531 102.042969 121.097656 100.792969 C 122.117188 99.984375 122.660156 99.03125 122.78125 97.859375 L 124.953125 98.265625 C 124.90625 99.878906 124.035156 101.394531 122.472656 102.632812 C 119.429688 105.039062 115.914062 104.644531 113.777344 101.941406 C 111.640625 99.242188 112.097656 95.730469 114.796875 93.597656 C 117.449219 91.5 120.847656 91.820312 123.09375 94.65625 C 123.226562 94.824219 123.414062 95.09375 123.558594 95.3125 Z M 115.308594 99.546875 L 120.453125 95.472656 C 119.25 94.300781 117.535156 94.191406 116.140625 95.292969 C 114.765625 96.382812 114.460938 98.058594 115.308594 99.546875 Z M 115.308594 99.546875 " fill-opacity="1" fill-rule="nonzero"/><path fill="#ffffff" d="M 126.929688 97.449219 L 126.46875 95.191406 C 127.683594 95.085938 129.203125 94.492188 130.339844 93.589844 C 131.683594 92.527344 131.949219 91.710938 131.449219 91.082031 C 130.082031 89.351562 125.765625 95.414062 122.902344 91.796875 C 121.546875 90.082031 122.203125 87.738281 124.652344 85.800781 C 125.855469 84.847656 127.460938 84.050781 128.667969 83.898438 L 129.128906 86.15625 C 127.859375 86.332031 126.859375 86.847656 125.992188 87.53125 C 124.699219 88.554688 124.425781 89.460938 124.894531 90.054688 C 126.34375 91.890625 130.660156 85.824219 133.46875 89.375 C 134.8125 91.074219 134.125 93.414062 131.578125 95.429688 C 130.0625 96.628906 128.203125 97.382812 126.929688 97.449219 Z M 126.929688 97.449219 " fill-opacity="1" fill-rule="nonzero"/><g transform="matrix(1, 0, 0, 1, 26, 175)"><g clip-path="url(#1f673a8115)"><g fill="#000000" fill-opacity="1"><g transform="translate(0.555604, 46.086253)"><g><path d="M 30.53125 -6.203125 L 30.53125 0 L 1.78125 0 L 1.78125 -4.9375 L 19.828125 -26.671875 L 2.15625 -26.671875 L 2.15625 -32.875 L 29.828125 -32.875 L 29.828125 -27.953125 L 11.84375 -6.203125 Z M 30.53125 -6.203125 "/></g></g></g><g fill="#000000" fill-opacity="1"><g transform="translate(31.132052, 46.086253)"><g><path d="M 29.359375 -6.109375 L 29.359375 0 L 3.890625 0 L 3.890625 -32.875 L 28.75 -32.875 L 28.75 -26.765625 L 11.453125 -26.765625 L 11.453125 -19.640625 L 26.71875 -19.640625 L 26.71875 -13.71875 L 11.453125 -13.71875 L 11.453125 -6.109375 Z M 29.359375 -6.109375 "/></g></g></g><g fill="#000000" fill-opacity="1"><g transform="translate(61.7085, 46.086253)"><g><path d="M 24.84375 0 L 18.5 -9.15625 L 11.5 -9.15625 L 11.5 0 L 3.890625 0 L 3.890625 -32.875 L 18.125 -32.875 C 21.039062 -32.875 23.570312 -32.390625 25.71875 -31.421875 C 27.863281 -30.453125 29.515625 -29.070312 30.671875 -27.28125 C 31.828125 -25.5 32.40625 -23.390625 32.40625 -20.953125 C 32.40625 -18.503906 31.816406 -16.394531 30.640625 -14.625 C 29.472656 -12.863281 27.804688 -11.507812 25.640625 -10.5625 L 33.015625 0 Z M 24.703125 -20.953125 C 24.703125 -22.796875 24.109375 -24.207031 22.921875 -25.1875 C 21.734375 -26.175781 19.992188 -26.671875 17.703125 -26.671875 L 11.5 -26.671875 L 11.5 -15.21875 L 17.703125 -15.21875 C 19.992188 -15.21875 21.734375 -15.71875 22.921875 -16.71875 C 24.109375 -17.71875 24.703125 -19.128906 24.703125 -20.953125 Z M 24.703125 -20.953125 "/></g></g></g><g fill="#000000" fill-opacity="1"><g transform="translate(95.290945, 46.086253)"><g><path d="M 19.828125 0.5625 C 16.410156 0.5625 13.332031 -0.171875 10.59375 -1.640625 C 7.851562 -3.109375 5.707031 -5.132812 4.15625 -7.71875 C 2.601562 -10.300781 1.828125 -13.207031 1.828125 -16.4375 C 1.828125 -19.664062 2.601562 -22.570312 4.15625 -25.15625 C 5.707031 -27.738281 7.851562 -29.765625 10.59375 -31.234375 C 13.332031 -32.703125 16.410156 -33.4375 19.828125 -33.4375 C 23.234375 -33.4375 26.296875 -32.703125 29.015625 -31.234375 C 31.742188 -29.765625 33.890625 -27.738281 35.453125 -25.15625 C 37.023438 -22.570312 37.8125 -19.664062 37.8125 -16.4375 C 37.8125 -13.207031 37.023438 -10.300781 35.453125 -7.71875 C 33.890625 -5.132812 31.742188 -3.109375 29.015625 -1.640625 C 26.296875 -0.171875 23.234375 0.5625 19.828125 0.5625 Z M 19.828125 -5.921875 C 21.765625 -5.921875 23.515625 -6.363281 25.078125 -7.25 C 26.648438 -8.144531 27.878906 -9.390625 28.765625 -10.984375 C 29.660156 -12.585938 30.109375 -14.40625 30.109375 -16.4375 C 30.109375 -18.46875 29.660156 -20.28125 28.765625 -21.875 C 27.878906 -23.476562 26.648438 -24.722656 25.078125 -25.609375 C 23.515625 -26.503906 21.765625 -26.953125 19.828125 -26.953125 C 17.878906 -26.953125 16.125 -26.503906 14.5625 -25.609375 C 13 -24.722656 11.769531 -23.476562 10.875 -21.875 C 9.976562 -20.28125 9.53125 -18.46875 9.53125 -16.4375 C 9.53125 -14.40625 9.976562 -12.585938 10.875 -10.984375 C 11.769531 -9.390625 13 -8.144531 14.5625 -7.25 C 16.125 -6.363281 17.878906 -5.921875 19.828125 -5.921875 Z M 19.828125 -5.921875 "/></g></g></g><g fill="#cb202d" fill-opacity="1"><g transform="translate(133.997005, 46.086253)"><g/></g></g><g fill="#cb202d" fill-opacity="1"><g transform="translate(146.349597, 46.086253)"><g><path d="M 24.84375 0 L 18.5 -9.15625 L 11.5 -9.15625 L 11.5 0 L 3.890625 0 L 3.890625 -32.875 L 18.125 -32.875 C 21.039062 -32.875 23.570312 -32.390625 25.71875 -31.421875 C 27.863281 -30.453125 29.515625 -29.070312 30.671875 -27.28125 C 31.828125 -25.5 32.40625 -23.390625 32.40625 -20.953125 C 32.40625 -18.503906 31.816406 -16.394531 30.640625 -14.625 C 29.472656 -12.863281 27.804688 -11.507812 25.640625 -10.5625 L 33.015625 0 Z M 24.703125 -20.953125 C 24.703125 -22.796875 24.109375 -24.207031 22.921875 -25.1875 C 21.734375 -26.175781 19.992188 -26.671875 17.703125 -26.671875 L 11.5 -26.671875 L 11.5 -15.21875 L 17.703125 -15.21875 C 19.992188 -15.21875 21.734375 -15.71875 22.921875 -16.71875 C 24.109375 -17.71875 24.703125 -19.128906 24.703125 -20.953125 Z M 24.703125 -20.953125 "/></g></g></g><g fill="#cb202d" fill-opacity="1"><g transform="translate(179.932042, 46.086253)"><g><path d="M 3.890625 -32.875 L 11.5 -32.875 L 11.5 0 L 3.890625 0 Z M 3.890625 -32.875 "/></g></g></g><g fill="#cb202d" fill-opacity="1"><g transform="translate(194.398231, 46.086253)"><g><path d="M 14.703125 0.5625 C 12.097656 0.5625 9.582031 0.210938 7.15625 -0.484375 C 4.726562 -1.191406 2.78125 -2.109375 1.3125 -3.234375 L 3.890625 -8.96875 C 5.304688 -7.9375 6.984375 -7.109375 8.921875 -6.484375 C 10.867188 -5.859375 12.8125 -5.546875 14.75 -5.546875 C 16.90625 -5.546875 18.5 -5.863281 19.53125 -6.5 C 20.570312 -7.144531 21.09375 -8 21.09375 -9.0625 C 21.09375 -9.84375 20.785156 -10.492188 20.171875 -11.015625 C 19.554688 -11.535156 18.769531 -11.953125 17.8125 -12.265625 C 16.863281 -12.578125 15.578125 -12.921875 13.953125 -13.296875 C 11.441406 -13.890625 9.390625 -14.484375 7.796875 -15.078125 C 6.203125 -15.671875 4.832031 -16.625 3.6875 -17.9375 C 2.539062 -19.257812 1.96875 -21.015625 1.96875 -23.203125 C 1.96875 -25.109375 2.484375 -26.835938 3.515625 -28.390625 C 4.554688 -29.941406 6.113281 -31.171875 8.1875 -32.078125 C 10.269531 -32.984375 12.816406 -33.4375 15.828125 -33.4375 C 17.921875 -33.4375 19.96875 -33.1875 21.96875 -32.6875 C 23.976562 -32.1875 25.734375 -31.46875 27.234375 -30.53125 L 24.890625 -24.75 C 21.859375 -26.46875 18.820312 -27.328125 15.78125 -27.328125 C 13.65625 -27.328125 12.082031 -26.984375 11.0625 -26.296875 C 10.039062 -25.609375 9.53125 -24.703125 9.53125 -23.578125 C 9.53125 -22.453125 10.117188 -21.613281 11.296875 -21.0625 C 12.472656 -20.519531 14.265625 -19.976562 16.671875 -19.4375 C 19.179688 -18.84375 21.234375 -18.25 22.828125 -17.65625 C 24.421875 -17.0625 25.789062 -16.125 26.9375 -14.84375 C 28.082031 -13.5625 28.65625 -11.820312 28.65625 -9.625 C 28.65625 -7.75 28.128906 -6.035156 27.078125 -4.484375 C 26.023438 -2.929688 24.445312 -1.703125 22.34375 -0.796875 C 20.25 0.109375 17.703125 0.5625 14.703125 0.5625 Z M 14.703125 0.5625 "/></g></g></g><g fill="#cb202d" fill-opacity="1"><g transform="translate(223.424715, 46.086253)"><g><path d="M 15.875 -12.921875 L 11.453125 -8.3125 L 11.453125 0 L 3.890625 0 L 3.890625 -32.875 L 11.453125 -32.875 L 11.453125 -17.515625 L 26.015625 -32.875 L 34.46875 -32.875 L 20.859375 -18.21875 L 35.28125 0 L 26.390625 0 Z M 15.875 -12.921875 "/></g></g></g><g fill="#cb202d" fill-opacity="1"><g transform="translate(257.242005, 46.086253)"><g><path d="M 6.15625 0.375 C 4.875 0.375 3.789062 -0.0625 2.90625 -0.9375 C 2.03125 -1.8125 1.59375 -2.910156 1.59375 -4.234375 C 1.59375 -5.578125 2.03125 -6.660156 2.90625 -7.484375 C 3.789062 -8.316406 4.875 -8.734375 6.15625 -8.734375 C 7.4375 -8.734375 8.515625 -8.316406 9.390625 -7.484375 C 10.265625 -6.660156 10.703125 -5.578125 10.703125 -4.234375 C 10.703125 -2.910156 10.265625 -1.8125 9.390625 -0.9375 C 8.515625 -0.0625 7.4375 0.375 6.15625 0.375 Z M 6.15625 0.375 "/></g></g></g></g></g><g clip-path="url(#b4ffca01f3)"><g transform="matrix(1, 0, 0, 1, 0, 272)"><g clip-path="url(#e223a13c84)"><g fill="#000000" fill-opacity="1"><g transform="translate(0.881504, 32.096247)"><g><path d="M 20.5625 -3.546875 L 20.5625 0 L 1.328125 0 L 1.328125 -2.796875 L 14.609375 -19.015625 L 1.546875 -19.015625 L 1.546875 -22.5625 L 20.140625 -22.5625 L 20.140625 -19.765625 L 6.859375 -3.546875 Z M 20.5625 -3.546875 "/></g></g></g><g fill="#000000" fill-opacity="1"><g transform="translate(21.602976, 32.096247)"><g><path d="M 19.953125 -3.515625 L 19.953125 0 L 3.03125 0 L 3.03125 -22.5625 L 19.5 -22.5625 L 19.5 -19.046875 L 7.21875 -19.046875 L 7.21875 -13.1875 L 18.109375 -13.1875 L 18.109375 -9.734375 L 7.21875 -9.734375 L 7.21875 -3.515625 Z M 19.953125 -3.515625 "/></g></g></g><g fill="#000000" fill-opacity="1"><g transform="translate(42.550035, 32.096247)"><g><path d="M 17.796875 0 L 13.1875 -6.609375 C 12.988281 -6.585938 12.695312 -6.578125 12.3125 -6.578125 L 7.21875 -6.578125 L 7.21875 0 L 3.03125 0 L 3.03125 -22.5625 L 12.3125 -22.5625 C 14.269531 -22.5625 15.972656 -22.238281 17.421875 -21.59375 C 18.867188 -20.945312 19.976562 -20.019531 20.75 -18.8125 C 21.53125 -17.613281 21.921875 -16.1875 21.921875 -14.53125 C 21.921875 -12.832031 21.503906 -11.367188 20.671875 -10.140625 C 19.847656 -8.921875 18.660156 -8.007812 17.109375 -7.40625 L 22.3125 0 Z M 17.703125 -14.53125 C 17.703125 -15.976562 17.226562 -17.085938 16.28125 -17.859375 C 15.332031 -18.628906 13.945312 -19.015625 12.125 -19.015625 L 7.21875 -19.015625 L 7.21875 -10.03125 L 12.125 -10.03125 C 13.945312 -10.03125 15.332031 -10.421875 16.28125 -11.203125 C 17.226562 -11.984375 17.703125 -13.09375 17.703125 -14.53125 Z M 17.703125 -14.53125 "/></g></g></g><g fill="#000000" fill-opacity="1"><g transform="translate(65.462913, 32.096247)"><g><path d="M 13.578125 0.328125 C 11.273438 0.328125 9.195312 -0.171875 7.34375 -1.171875 C 5.5 -2.171875 4.050781 -3.554688 3 -5.328125 C 1.945312 -7.109375 1.421875 -9.09375 1.421875 -11.28125 C 1.421875 -13.46875 1.945312 -15.445312 3 -17.21875 C 4.050781 -19 5.5 -20.390625 7.34375 -21.390625 C 9.195312 -22.390625 11.273438 -22.890625 13.578125 -22.890625 C 15.867188 -22.890625 17.9375 -22.390625 19.78125 -21.390625 C 21.632812 -20.390625 23.085938 -19.007812 24.140625 -17.25 C 25.191406 -15.488281 25.71875 -13.5 25.71875 -11.28125 C 25.71875 -9.070312 25.191406 -7.082031 24.140625 -5.3125 C 23.085938 -3.550781 21.632812 -2.171875 19.78125 -1.171875 C 17.9375 -0.171875 15.867188 0.328125 13.578125 0.328125 Z M 13.578125 -3.359375 C 15.078125 -3.359375 16.425781 -3.695312 17.625 -4.375 C 18.832031 -5.050781 19.78125 -5.992188 20.46875 -7.203125 C 21.15625 -8.421875 21.5 -9.78125 21.5 -11.28125 C 21.5 -12.78125 21.15625 -14.140625 20.46875 -15.359375 C 19.78125 -16.578125 18.832031 -17.523438 17.625 -18.203125 C 16.425781 -18.878906 15.078125 -19.21875 13.578125 -19.21875 C 12.066406 -19.21875 10.707031 -18.878906 9.5 -18.203125 C 8.300781 -17.523438 7.359375 -16.578125 6.671875 -15.359375 C 5.984375 -14.140625 5.640625 -12.78125 5.640625 -11.28125 C 5.640625 -9.78125 5.984375 -8.421875 6.671875 -7.203125 C 7.359375 -5.992188 8.300781 -5.050781 9.5 -4.375 C 10.707031 -3.695312 12.066406 -3.359375 13.578125 -3.359375 Z M 13.578125 -3.359375 "/></g></g></g><g fill="#cb202d" fill-opacity="1"><g transform="translate(91.959623, 32.096247)"><g/></g></g><g fill="#cb202d" fill-opacity="1"><g transform="translate(100.209416, 32.096247)"><g><path d="M 3.03125 -22.5625 L 7.21875 -22.5625 L 7.21875 0 L 3.03125 0 Z M 3.03125 -22.5625 "/></g></g></g><g fill="#cb202d" fill-opacity="1"><g transform="translate(109.844952, 32.096247)"><g><path d="M 23.078125 -22.5625 L 23.078125 0 L 19.625 0 L 7.1875 -15.28125 L 7.1875 0 L 3.03125 0 L 3.03125 -22.5625 L 6.484375 -22.5625 L 18.921875 -7.28125 L 18.921875 -22.5625 Z M 23.078125 -22.5625 "/></g></g></g><g fill="#cb202d" fill-opacity="1"><g transform="translate(135.303729, 32.096247)"><g><path d="M 23.65625 -22.5625 L 13.828125 0 L 9.703125 0 L -0.15625 -22.5625 L 4.390625 -22.5625 L 11.890625 -5.15625 L 19.46875 -22.5625 Z M 23.65625 -22.5625 "/></g></g></g><g fill="#cb202d" fill-opacity="1"><g transform="translate(158.152154, 32.096247)"><g><path d="M 19.953125 -3.515625 L 19.953125 0 L 3.03125 0 L 3.03125 -22.5625 L 19.5 -22.5625 L 19.5 -19.046875 L 7.21875 -19.046875 L 7.21875 -13.1875 L 18.109375 -13.1875 L 18.109375 -9.734375 L 7.21875 -9.734375 L 7.21875 -3.515625 Z M 19.953125 -3.515625 "/></g></g></g><g fill="#cb202d" fill-opacity="1"><g transform="translate(179.099212, 32.096247)"><g><path d="M 10.03125 0.328125 C 8.28125 0.328125 6.59375 0.0820312 4.96875 -0.40625 C 3.351562 -0.90625 2.070312 -1.566406 1.125 -2.390625 L 2.578125 -5.640625 C 3.503906 -4.910156 4.640625 -4.3125 5.984375 -3.84375 C 7.328125 -3.382812 8.675781 -3.15625 10.03125 -3.15625 C 11.707031 -3.15625 12.957031 -3.421875 13.78125 -3.953125 C 14.601562 -4.492188 15.015625 -5.207031 15.015625 -6.09375 C 15.015625 -6.738281 14.785156 -7.269531 14.328125 -7.6875 C 13.867188 -8.101562 13.28125 -8.429688 12.5625 -8.671875 C 11.851562 -8.910156 10.890625 -9.179688 9.671875 -9.484375 C 7.953125 -9.890625 6.5625 -10.296875 5.5 -10.703125 C 4.4375 -11.109375 3.519531 -11.742188 2.75 -12.609375 C 1.988281 -13.484375 1.609375 -14.664062 1.609375 -16.15625 C 1.609375 -17.394531 1.945312 -18.523438 2.625 -19.546875 C 3.300781 -20.566406 4.320312 -21.378906 5.6875 -21.984375 C 7.050781 -22.585938 8.722656 -22.890625 10.703125 -22.890625 C 12.078125 -22.890625 13.429688 -22.71875 14.765625 -22.375 C 16.097656 -22.03125 17.25 -21.535156 18.21875 -20.890625 L 16.890625 -17.625 C 15.898438 -18.207031 14.867188 -18.648438 13.796875 -18.953125 C 12.722656 -19.253906 11.679688 -19.40625 10.671875 -19.40625 C 9.015625 -19.40625 7.78125 -19.125 6.96875 -18.5625 C 6.164062 -18.007812 5.765625 -17.269531 5.765625 -16.34375 C 5.765625 -15.695312 5.992188 -15.171875 6.453125 -14.765625 C 6.921875 -14.359375 7.507812 -14.035156 8.21875 -13.796875 C 8.925781 -13.554688 9.894531 -13.285156 11.125 -12.984375 C 12.800781 -12.597656 14.175781 -12.195312 15.25 -11.78125 C 16.320312 -11.363281 17.238281 -10.722656 18 -9.859375 C 18.757812 -9.003906 19.140625 -7.84375 19.140625 -6.375 C 19.140625 -5.132812 18.800781 -4.007812 18.125 -3 C 17.445312 -1.988281 16.421875 -1.179688 15.046875 -0.578125 C 13.671875 0.0234375 12 0.328125 10.03125 0.328125 Z M 10.03125 0.328125 "/></g></g></g><g fill="#cb202d" fill-opacity="1"><g transform="translate(198.724981, 32.096247)"><g><path d="M 7.609375 -19.015625 L 0.125 -19.015625 L 0.125 -22.5625 L 19.28125 -22.5625 L 19.28125 -19.015625 L 11.796875 -19.015625 L 11.796875 0 L 7.609375 0 Z M 7.609375 -19.015625 "/></g></g></g><g fill="#cb202d" fill-opacity="1"><g transform="translate(217.480634, 32.096247)"><g><path d="M 23.75 0 L 23.71875 -14.953125 L 16.3125 -2.578125 L 14.4375 -2.578125 L 7.03125 -14.765625 L 7.03125 0 L 3.03125 0 L 3.03125 -22.5625 L 6.484375 -22.5625 L 15.4375 -7.609375 L 24.234375 -22.5625 L 27.6875 -22.5625 L 27.71875 0 Z M 23.75 0 "/></g></g></g><g fill="#cb202d" fill-opacity="1"><g transform="translate(247.612262, 32.096247)"><g><path d="M 19.953125 -3.515625 L 19.953125 0 L 3.03125 0 L 3.03125 -22.5625 L 19.5 -22.5625 L 19.5 -19.046875 L 7.21875 -19.046875 L 7.21875 -13.1875 L 18.109375 -13.1875 L 18.109375 -9.734375 L 7.21875 -9.734375 L 7.21875 -3.515625 Z M 19.953125 -3.515625 "/></g></g></g><g fill="#cb202d" fill-opacity="1"><g transform="translate(268.55932, 32.096247)"><g><path d="M 23.078125 -22.5625 L 23.078125 0 L 19.625 0 L 7.1875 -15.28125 L 7.1875 0 L 3.03125 0 L 3.03125 -22.5625 L 6.484375 -22.5625 L 18.921875 -7.28125 L 18.921875 -22.5625 Z M 23.078125 -22.5625 "/></g></g></g><g fill="#cb202d" fill-opacity="1"><g transform="translate(294.018097, 32.096247)"><g><path d="M 7.609375 -19.015625 L 0.125 -19.015625 L 0.125 -22.5625 L 19.28125 -22.5625 L 19.28125 -19.015625 L 11.796875 -19.015625 L 11.796875 0 L 7.609375 0 Z M 7.609375 -19.015625 "/></g></g></g><g fill="#cb202d" fill-opacity="1"><g transform="translate(312.773749, 32.096247)"><g><path d="M 3.9375 0.21875 C 3.207031 0.21875 2.582031 -0.03125 2.0625 -0.53125 C 1.550781 -1.039062 1.296875 -1.679688 1.296875 -2.453125 C 1.296875 -3.242188 1.546875 -3.882812 2.046875 -4.375 C 2.546875 -4.875 3.175781 -5.125 3.9375 -5.125 C 4.6875 -5.125 5.3125 -4.875 5.8125 -4.375 C 6.320312 -3.882812 6.578125 -3.242188 6.578125 -2.453125 C 6.578125 -1.679688 6.316406 -1.039062 5.796875 -0.53125 C 5.285156 -0.03125 4.664062 0.21875 3.9375 0.21875 Z M 3.9375 0.21875 "/></g></g></g></g></g></g></g></g></svg>