<svg xmlns="http://www.w3.org/2000/svg" xmlns:xlink="http://www.w3.org/1999/xlink" width="500" zoomAndPan="magnify" viewBox="0 0 375 374.999991" height="500" preserveAspectRatio="xMidYMid meet" version="1.0"><defs><g/><clipPath id="a356c23232"><path d="M 49.621094 7.6875 L 325.621094 7.6875 L 325.621094 288.1875 L 49.621094 288.1875 Z M 49.621094 7.6875 " clip-rule="nonzero"/></clipPath></defs><g clip-path="url(#a356c23232)"><path fill="#cb202d" d="M 85.082031 104.398438 L 85.082031 87.777344 C 85.082031 85.578125 86.878906 83.800781 89.074219 83.800781 C 91.269531 83.800781 93.03125 85.578125 93.03125 87.777344 L 93.03125 100.421875 L 102.675781 100.421875 C 104.871094 100.421875 106.667969 102.203125 106.667969 104.398438 C 106.667969 106.59375 104.871094 108.375 102.675781 108.375 L 89.074219 108.375 C 86.878906 108.375 85.082031 106.59375 85.082031 104.398438 Z M 188.964844 7.699219 L 186.0625 7.699219 C 161.4375 8.46875 141.640625 28.734375 141.640625 53.539062 C 141.640625 78.828125 162.21875 99.40625 187.515625 99.40625 C 212.808594 99.40625 233.386719 78.828125 233.386719 53.539062 C 233.386719 28.734375 213.589844 8.46875 188.964844 7.699219 Z M 57.84375 108.375 C 59.644531 122.566406 70.90625 133.835938 85.082031 135.632812 L 85.082031 132.421875 C 85.082031 130.226562 86.878906 128.449219 89.074219 128.449219 C 91.269531 128.449219 93.03125 130.226562 93.03125 132.421875 L 93.03125 135.632812 C 107.246094 133.835938 118.507812 122.566406 120.304688 108.375 L 117.101562 108.375 C 114.910156 108.375 113.109375 106.59375 113.109375 104.398438 C 113.109375 102.199219 114.910156 100.417969 117.101562 100.417969 L 120.304688 100.417969 C 118.507812 86.230469 107.246094 74.960938 93.03125 73.160156 L 93.03125 76.371094 C 93.03125 78.570312 91.269531 80.351562 89.074219 80.351562 C 86.878906 80.351562 85.082031 78.570312 85.082031 76.371094 L 85.082031 73.160156 C 70.90625 74.960938 59.644531 86.230469 57.84375 100.417969 L 61.046875 100.417969 C 63.242188 100.417969 65.003906 102.199219 65.003906 104.398438 C 65.003906 106.59375 63.242188 108.375 61.046875 108.375 Z M 128.507812 104.398438 C 128.507812 82.644531 110.804688 64.949219 89.074219 64.949219 C 67.304688 64.949219 49.605469 82.648438 49.605469 104.398438 C 49.605469 126.148438 67.308594 143.847656 89.074219 143.847656 C 110.804688 143.847656 128.507812 126.148438 128.507812 104.398438 Z M 289.191406 102.117188 C 290.199219 103.566406 290.164062 105.503906 289.046875 106.882812 L 282.140625 115.535156 C 280.761719 117.25 278.273438 117.523438 276.527344 116.15625 C 274.800781 114.785156 274.546875 112.28125 275.914062 110.566406 L 280.988281 104.238281 L 270.589844 89.375 C 269.292969 87.574219 269.761719 85.097656 271.5625 83.835938 C 273.359375 82.578125 275.84375 83.011719 277.066406 84.816406 Z M 289.910156 135.632812 C 304.085938 133.839844 315.386719 122.566406 317.183594 108.375 L 313.980469 108.375 C 311.785156 108.375 309.988281 106.59375 309.988281 104.398438 C 309.988281 102.203125 311.785156 100.421875 313.980469 100.421875 L 317.183594 100.421875 C 315.386719 86.230469 304.085938 74.960938 289.910156 73.164062 L 289.910156 76.371094 C 289.910156 78.570312 288.148438 80.351562 285.953125 80.351562 C 283.757812 80.351562 281.960938 78.570312 281.960938 76.371094 L 281.960938 73.164062 C 267.785156 74.960938 256.523438 86.230469 254.6875 100.421875 L 257.925781 100.421875 C 260.121094 100.421875 261.882812 102.203125 261.882812 104.398438 C 261.882812 106.59375 260.121094 108.375 257.925781 108.375 L 254.6875 108.375 C 256.523438 122.566406 267.785156 133.839844 281.960938 135.632812 L 281.960938 132.425781 C 281.960938 130.226562 283.757812 128.449219 285.953125 128.449219 C 288.148438 128.449219 289.910156 130.226562 289.910156 132.425781 Z M 285.953125 64.949219 C 264.1875 64.949219 246.484375 82.644531 246.484375 104.398438 C 246.484375 126.148438 264.1875 143.847656 285.953125 143.847656 C 307.683594 143.847656 325.386719 126.148438 325.386719 104.398438 C 325.386719 82.644531 307.683594 64.949219 285.953125 64.949219 Z M 206.152344 162.351562 C 206.152344 172.636719 197.769531 181.003906 187.515625 181.003906 C 177.222656 181.003906 168.839844 172.636719 168.839844 162.351562 C 168.839844 152.070312 177.222656 143.699219 187.515625 143.699219 C 197.769531 143.699219 206.152344 152.066406 206.152344 162.351562 Z M 160.890625 162.351562 C 160.890625 177.019531 172.835938 188.957031 187.515625 188.957031 C 202.15625 188.957031 214.101562 177.019531 214.101562 162.351562 C 214.101562 147.683594 202.15625 135.75 187.515625 135.75 C 172.835938 135.75 160.890625 147.683594 160.890625 162.351562 Z M 257.960938 168.664062 C 259.257812 167.164062 259.90625 165.234375 259.761719 163.230469 C 259.28125 156.574219 251.007812 153.832031 246.664062 158.828125 L 210.613281 200.246094 C 204.605469 207.128906 196.617188 210.761719 187.515625 210.761719 C 178.375 210.761719 170.386719 207.128906 164.414062 200.246094 L 128.363281 158.828125 C 123.949219 153.8125 115.644531 156.648438 115.230469 163.230469 C 115.125 165.234375 115.734375 167.160156 117.066406 168.664062 L 151.785156 210.816406 C 155.886719 215.785156 158.15625 221.257812 158.695312 227.476562 L 159.304688 227.476562 C 164.738281 227.476562 169.164062 231.894531 169.164062 237.324219 L 169.164062 278.488281 C 169.164062 279.140625 169.09375 279.773438 168.984375 280.390625 L 211.585938 280.390625 C 214.140625 280.390625 216.226562 278.320312 216.226562 275.777344 L 216.226562 230.296875 C 216.226562 222.894531 218.492188 216.523438 223.207031 210.816406 Z M 92.960938 280.390625 C 91.917969 280.390625 91.054688 279.519531 91.054688 278.488281 L 91.054688 243.917969 L 122.140625 260.308594 L 122.140625 261.828125 C 122.140625 264.027344 123.9375 265.800781 126.132812 265.800781 C 128.328125 265.800781 130.089844 264.027344 130.089844 261.828125 L 130.089844 260.308594 L 161.214844 243.917969 L 161.214844 278.488281 C 161.214844 279.519531 160.347656 280.390625 159.304688 280.390625 Z M 159.304688 235.429688 L 159.988281 235.566406 L 130.089844 251.328125 C 129.582031 246.628906 122.683594 246.628906 122.175781 251.328125 L 92.277344 235.566406 L 92.960938 235.429688 Z M 118.9375 221.875 C 118.9375 221.082031 119.1875 220.539062 119.367188 220.308594 L 132.898438 220.308594 C 133.042969 220.539062 133.328125 221.082031 133.328125 221.875 L 133.328125 227.472656 L 118.9375 227.472656 Z M 262.460938 152.097656 C 268.902344 157.722656 269.535156 167.273438 263.972656 173.839844 L 229.359375 215.871094 C 225.796875 220.160156 224.175781 224.738281 224.175781 230.292969 L 224.175781 275.777344 C 224.175781 282.707031 218.527344 288.34375 211.585938 288.34375 L 163.410156 288.34375 C 162.6875 288.34375 161.96875 288.273438 161.25 288.148438 C 160.636719 288.277344 159.992188 288.34375 159.304688 288.34375 L 92.960938 288.34375 C 87.527344 288.34375 83.101562 283.921875 83.101562 278.488281 L 83.101562 237.324219 C 83.101562 231.890625 87.527344 227.472656 92.960938 227.472656 L 110.984375 227.472656 L 110.984375 221.875 C 110.984375 216.535156 114.546875 212.355469 119.046875 212.355469 L 133.1875 212.355469 C 137.71875 212.355469 141.28125 216.535156 141.28125 221.875 L 141.28125 227.472656 L 150.671875 227.472656 C 150.203125 223.148438 148.585938 219.410156 145.671875 215.871094 L 111.023438 173.839844 C 108.359375 170.746094 107.027344 166.785156 107.316406 162.679688 C 108.277344 148.914062 125.386719 143.324219 134.335938 153.609375 L 170.386719 195.019531 C 174.882812 200.191406 180.640625 202.8125 187.511719 202.8125 C 194.347656 202.8125 200.105469 200.191406 204.601562 195.019531 L 240.65625 153.609375 C 246.234375 147.1875 256.019531 146.511719 262.460938 152.097656 Z M 184.382812 56.023438 C 183.304688 54.644531 183.234375 52.703125 184.238281 51.257812 L 198.558594 30.824219 C 199.820312 29.027344 202.300781 28.585938 204.101562 29.847656 C 205.898438 31.109375 206.332031 33.589844 205.070312 35.386719 L 192.480469 53.378906 L 198.777344 61.269531 C 200.878906 63.910156 198.933594 67.734375 195.683594 67.734375 C 194.53125 67.734375 193.34375 67.222656 192.585938 66.238281 Z M 183.519531 15.835938 L 183.519531 20.535156 C 183.519531 22.734375 185.320312 24.511719 187.515625 24.511719 C 189.707031 24.511719 191.472656 22.734375 191.472656 20.535156 L 191.472656 15.835938 C 209.210938 17.695312 223.347656 31.828125 225.21875 49.5625 L 220.507812 49.5625 C 218.3125 49.5625 216.515625 51.34375 216.515625 53.539062 C 216.515625 55.738281 218.3125 57.515625 220.507812 57.515625 L 225.21875 57.515625 C 223.347656 75.253906 209.210938 89.386719 191.472656 91.242188 L 191.472656 86.542969 C 191.472656 84.347656 189.707031 82.566406 187.515625 82.566406 C 185.320312 82.566406 183.519531 84.347656 183.519531 86.542969 L 183.519531 91.242188 C 165.78125 89.382812 151.644531 75.25 149.808594 57.515625 L 154.484375 57.515625 C 156.714844 57.515625 158.476562 55.738281 158.476562 53.539062 C 158.476562 51.34375 156.714844 49.5625 154.484375 49.5625 L 149.808594 49.5625 C 151.644531 31.828125 165.78125 17.695312 183.519531 15.835938 Z M 183.519531 15.835938 " fill-opacity="1" fill-rule="evenodd"/></g><g fill="#000000" fill-opacity="1"><g transform="translate(21.804027, 335.608836)"><g><path d="M 9.703125 -27.734375 L 9.703125 -18.109375 L 21.90625 -18.109375 L 21.90625 -13.265625 L 9.703125 -13.265625 L 9.703125 0 L 3.625 0 L 3.625 -32.5625 L 24.15625 -32.5625 L 24.15625 -27.734375 Z M 9.703125 -27.734375 "/></g></g></g><g fill="#000000" fill-opacity="1"><g transform="translate(46.161608, 335.608836)"><g><path d="M 8.375 -33.453125 L 8.375 0 L 2.8125 0 L 2.8125 -33.453125 Z M 8.375 -33.453125 "/></g></g></g><g fill="#000000" fill-opacity="1"><g transform="translate(56.224202, 335.608836)"><g><path d="M 17.625 -14.203125 C 17.625 -14.921875 17.519531 -15.597656 17.3125 -16.234375 C 17.113281 -16.878906 16.8125 -17.441406 16.40625 -17.921875 C 16.007812 -18.398438 15.5 -18.773438 14.875 -19.046875 C 14.25 -19.328125 13.523438 -19.46875 12.703125 -19.46875 C 11.097656 -19.46875 9.832031 -19.007812 8.90625 -18.09375 C 7.976562 -17.1875 7.390625 -15.890625 7.140625 -14.203125 Z M 7.03125 -10.859375 C 7.113281 -9.671875 7.320312 -8.644531 7.65625 -7.78125 C 7.988281 -6.914062 8.421875 -6.203125 8.953125 -5.640625 C 9.492188 -5.078125 10.132812 -4.65625 10.875 -4.375 C 11.625 -4.101562 12.453125 -3.96875 13.359375 -3.96875 C 14.253906 -3.96875 15.023438 -4.070312 15.671875 -4.28125 C 16.328125 -4.488281 16.898438 -4.71875 17.390625 -4.96875 C 17.878906 -5.226562 18.304688 -5.460938 18.671875 -5.671875 C 19.046875 -5.878906 19.40625 -5.984375 19.75 -5.984375 C 20.207031 -5.984375 20.550781 -5.8125 20.78125 -5.46875 L 22.375 -3.4375 C 21.757812 -2.71875 21.066406 -2.113281 20.296875 -1.625 C 19.535156 -1.144531 18.738281 -0.753906 17.90625 -0.453125 C 17.070312 -0.160156 16.222656 0.0390625 15.359375 0.15625 C 14.503906 0.28125 13.671875 0.34375 12.859375 0.34375 C 11.253906 0.34375 9.757812 0.078125 8.375 -0.453125 C 6.988281 -0.992188 5.785156 -1.785156 4.765625 -2.828125 C 3.753906 -3.867188 2.953125 -5.15625 2.359375 -6.6875 C 1.773438 -8.226562 1.484375 -10.015625 1.484375 -12.046875 C 1.484375 -13.617188 1.738281 -15.097656 2.25 -16.484375 C 2.757812 -17.878906 3.488281 -19.085938 4.4375 -20.109375 C 5.394531 -21.140625 6.5625 -21.957031 7.9375 -22.5625 C 9.3125 -23.164062 10.863281 -23.46875 12.59375 -23.46875 C 14.039062 -23.46875 15.378906 -23.234375 16.609375 -22.765625 C 17.847656 -22.296875 18.910156 -21.613281 19.796875 -20.71875 C 20.679688 -19.832031 21.375 -18.738281 21.875 -17.4375 C 22.375 -16.132812 22.625 -14.648438 22.625 -12.984375 C 22.625 -12.148438 22.535156 -11.585938 22.359375 -11.296875 C 22.179688 -11.003906 21.835938 -10.859375 21.328125 -10.859375 Z M 7.03125 -10.859375 "/></g></g></g><g fill="#000000" fill-opacity="1"><g transform="translate(79.141029, 335.608836)"><g><path d="M 23.375 0 L 18.015625 0 C 17.609375 0 17.28125 -0.101562 17.03125 -0.3125 C 16.78125 -0.519531 16.570312 -0.757812 16.40625 -1.03125 L 11.53125 -9.078125 C 11.457031 -8.816406 11.367188 -8.570312 11.265625 -8.34375 C 11.171875 -8.125 11.0625 -7.914062 10.9375 -7.71875 L 6.625 -1.03125 C 6.457031 -0.78125 6.253906 -0.546875 6.015625 -0.328125 C 5.773438 -0.109375 5.472656 0 5.109375 0 L 0.140625 0 L 8.0625 -11.90625 L 0.453125 -23.09375 L 5.8125 -23.09375 C 6.21875 -23.09375 6.515625 -23.035156 6.703125 -22.921875 C 6.898438 -22.816406 7.078125 -22.632812 7.234375 -22.375 L 12.0625 -14.6875 C 12.226562 -15.195312 12.460938 -15.695312 12.765625 -16.1875 L 16.65625 -22.265625 C 16.988281 -22.816406 17.414062 -23.09375 17.9375 -23.09375 L 23.0625 -23.09375 L 15.46875 -12.15625 Z M 23.375 0 "/></g></g></g><g fill="#000000" fill-opacity="1"><g transform="translate(101.517569, 335.608836)"><g><path d="M 8.515625 -23.09375 L 8.515625 0 L 2.921875 0 L 2.921875 -23.09375 Z M 9.28125 -29.828125 C 9.28125 -29.347656 9.179688 -28.898438 8.984375 -28.484375 C 8.785156 -28.066406 8.523438 -27.695312 8.203125 -27.375 C 7.878906 -27.0625 7.5 -26.8125 7.0625 -26.625 C 6.632812 -26.4375 6.171875 -26.34375 5.671875 -26.34375 C 5.191406 -26.34375 4.738281 -26.4375 4.3125 -26.625 C 3.882812 -26.8125 3.507812 -27.0625 3.1875 -27.375 C 2.875 -27.695312 2.625 -28.066406 2.4375 -28.484375 C 2.25 -28.898438 2.15625 -29.347656 2.15625 -29.828125 C 2.15625 -30.328125 2.25 -30.789062 2.4375 -31.21875 C 2.625 -31.65625 2.875 -32.03125 3.1875 -32.34375 C 3.507812 -32.664062 3.882812 -32.921875 4.3125 -33.109375 C 4.738281 -33.296875 5.191406 -33.390625 5.671875 -33.390625 C 6.171875 -33.390625 6.632812 -33.296875 7.0625 -33.109375 C 7.5 -32.921875 7.878906 -32.664062 8.203125 -32.34375 C 8.523438 -32.03125 8.785156 -31.65625 8.984375 -31.21875 C 9.179688 -30.789062 9.28125 -30.328125 9.28125 -29.828125 Z M 9.28125 -29.828125 "/></g></g></g><g fill="#000000" fill-opacity="1"><g transform="translate(111.827802, 335.608836)"><g><path d="M 8.3125 -5.984375 C 8.9375 -5.222656 9.617188 -4.679688 10.359375 -4.359375 C 11.109375 -4.046875 11.894531 -3.890625 12.71875 -3.890625 C 13.570312 -3.890625 14.335938 -4.039062 15.015625 -4.34375 C 15.703125 -4.65625 16.285156 -5.140625 16.765625 -5.796875 C 17.253906 -6.453125 17.625 -7.285156 17.875 -8.296875 C 18.132812 -9.304688 18.265625 -10.519531 18.265625 -11.9375 C 18.265625 -14.46875 17.84375 -16.300781 17 -17.4375 C 16.15625 -18.570312 14.945312 -19.140625 13.375 -19.140625 C 12.3125 -19.140625 11.378906 -18.894531 10.578125 -18.40625 C 9.785156 -17.914062 9.03125 -17.226562 8.3125 -16.34375 Z M 8.3125 -20.265625 C 9.238281 -21.242188 10.269531 -22.019531 11.40625 -22.59375 C 12.539062 -23.175781 13.832031 -23.46875 15.28125 -23.46875 C 16.625 -23.46875 17.832031 -23.203125 18.90625 -22.671875 C 19.976562 -22.148438 20.890625 -21.394531 21.640625 -20.40625 C 22.398438 -19.425781 22.984375 -18.238281 23.390625 -16.84375 C 23.796875 -15.445312 24 -13.878906 24 -12.140625 C 24 -10.265625 23.765625 -8.5625 23.296875 -7.03125 C 22.835938 -5.5 22.175781 -4.1875 21.3125 -3.09375 C 20.445312 -2.007812 19.40625 -1.164062 18.1875 -0.5625 C 16.976562 0.0390625 15.628906 0.34375 14.140625 0.34375 C 13.421875 0.34375 12.765625 0.269531 12.171875 0.125 C 11.585938 -0.0195312 11.046875 -0.21875 10.546875 -0.46875 C 10.054688 -0.726562 9.601562 -1.039062 9.1875 -1.40625 C 8.78125 -1.769531 8.390625 -2.179688 8.015625 -2.640625 L 7.765625 -1.078125 C 7.671875 -0.691406 7.515625 -0.414062 7.296875 -0.25 C 7.085938 -0.0820312 6.796875 0 6.421875 0 L 2.75 0 L 2.75 -33.453125 L 8.3125 -33.453125 Z M 8.3125 -20.265625 "/></g></g></g><g fill="#000000" fill-opacity="1"><g transform="translate(136.252914, 335.608836)"><g><path d="M 8.375 -33.453125 L 8.375 0 L 2.8125 0 L 2.8125 -33.453125 Z M 8.375 -33.453125 "/></g></g></g><g fill="#000000" fill-opacity="1"><g transform="translate(146.315509, 335.608836)"><g><path d="M 17.625 -14.203125 C 17.625 -14.921875 17.519531 -15.597656 17.3125 -16.234375 C 17.113281 -16.878906 16.8125 -17.441406 16.40625 -17.921875 C 16.007812 -18.398438 15.5 -18.773438 14.875 -19.046875 C 14.25 -19.328125 13.523438 -19.46875 12.703125 -19.46875 C 11.097656 -19.46875 9.832031 -19.007812 8.90625 -18.09375 C 7.976562 -17.1875 7.390625 -15.890625 7.140625 -14.203125 Z M 7.03125 -10.859375 C 7.113281 -9.671875 7.320312 -8.644531 7.65625 -7.78125 C 7.988281 -6.914062 8.421875 -6.203125 8.953125 -5.640625 C 9.492188 -5.078125 10.132812 -4.65625 10.875 -4.375 C 11.625 -4.101562 12.453125 -3.96875 13.359375 -3.96875 C 14.253906 -3.96875 15.023438 -4.070312 15.671875 -4.28125 C 16.328125 -4.488281 16.898438 -4.71875 17.390625 -4.96875 C 17.878906 -5.226562 18.304688 -5.460938 18.671875 -5.671875 C 19.046875 -5.878906 19.40625 -5.984375 19.75 -5.984375 C 20.207031 -5.984375 20.550781 -5.8125 20.78125 -5.46875 L 22.375 -3.4375 C 21.757812 -2.71875 21.066406 -2.113281 20.296875 -1.625 C 19.535156 -1.144531 18.738281 -0.753906 17.90625 -0.453125 C 17.070312 -0.160156 16.222656 0.0390625 15.359375 0.15625 C 14.503906 0.28125 13.671875 0.34375 12.859375 0.34375 C 11.253906 0.34375 9.757812 0.078125 8.375 -0.453125 C 6.988281 -0.992188 5.785156 -1.785156 4.765625 -2.828125 C 3.753906 -3.867188 2.953125 -5.15625 2.359375 -6.6875 C 1.773438 -8.226562 1.484375 -10.015625 1.484375 -12.046875 C 1.484375 -13.617188 1.738281 -15.097656 2.25 -16.484375 C 2.757812 -17.878906 3.488281 -19.085938 4.4375 -20.109375 C 5.394531 -21.140625 6.5625 -21.957031 7.9375 -22.5625 C 9.3125 -23.164062 10.863281 -23.46875 12.59375 -23.46875 C 14.039062 -23.46875 15.378906 -23.234375 16.609375 -22.765625 C 17.847656 -22.296875 18.910156 -21.613281 19.796875 -20.71875 C 20.679688 -19.832031 21.375 -18.738281 21.875 -17.4375 C 22.375 -16.132812 22.625 -14.648438 22.625 -12.984375 C 22.625 -12.148438 22.535156 -11.585938 22.359375 -11.296875 C 22.179688 -11.003906 21.835938 -10.859375 21.328125 -10.859375 Z M 7.03125 -10.859375 "/></g></g></g><g fill="#000000" fill-opacity="1"><g transform="translate(169.232335, 335.608836)"><g/></g></g><g fill="#cb202d" fill-opacity="1"><g transform="translate(179.057927, 335.608836)"><g><path d="M 20.96875 -26.640625 C 20.78125 -26.316406 20.582031 -26.082031 20.375 -25.9375 C 20.175781 -25.800781 19.929688 -25.734375 19.640625 -25.734375 C 19.316406 -25.734375 18.972656 -25.847656 18.609375 -26.078125 C 18.242188 -26.316406 17.804688 -26.578125 17.296875 -26.859375 C 16.785156 -27.140625 16.1875 -27.394531 15.5 -27.625 C 14.820312 -27.863281 14.015625 -27.984375 13.078125 -27.984375 C 12.242188 -27.984375 11.507812 -27.878906 10.875 -27.671875 C 10.238281 -27.472656 9.707031 -27.191406 9.28125 -26.828125 C 8.851562 -26.472656 8.535156 -26.046875 8.328125 -25.546875 C 8.117188 -25.046875 8.015625 -24.492188 8.015625 -23.890625 C 8.015625 -23.117188 8.226562 -22.476562 8.65625 -21.96875 C 9.082031 -21.457031 9.648438 -21.019531 10.359375 -20.65625 C 11.066406 -20.300781 11.867188 -19.976562 12.765625 -19.6875 C 13.671875 -19.40625 14.59375 -19.101562 15.53125 -18.78125 C 16.476562 -18.46875 17.398438 -18.09375 18.296875 -17.65625 C 19.203125 -17.226562 20.003906 -16.6875 20.703125 -16.03125 C 21.410156 -15.382812 21.976562 -14.585938 22.40625 -13.640625 C 22.84375 -12.691406 23.0625 -11.546875 23.0625 -10.203125 C 23.0625 -8.734375 22.804688 -7.351562 22.296875 -6.0625 C 21.796875 -4.78125 21.0625 -3.660156 20.09375 -2.703125 C 19.125 -1.753906 17.941406 -1.003906 16.546875 -0.453125 C 15.148438 0.0859375 13.550781 0.359375 11.75 0.359375 C 10.71875 0.359375 9.695312 0.253906 8.6875 0.046875 C 7.6875 -0.148438 6.722656 -0.4375 5.796875 -0.8125 C 4.867188 -1.1875 4 -1.632812 3.1875 -2.15625 C 2.382812 -2.6875 1.664062 -3.273438 1.03125 -3.921875 L 2.8125 -6.828125 C 2.96875 -7.035156 3.164062 -7.207031 3.40625 -7.34375 C 3.644531 -7.488281 3.898438 -7.5625 4.171875 -7.5625 C 4.546875 -7.5625 4.945312 -7.40625 5.375 -7.09375 C 5.8125 -6.789062 6.328125 -6.453125 6.921875 -6.078125 C 7.523438 -5.703125 8.226562 -5.359375 9.03125 -5.046875 C 9.84375 -4.742188 10.8125 -4.59375 11.9375 -4.59375 C 13.65625 -4.59375 14.988281 -5 15.9375 -5.8125 C 16.882812 -6.632812 17.359375 -7.8125 17.359375 -9.34375 C 17.359375 -10.195312 17.144531 -10.894531 16.71875 -11.4375 C 16.289062 -11.976562 15.722656 -12.429688 15.015625 -12.796875 C 14.304688 -13.171875 13.5 -13.484375 12.59375 -13.734375 C 11.695312 -13.992188 10.785156 -14.269531 9.859375 -14.5625 C 8.929688 -14.863281 8.015625 -15.222656 7.109375 -15.640625 C 6.210938 -16.066406 5.410156 -16.617188 4.703125 -17.296875 C 3.992188 -17.972656 3.425781 -18.816406 3 -19.828125 C 2.570312 -20.835938 2.359375 -22.085938 2.359375 -23.578125 C 2.359375 -24.765625 2.59375 -25.921875 3.0625 -27.046875 C 3.539062 -28.171875 4.226562 -29.164062 5.125 -30.03125 C 6.03125 -30.90625 7.144531 -31.601562 8.46875 -32.125 C 9.789062 -32.65625 11.304688 -32.921875 13.015625 -32.921875 C 14.929688 -32.921875 16.703125 -32.617188 18.328125 -32.015625 C 19.953125 -31.410156 21.332031 -30.570312 22.46875 -29.5 Z M 20.96875 -26.640625 "/></g></g></g><g fill="#cb202d" fill-opacity="1"><g transform="translate(202.627593, 335.608836)"><g><path d="M 19.296875 -18.21875 C 19.128906 -18.007812 18.96875 -17.84375 18.8125 -17.71875 C 18.65625 -17.601562 18.425781 -17.546875 18.125 -17.546875 C 17.84375 -17.546875 17.566406 -17.628906 17.296875 -17.796875 C 17.023438 -17.972656 16.703125 -18.164062 16.328125 -18.375 C 15.953125 -18.59375 15.503906 -18.789062 14.984375 -18.96875 C 14.460938 -19.144531 13.820312 -19.234375 13.0625 -19.234375 C 12.082031 -19.234375 11.222656 -19.054688 10.484375 -18.703125 C 9.753906 -18.347656 9.144531 -17.835938 8.65625 -17.171875 C 8.164062 -16.515625 7.800781 -15.71875 7.5625 -14.78125 C 7.320312 -13.84375 7.203125 -12.78125 7.203125 -11.59375 C 7.203125 -10.363281 7.332031 -9.269531 7.59375 -8.3125 C 7.863281 -7.351562 8.242188 -6.546875 8.734375 -5.890625 C 9.234375 -5.234375 9.832031 -4.734375 10.53125 -4.390625 C 11.238281 -4.054688 12.035156 -3.890625 12.921875 -3.890625 C 13.804688 -3.890625 14.519531 -4 15.0625 -4.21875 C 15.613281 -4.4375 16.078125 -4.675781 16.453125 -4.9375 C 16.828125 -5.207031 17.15625 -5.445312 17.4375 -5.65625 C 17.71875 -5.875 18.03125 -5.984375 18.375 -5.984375 C 18.820312 -5.984375 19.160156 -5.8125 19.390625 -5.46875 L 20.984375 -3.4375 C 20.367188 -2.71875 19.703125 -2.113281 18.984375 -1.625 C 18.265625 -1.144531 17.515625 -0.753906 16.734375 -0.453125 C 15.960938 -0.160156 15.164062 0.0390625 14.34375 0.15625 C 13.53125 0.28125 12.71875 0.34375 11.90625 0.34375 C 10.476562 0.34375 9.132812 0.078125 7.875 -0.453125 C 6.613281 -0.992188 5.507812 -1.773438 4.5625 -2.796875 C 3.625 -3.816406 2.878906 -5.066406 2.328125 -6.546875 C 1.785156 -8.023438 1.515625 -9.707031 1.515625 -11.59375 C 1.515625 -13.289062 1.753906 -14.863281 2.234375 -16.3125 C 2.722656 -17.757812 3.441406 -19.007812 4.390625 -20.0625 C 5.335938 -21.125 6.507812 -21.957031 7.90625 -22.5625 C 9.300781 -23.164062 10.90625 -23.46875 12.71875 -23.46875 C 14.445312 -23.46875 15.957031 -23.1875 17.25 -22.625 C 18.550781 -22.070312 19.722656 -21.273438 20.765625 -20.234375 Z M 19.296875 -18.21875 "/></g></g></g><g fill="#cb202d" fill-opacity="1"><g transform="translate(223.203188, 335.608836)"><g><path d="M 8.3125 -20.625 C 9.207031 -21.46875 10.195312 -22.148438 11.28125 -22.671875 C 12.363281 -23.203125 13.628906 -23.46875 15.078125 -23.46875 C 16.347656 -23.46875 17.46875 -23.25 18.4375 -22.8125 C 19.414062 -22.382812 20.226562 -21.785156 20.875 -21.015625 C 21.53125 -20.242188 22.023438 -19.320312 22.359375 -18.25 C 22.703125 -17.175781 22.875 -15.992188 22.875 -14.703125 L 22.875 0 L 17.3125 0 L 17.3125 -14.703125 C 17.3125 -16.109375 16.988281 -17.195312 16.34375 -17.96875 C 15.695312 -18.75 14.710938 -19.140625 13.390625 -19.140625 C 12.429688 -19.140625 11.53125 -18.921875 10.6875 -18.484375 C 9.851562 -18.046875 9.0625 -17.453125 8.3125 -16.703125 L 8.3125 0 L 2.75 0 L 2.75 -33.453125 L 8.3125 -33.453125 Z M 8.3125 -20.625 "/></g></g></g><g fill="#cb202d" fill-opacity="1"><g transform="translate(247.470715, 335.608836)"><g><path d="M 17.625 -14.203125 C 17.625 -14.921875 17.519531 -15.597656 17.3125 -16.234375 C 17.113281 -16.878906 16.8125 -17.441406 16.40625 -17.921875 C 16.007812 -18.398438 15.5 -18.773438 14.875 -19.046875 C 14.25 -19.328125 13.523438 -19.46875 12.703125 -19.46875 C 11.097656 -19.46875 9.832031 -19.007812 8.90625 -18.09375 C 7.976562 -17.1875 7.390625 -15.890625 7.140625 -14.203125 Z M 7.03125 -10.859375 C 7.113281 -9.671875 7.320312 -8.644531 7.65625 -7.78125 C 7.988281 -6.914062 8.421875 -6.203125 8.953125 -5.640625 C 9.492188 -5.078125 10.132812 -4.65625 10.875 -4.375 C 11.625 -4.101562 12.453125 -3.96875 13.359375 -3.96875 C 14.253906 -3.96875 15.023438 -4.070312 15.671875 -4.28125 C 16.328125 -4.488281 16.898438 -4.71875 17.390625 -4.96875 C 17.878906 -5.226562 18.304688 -5.460938 18.671875 -5.671875 C 19.046875 -5.878906 19.40625 -5.984375 19.75 -5.984375 C 20.207031 -5.984375 20.550781 -5.8125 20.78125 -5.46875 L 22.375 -3.4375 C 21.757812 -2.71875 21.066406 -2.113281 20.296875 -1.625 C 19.535156 -1.144531 18.738281 -0.753906 17.90625 -0.453125 C 17.070312 -0.160156 16.222656 0.0390625 15.359375 0.15625 C 14.503906 0.28125 13.671875 0.34375 12.859375 0.34375 C 11.253906 0.34375 9.757812 0.078125 8.375 -0.453125 C 6.988281 -0.992188 5.785156 -1.785156 4.765625 -2.828125 C 3.753906 -3.867188 2.953125 -5.15625 2.359375 -6.6875 C 1.773438 -8.226562 1.484375 -10.015625 1.484375 -12.046875 C 1.484375 -13.617188 1.738281 -15.097656 2.25 -16.484375 C 2.757812 -17.878906 3.488281 -19.085938 4.4375 -20.109375 C 5.394531 -21.140625 6.5625 -21.957031 7.9375 -22.5625 C 9.3125 -23.164062 10.863281 -23.46875 12.59375 -23.46875 C 14.039062 -23.46875 15.378906 -23.234375 16.609375 -22.765625 C 17.847656 -22.296875 18.910156 -21.613281 19.796875 -20.71875 C 20.679688 -19.832031 21.375 -18.738281 21.875 -17.4375 C 22.375 -16.132812 22.625 -14.648438 22.625 -12.984375 C 22.625 -12.148438 22.535156 -11.585938 22.359375 -11.296875 C 22.179688 -11.003906 21.835938 -10.859375 21.328125 -10.859375 Z M 7.03125 -10.859375 "/></g></g></g><g fill="#cb202d" fill-opacity="1"><g transform="translate(270.387542, 335.608836)"><g><path d="M 17.25 -17.203125 C 16.613281 -17.960938 15.925781 -18.5 15.1875 -18.8125 C 14.445312 -19.132812 13.644531 -19.296875 12.78125 -19.296875 C 11.945312 -19.296875 11.191406 -19.132812 10.515625 -18.8125 C 9.835938 -18.5 9.257812 -18.023438 8.78125 -17.390625 C 8.300781 -16.753906 7.929688 -15.941406 7.671875 -14.953125 C 7.421875 -13.972656 7.296875 -12.816406 7.296875 -11.484375 C 7.296875 -10.128906 7.40625 -8.984375 7.625 -8.046875 C 7.84375 -7.109375 8.148438 -6.34375 8.546875 -5.75 C 8.953125 -5.15625 9.445312 -4.726562 10.03125 -4.46875 C 10.625 -4.207031 11.28125 -4.078125 12 -4.078125 C 13.15625 -4.078125 14.140625 -4.316406 14.953125 -4.796875 C 15.765625 -5.273438 16.53125 -5.957031 17.25 -6.84375 Z M 22.8125 -33.453125 L 22.8125 0 L 19.40625 0 C 18.675781 0 18.210938 -0.335938 18.015625 -1.015625 L 17.546875 -3.25 C 16.609375 -2.175781 15.535156 -1.304688 14.328125 -0.640625 C 13.117188 0.015625 11.710938 0.34375 10.109375 0.34375 C 8.847656 0.34375 7.691406 0.0820312 6.640625 -0.4375 C 5.585938 -0.96875 4.679688 -1.734375 3.921875 -2.734375 C 3.171875 -3.734375 2.585938 -4.96875 2.171875 -6.4375 C 1.753906 -7.90625 1.546875 -9.585938 1.546875 -11.484375 C 1.546875 -13.191406 1.78125 -14.78125 2.25 -16.25 C 2.71875 -17.726562 3.382812 -19.003906 4.25 -20.078125 C 5.125 -21.160156 6.164062 -22.003906 7.375 -22.609375 C 8.59375 -23.222656 9.960938 -23.53125 11.484375 -23.53125 C 12.773438 -23.53125 13.878906 -23.328125 14.796875 -22.921875 C 15.710938 -22.515625 16.53125 -21.96875 17.25 -21.28125 L 17.25 -33.453125 Z M 22.8125 -33.453125 "/></g></g></g><g fill="#cb202d" fill-opacity="1"><g transform="translate(294.812654, 335.608836)"><g><path d="M 22.65625 -23.09375 L 22.65625 0 L 19.25 0 C 18.507812 0 18.046875 -0.335938 17.859375 -1.015625 L 17.46875 -2.859375 C 16.519531 -1.898438 15.472656 -1.125 14.328125 -0.53125 C 13.191406 0.0625 11.851562 0.359375 10.3125 0.359375 C 9.050781 0.359375 7.9375 0.144531 6.96875 -0.28125 C 6 -0.707031 5.179688 -1.3125 4.515625 -2.09375 C 3.859375 -2.875 3.359375 -3.800781 3.015625 -4.875 C 2.679688 -5.945312 2.515625 -7.128906 2.515625 -8.421875 L 2.515625 -23.09375 L 8.078125 -23.09375 L 8.078125 -8.421875 C 8.078125 -7.003906 8.40625 -5.910156 9.0625 -5.140625 C 9.71875 -4.367188 10.695312 -3.984375 12 -3.984375 C 12.957031 -3.984375 13.859375 -4.195312 14.703125 -4.625 C 15.546875 -5.050781 16.34375 -5.640625 17.09375 -6.390625 L 17.09375 -23.09375 Z M 22.65625 -23.09375 "/></g></g></g><g fill="#cb202d" fill-opacity="1"><g transform="translate(319.080181, 335.608836)"><g><path d="M 8.375 -33.453125 L 8.375 0 L 2.8125 0 L 2.8125 -33.453125 Z M 8.375 -33.453125 "/></g></g></g><g fill="#cb202d" fill-opacity="1"><g transform="translate(329.142776, 335.608836)"><g><path d="M 17.625 -14.203125 C 17.625 -14.921875 17.519531 -15.597656 17.3125 -16.234375 C 17.113281 -16.878906 16.8125 -17.441406 16.40625 -17.921875 C 16.007812 -18.398438 15.5 -18.773438 14.875 -19.046875 C 14.25 -19.328125 13.523438 -19.46875 12.703125 -19.46875 C 11.097656 -19.46875 9.832031 -19.007812 8.90625 -18.09375 C 7.976562 -17.1875 7.390625 -15.890625 7.140625 -14.203125 Z M 7.03125 -10.859375 C 7.113281 -9.671875 7.320312 -8.644531 7.65625 -7.78125 C 7.988281 -6.914062 8.421875 -6.203125 8.953125 -5.640625 C 9.492188 -5.078125 10.132812 -4.65625 10.875 -4.375 C 11.625 -4.101562 12.453125 -3.96875 13.359375 -3.96875 C 14.253906 -3.96875 15.023438 -4.070312 15.671875 -4.28125 C 16.328125 -4.488281 16.898438 -4.71875 17.390625 -4.96875 C 17.878906 -5.226562 18.304688 -5.460938 18.671875 -5.671875 C 19.046875 -5.878906 19.40625 -5.984375 19.75 -5.984375 C 20.207031 -5.984375 20.550781 -5.8125 20.78125 -5.46875 L 22.375 -3.4375 C 21.757812 -2.71875 21.066406 -2.113281 20.296875 -1.625 C 19.535156 -1.144531 18.738281 -0.753906 17.90625 -0.453125 C 17.070312 -0.160156 16.222656 0.0390625 15.359375 0.15625 C 14.503906 0.28125 13.671875 0.34375 12.859375 0.34375 C 11.253906 0.34375 9.757812 0.078125 8.375 -0.453125 C 6.988281 -0.992188 5.785156 -1.785156 4.765625 -2.828125 C 3.753906 -3.867188 2.953125 -5.15625 2.359375 -6.6875 C 1.773438 -8.226562 1.484375 -10.015625 1.484375 -12.046875 C 1.484375 -13.617188 1.738281 -15.097656 2.25 -16.484375 C 2.757812 -17.878906 3.488281 -19.085938 4.4375 -20.109375 C 5.394531 -21.140625 6.5625 -21.957031 7.9375 -22.5625 C 9.3125 -23.164062 10.863281 -23.46875 12.59375 -23.46875 C 14.039062 -23.46875 15.378906 -23.234375 16.609375 -22.765625 C 17.847656 -22.296875 18.910156 -21.613281 19.796875 -20.71875 C 20.679688 -19.832031 21.375 -18.738281 21.875 -17.4375 C 22.375 -16.132812 22.625 -14.648438 22.625 -12.984375 C 22.625 -12.148438 22.535156 -11.585938 22.359375 -11.296875 C 22.179688 -11.003906 21.835938 -10.859375 21.328125 -10.859375 Z M 7.03125 -10.859375 "/></g></g></g></svg>